M48
; DRILL file {KiCad 8.0.5} date 2024-10-07T09:03:52+0200
; FORMAT={-:-/ absolute / inch / decimal}
; #@! TF.CreationDate,2024-10-07T09:03:52+02:00
; #@! TF.GenerationSoftware,Kicad,Pcbnew,8.0.5
; #@! TF.FileFunction,Plated,1,4,PTH
FMAT,2
INCH
; #@! TA.AperFunction,Plated,PTH,ViaDrill
T1C0.0118
; #@! TA.AperFunction,Plated,PTH,ComponentDrill
T2C0.0118
; #@! TA.AperFunction,Plated,PTH,ComponentDrill
T3C0.0236
; #@! TA.AperFunction,Plated,PTH,ComponentDrill
T4C0.0394
; #@! TA.AperFunction,Plated,PTH,ComponentDrill
T5C0.0510
%
G90
G05
T1
X3.8Y-2.4
X3.8Y-2.6
X3.8Y-2.8
X3.8Y-2.9
X3.8Y-3.5
X3.9764Y-3.5041
X4.0Y-2.2
X4.0Y-2.3
X4.0Y-2.9
X4.0Y-3.8
X4.0157Y-3.0146
X4.0209Y-2.5008
X4.0354Y-3.5041
X4.0465Y-3.315
X4.0632Y-3.6417
X4.1Y-3.8
X4.1012Y-2.785
X4.1258Y-2.3996
X4.15Y-3.45
X4.1679Y-2.9141
X4.1809Y-3.0492
X4.187Y-3.2425
X4.1988Y-2.3996
X4.1988Y-2.4331
X4.2Y-2.2
X4.2Y-2.3
X4.2Y-3.8
X4.2305Y-2.5748
X4.25Y-3.3
X4.2717Y-3.4648
X4.2933Y-3.0805
X4.3Y-3.8
X4.3031Y-3.4526
X4.3108Y-3.622
X4.3307Y-2.4472
X4.3307Y-3.4648
X4.35Y-3.2
X4.3797Y-2.1496
X4.4211Y-2.5965
X4.4484Y-3.0634
X4.4589Y-2.6772
X4.4608Y-2.7402
X4.4843Y-3.1201
X4.4884Y-3.189
X4.4923Y-3.0551
X4.4961Y-2.378
X4.5Y-2.9
X4.5039Y-3.4289
X4.5531Y-3.0012
X4.5654Y-2.4969
X4.574Y-3.815
X4.5835Y-2.9681
X4.6Y-3.7
X4.6161Y-2.7402
X4.6205Y-2.6776
X4.6747Y-3.4518
X4.6882Y-3.0441
X4.6882Y-3.1098
X4.6882Y-3.1776
X4.6909Y-2.4217
X4.6921Y-2.3465
X4.6921Y-2.3844
X4.7087Y-3.0047
X4.7211Y-2.8689
X4.7224Y-2.1555
X4.7293Y-2.3844
X4.75Y-3.7
X4.75Y-3.8
X4.7626Y-2.4217
X4.7638Y-2.3465
X4.7638Y-2.3844
X4.776Y-3.0441
X4.776Y-3.1098
X4.776Y-3.1776
X4.787Y-3.215
X4.8177Y-2.8004
X4.8228Y-2.1555
X4.828Y-3.4061
X4.8449Y-3.0441
X4.8504Y-3.5118
X4.8587Y-3.1098
X4.8587Y-3.1776
X4.9437Y-2.2049
X4.9657Y-3.3736
X5.0Y-3.6
X5.0106Y-3.052
X5.063Y-2.2465
X5.0665Y-3.4169
X5.0667Y-3.0106
X5.0724Y-2.9496
X5.0772Y-3.0746
X5.124Y-2.8819
X5.1258Y-2.7165
X5.1417Y-3.5519
X5.15Y-3.7
X5.1654Y-2.5579
X5.1654Y-3.235
X5.1811Y-3.1874
X5.2Y-2.2
X5.2Y-2.4
X5.2344Y-2.6831
X5.2344Y-2.7402
X5.2764Y-3.1366
X5.2795Y-3.303
X5.3Y-3.4
X5.3Y-3.6
X5.3Y-3.8
X5.3295Y-3.0087
X5.3465Y-3.303
X5.35Y-2.55
X5.3815Y-3.013
X5.387Y-2.9197
X5.4Y-2.2
X5.4Y-2.4
X5.4Y-3.4
X5.4Y-3.6
X5.4Y-3.8
X5.4303Y-2.9106
X5.45Y-2.55
X5.4959Y-2.6831
X5.4959Y-2.7421
X5.4996Y-3.0177
X5.5Y-3.3
X5.5602Y-3.0641
X5.5618Y-2.907
X5.6Y-2.2
X5.6Y-2.4
X5.6Y-2.55
X5.6Y-3.4
X5.6Y-3.6
X5.6Y-3.8
X5.6328Y-3.0646
X5.6356Y-2.9075
X5.6906Y-2.5933
X5.6909Y-2.707
X5.7Y-3.3
X5.7417Y-2.526
X5.7559Y-2.6598
X5.7634Y-2.4823
X5.8Y-2.2
X5.8Y-2.4
X5.8Y-3.4
X5.8Y-3.6
X5.8Y-3.8
X5.8071Y-2.6606
X5.81Y-2.7736
X5.8124Y-2.5299
X5.8671Y-2.7693
X5.8679Y-2.6492
X5.8791Y-2.5181
X5.9Y-2.4815
X5.9Y-3.3
X5.9014Y-2.65
X5.9293Y-2.7094
X5.9333Y-2.65
X6.0Y-2.4
X6.0Y-3.4
X6.0Y-3.6
X6.0Y-3.8
X6.0995Y-2.5504
X6.1Y-2.75
X6.1Y-3.2
X6.1Y-3.35
X6.1Y-3.5
X6.1Y-3.8
X6.2Y-2.4
X6.2Y-3.6
X6.35Y-2.65
X6.35Y-2.85
X6.35Y-3.05
X6.35Y-3.25
X6.35Y-3.45
T2
X4.2638Y-2.4331
X4.2638Y-2.4626
X4.2638Y-2.4921
T4
X4.7165Y-2.6176
X4.7165Y-2.7176
X4.8165Y-2.6176
X4.8165Y-2.7176
X4.9165Y-2.6176
X4.9165Y-2.7176
T5
X6.2195Y-2.6363
X6.2195Y-2.8332
X6.2195Y-3.03
X6.2195Y-3.2269
X6.2195Y-3.4237
T3
G00X3.8071Y-3.0189
M15
G01X3.7835Y-3.0189
M16
G05
G00X3.8071Y-3.3591
M15
G01X3.7835Y-3.3591
M16
G05
G00X3.9815Y-3.0189
M15
G01X3.9382Y-3.0189
M16
G05
G00X3.9815Y-3.3591
M15
G01X3.9382Y-3.3591
M16
G05
M30
