%TF.GenerationSoftware,KiCad,Pcbnew,8.0.5*%
%TF.CreationDate,2024-10-07T09:03:38+02:00*%
%TF.ProjectId,ADC_Klipper_Board,4144435f-4b6c-4697-9070-65725f426f61,rev?*%
%TF.SameCoordinates,Original*%
%TF.FileFunction,Copper,L4,Bot*%
%TF.FilePolarity,Positive*%
%FSLAX46Y46*%
G04 Gerber Fmt 4.6, Leading zero omitted, Abs format (unit mm)*
G04 Created by KiCad (PCBNEW 8.0.5) date 2024-10-07 09:03:38*
%MOMM*%
%LPD*%
G01*
G04 APERTURE LIST*
G04 Aperture macros list*
%AMRoundRect*
0 Rectangle with rounded corners*
0 $1 Rounding radius*
0 $2 $3 $4 $5 $6 $7 $8 $9 X,Y pos of 4 corners*
0 Add a 4 corners polygon primitive as box body*
4,1,4,$2,$3,$4,$5,$6,$7,$8,$9,$2,$3,0*
0 Add four circle primitives for the rounded corners*
1,1,$1+$1,$2,$3*
1,1,$1+$1,$4,$5*
1,1,$1+$1,$6,$7*
1,1,$1+$1,$8,$9*
0 Add four rect primitives between the rounded corners*
20,1,$1+$1,$2,$3,$4,$5,0*
20,1,$1+$1,$4,$5,$6,$7,0*
20,1,$1+$1,$6,$7,$8,$9,0*
20,1,$1+$1,$8,$9,$2,$3,0*%
G04 Aperture macros list end*
%TA.AperFunction,ComponentPad*%
%ADD10C,0.482600*%
%TD*%
%TA.AperFunction,ComponentPad*%
%ADD11C,1.803400*%
%TD*%
%TA.AperFunction,ComponentPad*%
%ADD12RoundRect,0.500000X-0.600000X0.000010X-0.600000X-0.000010X0.600000X-0.000010X0.600000X0.000010X0*%
%TD*%
%TA.AperFunction,ComponentPad*%
%ADD13RoundRect,0.500000X-0.300000X0.000010X-0.300000X-0.000010X0.300000X-0.000010X0.300000X0.000010X0*%
%TD*%
%TA.AperFunction,ComponentPad*%
%ADD14R,1.700000X1.700000*%
%TD*%
%TA.AperFunction,ComponentPad*%
%ADD15O,1.700000X1.700000*%
%TD*%
%TA.AperFunction,ViaPad*%
%ADD16C,0.600000*%
%TD*%
%TA.AperFunction,ViaPad*%
%ADD17C,0.700000*%
%TD*%
%TA.AperFunction,Conductor*%
%ADD18C,0.350000*%
%TD*%
%TA.AperFunction,Conductor*%
%ADD19C,0.242062*%
%TD*%
%TA.AperFunction,Conductor*%
%ADD20C,0.300000*%
%TD*%
%TA.AperFunction,Conductor*%
%ADD21C,0.250000*%
%TD*%
G04 APERTURE END LIST*
D10*
%TO.P,U1,V*%
%TO.N,N/C*%
X108300000Y-61799998D03*
X108300000Y-62549999D03*
X108300000Y-63300000D03*
%TD*%
D11*
%TO.P,J3,1,1*%
%TO.N,AC_EXC0*%
X157975000Y-66962500D03*
%TO.P,J3,2,2*%
%TO.N,AC_EXC1*%
X157975000Y-71962500D03*
%TO.P,J3,3,3*%
%TO.N,Net-(J3-Pad3)*%
X157975000Y-76962500D03*
%TO.P,J3,4,4*%
%TO.N,Net-(J3-Pad4)*%
X157975000Y-81962501D03*
%TO.P,J3,5,5*%
%TO.N,GND*%
X157975000Y-86962501D03*
%TD*%
D12*
%TO.P,J1,S1,SHIELD*%
%TO.N,GND*%
X100580000Y-76680000D03*
D13*
X96400000Y-76680000D03*
D12*
X100580000Y-85320000D03*
D13*
X96400000Y-85320000D03*
%TD*%
D14*
%TO.P,J2,1,Pin_1*%
%TO.N,BOOT1*%
X124880000Y-66488001D03*
D15*
%TO.P,J2,2,Pin_2*%
%TO.N,+3V3*%
X124880000Y-69028001D03*
%TO.P,J2,3,Pin_3*%
%TO.N,STM_RST*%
X122340000Y-66488001D03*
%TO.P,J2,4,Pin_4*%
%TO.N,GND*%
X122340000Y-69028001D03*
%TO.P,J2,5,Pin_5*%
%TO.N,SWDIO*%
X119800000Y-66488001D03*
%TO.P,J2,6,Pin_6*%
%TO.N,SWCLK*%
X119800000Y-69028001D03*
%TD*%
D16*
%TO.N,+3V3*%
X128840000Y-74920000D03*
X105865000Y-74017500D03*
X112990000Y-77810000D03*
%TO.N,STM_RST*%
X126130000Y-85690000D03*
X121590000Y-81660000D03*
%TO.N,STM_BOOT0*%
X113900000Y-79250000D03*
X116180000Y-96900000D03*
%TO.N,SWDIO*%
X117360000Y-68010000D03*
X119600000Y-76320000D03*
%TO.N,SWCLK*%
X117250000Y-69600000D03*
X115650000Y-76230000D03*
%TO.N,AC_EXC0*%
X149330000Y-63960000D03*
X147500000Y-67580000D03*
%TO.N,Net-(U4-SCLK)*%
X134020000Y-79670000D03*
X131200000Y-82170000D03*
D17*
%TO.N,AIN0*%
X137930000Y-73930000D03*
X139690000Y-76650000D03*
%TO.N,GND*%
X119080000Y-80710000D03*
X144550000Y-68757499D03*
X118738000Y-87675001D03*
X121310000Y-78990000D03*
X138430000Y-64770000D03*
X132955000Y-69600000D03*
X142240000Y-55880000D03*
X154940000Y-81280000D03*
X123060000Y-77320000D03*
X139595000Y-68150000D03*
X147320000Y-86360000D03*
X109050000Y-78245000D03*
X112295000Y-65950000D03*
X119080000Y-77320000D03*
X122630000Y-86515000D03*
X109220000Y-96520000D03*
X119150000Y-61510000D03*
X128690000Y-86790000D03*
X103205000Y-92500000D03*
X106680000Y-55880000D03*
X113255000Y-68000000D03*
X152400000Y-86360000D03*
X102500000Y-89005000D03*
X130195000Y-69000000D03*
X96520000Y-73660000D03*
X101600000Y-73660000D03*
X115960000Y-63420000D03*
X143145000Y-73850000D03*
X109495000Y-92000000D03*
X132080000Y-55880000D03*
X108500000Y-88005000D03*
X102000000Y-76570000D03*
X106650000Y-60950000D03*
X114200000Y-60400000D03*
X104140000Y-96520000D03*
X96520000Y-71120000D03*
X110000000Y-62160000D03*
X146390000Y-63050000D03*
X143073402Y-77841599D03*
X161290000Y-67310000D03*
X134620000Y-86360000D03*
X147320000Y-91440000D03*
X110490000Y-81280000D03*
X149045000Y-67290000D03*
X134620000Y-91440000D03*
X157480000Y-91440000D03*
X111245000Y-54600000D03*
X119180000Y-60565001D03*
X147320000Y-60960000D03*
X96520000Y-66040000D03*
X106350000Y-82360000D03*
X107950000Y-83820000D03*
X130810000Y-93980000D03*
X141227901Y-77828600D03*
X149025000Y-70340000D03*
X149860000Y-83820000D03*
X121000000Y-59600000D03*
X135800000Y-83895000D03*
X123410000Y-80710000D03*
X122370000Y-71130000D03*
X102130000Y-63520000D03*
X150605000Y-68820000D03*
X114300000Y-73660000D03*
X130150000Y-73200000D03*
X137160000Y-96520000D03*
X96520000Y-60960000D03*
X121310000Y-80710000D03*
X139595000Y-69650000D03*
X106650000Y-61800000D03*
X106680000Y-58420000D03*
X120125000Y-60565001D03*
X137160000Y-91440000D03*
X161290000Y-87630000D03*
X137160000Y-86360000D03*
X142240000Y-60960000D03*
X106195000Y-77450000D03*
X119080000Y-78990000D03*
X142240000Y-91440000D03*
X101600000Y-96520000D03*
X106680000Y-96520000D03*
X130600000Y-90218999D03*
X114400000Y-87095000D03*
X144540000Y-65870000D03*
X96520000Y-88900000D03*
X137160000Y-55880000D03*
X154940000Y-96520000D03*
X110000000Y-88005000D03*
X114005000Y-81000000D03*
X131600000Y-80960000D03*
X120650000Y-96520000D03*
X154926975Y-64780666D03*
X152400000Y-91440000D03*
X123200000Y-89200000D03*
X127000000Y-91440000D03*
X161290000Y-77470000D03*
X109300000Y-87695000D03*
X157480000Y-60960000D03*
X135370000Y-76420000D03*
X135890000Y-64770000D03*
X119950001Y-54750001D03*
X136830000Y-74160000D03*
X128600000Y-57062001D03*
X122500000Y-54750000D03*
X128695000Y-76470000D03*
X141270000Y-73838600D03*
X120650000Y-93980000D03*
X152400000Y-96520000D03*
X121000000Y-60565001D03*
X102780000Y-84200000D03*
X137160000Y-60960000D03*
X101000000Y-89005000D03*
X101600000Y-58420000D03*
X119915000Y-72870000D03*
X114105000Y-77600000D03*
X154940000Y-85090000D03*
X107455000Y-65400000D03*
X161290000Y-82550000D03*
X125570000Y-56005000D03*
X104170000Y-70740000D03*
X144780000Y-83820000D03*
X119180000Y-59600000D03*
X154940000Y-69850000D03*
X154940000Y-88900000D03*
X121310000Y-77320000D03*
X147320000Y-55880000D03*
X104795000Y-60950000D03*
X132955000Y-68150000D03*
X142240000Y-86360000D03*
X120970000Y-61510000D03*
X142240000Y-64770000D03*
X136690000Y-76530000D03*
X105410000Y-87630000D03*
X101600000Y-55880000D03*
X132080000Y-60960000D03*
X142240000Y-96520000D03*
X149860000Y-63030000D03*
X161290000Y-72390000D03*
X131200000Y-64970000D03*
X116840000Y-93980000D03*
X152400000Y-60960000D03*
X113305000Y-69600000D03*
X123410000Y-78990000D03*
X116420000Y-75390000D03*
X134100000Y-83895000D03*
X147320000Y-96520000D03*
X134620000Y-96520000D03*
X139700000Y-83820000D03*
D16*
%TO.N,+5V_LN*%
X146200000Y-67560000D03*
X145840000Y-64160000D03*
%TO.N,EXC0*%
X150705000Y-67310000D03*
X147635000Y-64260000D03*
X128960000Y-78095000D03*
%TO.N,EXC1*%
X147575000Y-70450000D03*
X149895000Y-67310000D03*
X127270000Y-77520000D03*
%TD*%
D18*
%TO.N,+3V3*%
X128840000Y-72988001D02*
X128840000Y-74920000D01*
D19*
X105865000Y-74017500D02*
X107917500Y-76070000D01*
D18*
X123640000Y-67788001D02*
X124880000Y-69028001D01*
X123640000Y-65650000D02*
X123640000Y-67788001D01*
D20*
X112990000Y-71100000D02*
X113260000Y-70830000D01*
D19*
X107917500Y-76070000D02*
X111250000Y-76070000D01*
D18*
X119060000Y-65030000D02*
X123020000Y-65030000D01*
D20*
X112990000Y-77810000D02*
X112990000Y-71100000D01*
D18*
X124880000Y-69028001D02*
X128840000Y-72988001D01*
D19*
X111250000Y-76070000D02*
X112990000Y-77810000D01*
D18*
X123020000Y-65030000D02*
X123640000Y-65650000D01*
X113260000Y-70830000D02*
X119060000Y-65030000D01*
D20*
%TO.N,STM_RST*%
X121070000Y-67758001D02*
X121070000Y-76130000D01*
X121070000Y-76130000D02*
X120510000Y-76690000D01*
X120510000Y-76690000D02*
X120510000Y-80940000D01*
X122100000Y-81660000D02*
X126130000Y-85690000D01*
X121230000Y-81660000D02*
X121590000Y-81660000D01*
X121590000Y-81660000D02*
X122100000Y-81660000D01*
X122340000Y-66488001D02*
X121070000Y-67758001D01*
X120510000Y-80940000D02*
X121230000Y-81660000D01*
%TO.N,STM_BOOT0*%
X113470000Y-79250000D02*
X113900000Y-79250000D01*
X112550000Y-93270000D02*
X112550000Y-80170000D01*
X116180000Y-96900000D02*
X112550000Y-93270000D01*
X112550000Y-80170000D02*
X113470000Y-79250000D01*
D18*
%TO.N,SWDIO*%
X118300000Y-68950000D02*
X117360000Y-68010000D01*
X119600000Y-76320000D02*
X118300000Y-75020000D01*
X118300000Y-75020000D02*
X118300000Y-68950000D01*
%TO.N,SWCLK*%
X115650000Y-71200000D02*
X117250000Y-69600000D01*
X115650000Y-76230000D02*
X115650000Y-71200000D01*
D21*
%TO.N,AC_EXC0*%
X147320000Y-63340000D02*
X147480000Y-63340000D01*
X147490000Y-63330000D02*
X148700000Y-63330000D01*
X148700000Y-63330000D02*
X149330000Y-63960000D01*
X146800000Y-66880000D02*
X146800000Y-63860000D01*
X147500000Y-67580000D02*
X146800000Y-66880000D01*
X146800000Y-63860000D02*
X147320000Y-63340000D01*
X147480000Y-63340000D02*
X147490000Y-63330000D01*
D20*
%TO.N,Net-(U4-SCLK)*%
X131520000Y-82170000D02*
X134020000Y-79670000D01*
X131200000Y-82170000D02*
X131520000Y-82170000D01*
D18*
%TO.N,AIN0*%
X139690000Y-75690000D02*
X137930000Y-73930000D01*
X139690000Y-76650000D02*
X139690000Y-75690000D01*
D21*
%TO.N,+5V_LN*%
X145500000Y-64760000D02*
X145840000Y-64420000D01*
X145840000Y-64420000D02*
X145840000Y-64160000D01*
X145500000Y-67160000D02*
X145500000Y-64760000D01*
X146200000Y-67560000D02*
X145900000Y-67560000D01*
X145900000Y-67560000D02*
X145500000Y-67160000D01*
D18*
%TO.N,EXC0*%
X151280000Y-67885000D02*
X150705000Y-67310000D01*
X130435000Y-78095000D02*
X136960000Y-71570000D01*
X148809595Y-71570000D02*
X151280000Y-69099595D01*
X128960000Y-78095000D02*
X130435000Y-78095000D01*
X151280000Y-69099595D02*
X151280000Y-67885000D01*
X136960000Y-71570000D02*
X148809595Y-71570000D01*
D19*
X147700000Y-65800000D02*
X147700000Y-64325000D01*
X150705000Y-67310000D02*
X149265000Y-65870000D01*
X147700000Y-64325000D02*
X147635000Y-64260000D01*
X149265000Y-65870000D02*
X147770000Y-65870000D01*
X147770000Y-65870000D02*
X147700000Y-65800000D01*
%TO.N,EXC1*%
X149895000Y-67310000D02*
X149880000Y-67325000D01*
D18*
X128026116Y-77470000D02*
X128071116Y-77425000D01*
D19*
X149880000Y-68490000D02*
X147920000Y-70450000D01*
D18*
X127270000Y-77520000D02*
X127320000Y-77470000D01*
X129365405Y-77425000D02*
X136340405Y-70450000D01*
D19*
X149880000Y-67325000D02*
X149880000Y-68490000D01*
D18*
X128071116Y-77425000D02*
X129365405Y-77425000D01*
D19*
X147920000Y-70450000D02*
X147575000Y-70450000D01*
D18*
X136340405Y-70450000D02*
X147575000Y-70450000D01*
X127320000Y-77470000D02*
X128026116Y-77470000D01*
%TD*%
%TA.AperFunction,Conductor*%
%TO.N,GND*%
G36*
X118880703Y-69554015D02*
G01*
X118908856Y-69589272D01*
X118922315Y-69614451D01*
X118922317Y-69614453D01*
X119053589Y-69774411D01*
X119083164Y-69798682D01*
X119213550Y-69905686D01*
X119396046Y-70003233D01*
X119594066Y-70063301D01*
X119594065Y-70063301D01*
X119612529Y-70065119D01*
X119800000Y-70083584D01*
X120005934Y-70063301D01*
X120203954Y-70003233D01*
X120386450Y-69905686D01*
X120516836Y-69798681D01*
X120581145Y-69771369D01*
X120650013Y-69783160D01*
X120701573Y-69830312D01*
X120719500Y-69894535D01*
X120719500Y-75933456D01*
X120699815Y-76000495D01*
X120683181Y-76021137D01*
X120315841Y-76388476D01*
X120254518Y-76421961D01*
X120184826Y-76416977D01*
X120128893Y-76375105D01*
X120105423Y-76318444D01*
X120085165Y-76177543D01*
X120025377Y-76046627D01*
X119931128Y-75937857D01*
X119810053Y-75860047D01*
X119810051Y-75860046D01*
X119810049Y-75860045D01*
X119810050Y-75860045D01*
X119671958Y-75819498D01*
X119664429Y-75818416D01*
X119600874Y-75789390D01*
X119594398Y-75783360D01*
X118711819Y-74900781D01*
X118678334Y-74839458D01*
X118675500Y-74813100D01*
X118675500Y-69647728D01*
X118695185Y-69580689D01*
X118747989Y-69534934D01*
X118817147Y-69524990D01*
X118880703Y-69554015D01*
G37*
%TD.AperFunction*%
%TA.AperFunction,Conductor*%
G36*
X150392570Y-67704160D02*
G01*
X150494944Y-67769952D01*
X150494949Y-67769954D01*
X150633037Y-67810500D01*
X150640564Y-67811582D01*
X150704120Y-67840604D01*
X150710602Y-67846639D01*
X150868181Y-68004218D01*
X150901666Y-68065541D01*
X150904500Y-68091899D01*
X150904500Y-68892696D01*
X150884815Y-68959735D01*
X150868181Y-68980377D01*
X148690377Y-71158181D01*
X148629054Y-71191666D01*
X148602696Y-71194500D01*
X147678413Y-71194500D01*
X147611374Y-71174815D01*
X147575000Y-71132837D01*
X147538627Y-71174815D01*
X147471587Y-71194500D01*
X136910564Y-71194500D01*
X136862812Y-71207295D01*
X136862811Y-71207294D01*
X136815063Y-71220089D01*
X136815062Y-71220089D01*
X136729435Y-71269527D01*
X130315782Y-77683181D01*
X130254459Y-77716666D01*
X130228101Y-77719500D01*
X129901304Y-77719500D01*
X129834265Y-77699815D01*
X129788510Y-77647011D01*
X129778566Y-77577853D01*
X129807591Y-77514297D01*
X129813623Y-77507819D01*
X136459623Y-70861819D01*
X136520946Y-70828334D01*
X136547304Y-70825500D01*
X147197126Y-70825500D01*
X147264165Y-70845185D01*
X147264166Y-70845185D01*
X147364947Y-70909953D01*
X147364948Y-70909953D01*
X147364949Y-70909954D01*
X147506521Y-70951523D01*
X147565300Y-70989297D01*
X147575000Y-71010536D01*
X147584700Y-70989297D01*
X147643478Y-70951523D01*
X147643479Y-70951523D01*
X147785050Y-70909954D01*
X147785050Y-70909953D01*
X147785053Y-70909953D01*
X147906128Y-70832143D01*
X147932637Y-70801549D01*
X147991413Y-70763774D01*
X147994192Y-70762993D01*
X148044106Y-70749619D01*
X148044275Y-70749521D01*
X148044318Y-70749510D01*
X148044312Y-70749500D01*
X148117425Y-70707289D01*
X150137289Y-68687425D01*
X150179619Y-68614106D01*
X150201531Y-68532330D01*
X150201531Y-67808475D01*
X150221216Y-67741436D01*
X150274020Y-67695681D01*
X150343178Y-67685737D01*
X150392570Y-67704160D01*
G37*
%TD.AperFunction*%
%TA.AperFunction,Conductor*%
G36*
X161992539Y-53745185D02*
G01*
X162038294Y-53797989D01*
X162049500Y-53849500D01*
X162049500Y-97600500D01*
X162029815Y-97667539D01*
X161977011Y-97713294D01*
X161925500Y-97724500D01*
X94174500Y-97724500D01*
X94107461Y-97704815D01*
X94061706Y-97652011D01*
X94050500Y-97600500D01*
X94050500Y-94603711D01*
X95199500Y-94603711D01*
X95199500Y-94846288D01*
X95231161Y-95086785D01*
X95293947Y-95321104D01*
X95386773Y-95545205D01*
X95386776Y-95545212D01*
X95508064Y-95755289D01*
X95508066Y-95755292D01*
X95508067Y-95755293D01*
X95655733Y-95947736D01*
X95655739Y-95947743D01*
X95827256Y-96119260D01*
X95827262Y-96119265D01*
X96019711Y-96266936D01*
X96229788Y-96388224D01*
X96453900Y-96481054D01*
X96688211Y-96543838D01*
X96868586Y-96567584D01*
X96928711Y-96575500D01*
X96928712Y-96575500D01*
X97171289Y-96575500D01*
X97219388Y-96569167D01*
X97411789Y-96543838D01*
X97646100Y-96481054D01*
X97870212Y-96388224D01*
X98080289Y-96266936D01*
X98272738Y-96119265D01*
X98444265Y-95947738D01*
X98591936Y-95755289D01*
X98713224Y-95545212D01*
X98806054Y-95321100D01*
X98868838Y-95086789D01*
X98900500Y-94846288D01*
X98900500Y-94603712D01*
X98868838Y-94363211D01*
X98806054Y-94128900D01*
X98713224Y-93904788D01*
X98591936Y-93694711D01*
X98444265Y-93502262D01*
X98444260Y-93502256D01*
X98272743Y-93330739D01*
X98272736Y-93330733D01*
X98080293Y-93183067D01*
X98080292Y-93183066D01*
X98080289Y-93183064D01*
X97870212Y-93061776D01*
X97870205Y-93061773D01*
X97646104Y-92968947D01*
X97411785Y-92906161D01*
X97171289Y-92874500D01*
X97171288Y-92874500D01*
X96928712Y-92874500D01*
X96928711Y-92874500D01*
X96688214Y-92906161D01*
X96453895Y-92968947D01*
X96229794Y-93061773D01*
X96229785Y-93061777D01*
X96019706Y-93183067D01*
X95827263Y-93330733D01*
X95827256Y-93330739D01*
X95655739Y-93502256D01*
X95655733Y-93502263D01*
X95508067Y-93694706D01*
X95386777Y-93904785D01*
X95386773Y-93904794D01*
X95293947Y-94128895D01*
X95231161Y-94363214D01*
X95199500Y-94603711D01*
X94050500Y-94603711D01*
X94050500Y-83824234D01*
X99474500Y-83824234D01*
X99474500Y-83975765D01*
X99513719Y-84122136D01*
X99551602Y-84187750D01*
X99589485Y-84253365D01*
X99696635Y-84360515D01*
X99827865Y-84436281D01*
X99974234Y-84475500D01*
X99974236Y-84475500D01*
X100125764Y-84475500D01*
X100125766Y-84475500D01*
X100272135Y-84436281D01*
X100403365Y-84360515D01*
X100510515Y-84253365D01*
X100586281Y-84122135D01*
X100625500Y-83975766D01*
X100625500Y-83824234D01*
X100586281Y-83677865D01*
X100510515Y-83546635D01*
X100403365Y-83439485D01*
X100337750Y-83401602D01*
X100272136Y-83363719D01*
X100198950Y-83344109D01*
X100125766Y-83324500D01*
X99974234Y-83324500D01*
X99827863Y-83363719D01*
X99696635Y-83439485D01*
X99696632Y-83439487D01*
X99589487Y-83546632D01*
X99589485Y-83546635D01*
X99513719Y-83677863D01*
X99474500Y-83824234D01*
X94050500Y-83824234D01*
X94050500Y-80123856D01*
X112199500Y-80123856D01*
X112199500Y-93316144D01*
X112203410Y-93330735D01*
X112223386Y-93405287D01*
X112223387Y-93405290D01*
X112269527Y-93485208D01*
X112269531Y-93485213D01*
X115643495Y-96859176D01*
X115676980Y-96920499D01*
X115678552Y-96929210D01*
X115694834Y-97042456D01*
X115754622Y-97173371D01*
X115754623Y-97173373D01*
X115848872Y-97282143D01*
X115969947Y-97359953D01*
X115969950Y-97359954D01*
X115969949Y-97359954D01*
X116108036Y-97400499D01*
X116108038Y-97400500D01*
X116108039Y-97400500D01*
X116251962Y-97400500D01*
X116251962Y-97400499D01*
X116390053Y-97359953D01*
X116511128Y-97282143D01*
X116605377Y-97173373D01*
X116665165Y-97042457D01*
X116685647Y-96900000D01*
X116665165Y-96757543D01*
X116605377Y-96626627D01*
X116511128Y-96517857D01*
X116390053Y-96440047D01*
X116390051Y-96440046D01*
X116390049Y-96440045D01*
X116390050Y-96440045D01*
X116251963Y-96399500D01*
X116251961Y-96399500D01*
X116226543Y-96399500D01*
X116159504Y-96379815D01*
X116138862Y-96363181D01*
X114379393Y-94603711D01*
X157199500Y-94603711D01*
X157199500Y-94846288D01*
X157231161Y-95086785D01*
X157293947Y-95321104D01*
X157386773Y-95545205D01*
X157386776Y-95545212D01*
X157508064Y-95755289D01*
X157508066Y-95755292D01*
X157508067Y-95755293D01*
X157655733Y-95947736D01*
X157655739Y-95947743D01*
X157827256Y-96119260D01*
X157827262Y-96119265D01*
X158019711Y-96266936D01*
X158229788Y-96388224D01*
X158453900Y-96481054D01*
X158688211Y-96543838D01*
X158868586Y-96567584D01*
X158928711Y-96575500D01*
X158928712Y-96575500D01*
X159171289Y-96575500D01*
X159219388Y-96569167D01*
X159411789Y-96543838D01*
X159646100Y-96481054D01*
X159870212Y-96388224D01*
X160080289Y-96266936D01*
X160272738Y-96119265D01*
X160444265Y-95947738D01*
X160591936Y-95755289D01*
X160713224Y-95545212D01*
X160806054Y-95321100D01*
X160868838Y-95086789D01*
X160900500Y-94846288D01*
X160900500Y-94603712D01*
X160868838Y-94363211D01*
X160806054Y-94128900D01*
X160713224Y-93904788D01*
X160591936Y-93694711D01*
X160444265Y-93502262D01*
X160444260Y-93502256D01*
X160272743Y-93330739D01*
X160272736Y-93330733D01*
X160080293Y-93183067D01*
X160080292Y-93183066D01*
X160080289Y-93183064D01*
X159870212Y-93061776D01*
X159870205Y-93061773D01*
X159646104Y-92968947D01*
X159411785Y-92906161D01*
X159171289Y-92874500D01*
X159171288Y-92874500D01*
X158928712Y-92874500D01*
X158928711Y-92874500D01*
X158688214Y-92906161D01*
X158453895Y-92968947D01*
X158229794Y-93061773D01*
X158229785Y-93061777D01*
X158019706Y-93183067D01*
X157827263Y-93330733D01*
X157827256Y-93330739D01*
X157655739Y-93502256D01*
X157655733Y-93502263D01*
X157508067Y-93694706D01*
X157386777Y-93904785D01*
X157386773Y-93904794D01*
X157293947Y-94128895D01*
X157231161Y-94363214D01*
X157199500Y-94603711D01*
X114379393Y-94603711D01*
X112936819Y-93161137D01*
X112903334Y-93099814D01*
X112900500Y-93073456D01*
X112900500Y-80366543D01*
X112920185Y-80299504D01*
X112936815Y-80278866D01*
X113507144Y-79708536D01*
X113568465Y-79675053D01*
X113638156Y-79680037D01*
X113661862Y-79691904D01*
X113689947Y-79709953D01*
X113689950Y-79709954D01*
X113828036Y-79750499D01*
X113828038Y-79750500D01*
X113828039Y-79750500D01*
X113971962Y-79750500D01*
X113971962Y-79750499D01*
X114110053Y-79709953D01*
X114231128Y-79632143D01*
X114325377Y-79523373D01*
X114385165Y-79392457D01*
X114405647Y-79250000D01*
X114385165Y-79107543D01*
X114325377Y-78976627D01*
X114231128Y-78867857D01*
X114110053Y-78790047D01*
X114110051Y-78790046D01*
X114110049Y-78790045D01*
X114110050Y-78790045D01*
X113971963Y-78749500D01*
X113971961Y-78749500D01*
X113828039Y-78749500D01*
X113828036Y-78749500D01*
X113689949Y-78790045D01*
X113568876Y-78867854D01*
X113568874Y-78867855D01*
X113568872Y-78867857D01*
X113568870Y-78867858D01*
X113567312Y-78869210D01*
X113565427Y-78870070D01*
X113561411Y-78872652D01*
X113561039Y-78872074D01*
X113503757Y-78898237D01*
X113486105Y-78899500D01*
X113423856Y-78899500D01*
X113340073Y-78921948D01*
X113340074Y-78921949D01*
X113334712Y-78923385D01*
X113254787Y-78969531D01*
X113254784Y-78969533D01*
X112269529Y-79954788D01*
X112244554Y-79998049D01*
X112244552Y-79998051D01*
X112223388Y-80034706D01*
X112223387Y-80034709D01*
X112223386Y-80034711D01*
X112223386Y-80034712D01*
X112199500Y-80123856D01*
X94050500Y-80123856D01*
X94050500Y-78024234D01*
X99474500Y-78024234D01*
X99474500Y-78175765D01*
X99513719Y-78322136D01*
X99551602Y-78387750D01*
X99589485Y-78453365D01*
X99696635Y-78560515D01*
X99827865Y-78636281D01*
X99974234Y-78675500D01*
X99974236Y-78675500D01*
X100125764Y-78675500D01*
X100125766Y-78675500D01*
X100272135Y-78636281D01*
X100403365Y-78560515D01*
X100510515Y-78453365D01*
X100586281Y-78322135D01*
X100625500Y-78175766D01*
X100625500Y-78024234D01*
X100586281Y-77877865D01*
X100510515Y-77746635D01*
X100403365Y-77639485D01*
X100296616Y-77577853D01*
X100272136Y-77563719D01*
X100198950Y-77544109D01*
X100125766Y-77524500D01*
X99974234Y-77524500D01*
X99827863Y-77563719D01*
X99696635Y-77639485D01*
X99696632Y-77639487D01*
X99589487Y-77746632D01*
X99589485Y-77746635D01*
X99513719Y-77877863D01*
X99474500Y-78024234D01*
X94050500Y-78024234D01*
X94050500Y-74017500D01*
X105359353Y-74017500D01*
X105379834Y-74159956D01*
X105401603Y-74207622D01*
X105439623Y-74290873D01*
X105533872Y-74399643D01*
X105654947Y-74477453D01*
X105654950Y-74477454D01*
X105654949Y-74477454D01*
X105793036Y-74517999D01*
X105793038Y-74518000D01*
X105793039Y-74518000D01*
X105859424Y-74518000D01*
X105926463Y-74537685D01*
X105947105Y-74554319D01*
X107720075Y-76327288D01*
X107720078Y-76327289D01*
X107720081Y-76327292D01*
X107793389Y-76369617D01*
X107793390Y-76369617D01*
X107793393Y-76369619D01*
X107803673Y-76372373D01*
X107803677Y-76372376D01*
X107803678Y-76372375D01*
X107813867Y-76375105D01*
X107875170Y-76391531D01*
X111065455Y-76391531D01*
X111132494Y-76411216D01*
X111153136Y-76427850D01*
X112448034Y-77722748D01*
X112481519Y-77784071D01*
X112484169Y-77808726D01*
X112504834Y-77952456D01*
X112538953Y-78027164D01*
X112564623Y-78083373D01*
X112658872Y-78192143D01*
X112779947Y-78269953D01*
X112779950Y-78269954D01*
X112779949Y-78269954D01*
X112918036Y-78310499D01*
X112918038Y-78310500D01*
X112918039Y-78310500D01*
X113061962Y-78310500D01*
X113061962Y-78310499D01*
X113200053Y-78269953D01*
X113321128Y-78192143D01*
X113415377Y-78083373D01*
X113475165Y-77952457D01*
X113495647Y-77810000D01*
X113475165Y-77667543D01*
X113415377Y-77536627D01*
X113415374Y-77536623D01*
X113370786Y-77485164D01*
X113341762Y-77421608D01*
X113340500Y-77403963D01*
X113340500Y-71296544D01*
X113360185Y-71229505D01*
X113376816Y-71208865D01*
X113378387Y-71207294D01*
X113395371Y-71190310D01*
X113421049Y-71170606D01*
X113490563Y-71130474D01*
X116648604Y-67972432D01*
X116709925Y-67938949D01*
X116779617Y-67943933D01*
X116835550Y-67985805D01*
X116859021Y-68042468D01*
X116874834Y-68152456D01*
X116933809Y-68281590D01*
X116934623Y-68283373D01*
X117028872Y-68392143D01*
X117149947Y-68469953D01*
X117149950Y-68469954D01*
X117149949Y-68469954D01*
X117288037Y-68510500D01*
X117295564Y-68511582D01*
X117359120Y-68540604D01*
X117365602Y-68546639D01*
X117888181Y-69069218D01*
X117921666Y-69130541D01*
X117924500Y-69156899D01*
X117924500Y-69302111D01*
X117904815Y-69369150D01*
X117852011Y-69414905D01*
X117782853Y-69424849D01*
X117719297Y-69395824D01*
X117687706Y-69353623D01*
X117683918Y-69345329D01*
X117675377Y-69326627D01*
X117581128Y-69217857D01*
X117460053Y-69140047D01*
X117460051Y-69140046D01*
X117460049Y-69140045D01*
X117460050Y-69140045D01*
X117321963Y-69099500D01*
X117321961Y-69099500D01*
X117178039Y-69099500D01*
X117178036Y-69099500D01*
X117039949Y-69140045D01*
X116918873Y-69217856D01*
X116824623Y-69326626D01*
X116824622Y-69326628D01*
X116764835Y-69457541D01*
X116764834Y-69457546D01*
X116754489Y-69529495D01*
X116725463Y-69593051D01*
X116719432Y-69599528D01*
X115419438Y-70899525D01*
X115349527Y-70969435D01*
X115349525Y-70969437D01*
X115349525Y-70969438D01*
X115325797Y-71010536D01*
X115300091Y-71055060D01*
X115300090Y-71055063D01*
X115275688Y-71146133D01*
X115275685Y-71146144D01*
X115274500Y-71150561D01*
X115274500Y-75852815D01*
X115254815Y-75919854D01*
X115244215Y-75934016D01*
X115224623Y-75956627D01*
X115224622Y-75956628D01*
X115164834Y-76087543D01*
X115144353Y-76230000D01*
X115164834Y-76372456D01*
X115224622Y-76503371D01*
X115224623Y-76503373D01*
X115318872Y-76612143D01*
X115439947Y-76689953D01*
X115439950Y-76689954D01*
X115439949Y-76689954D01*
X115578036Y-76730499D01*
X115578038Y-76730500D01*
X115578039Y-76730500D01*
X115721962Y-76730500D01*
X115721962Y-76730499D01*
X115860053Y-76689953D01*
X115981128Y-76612143D01*
X116075377Y-76503373D01*
X116135165Y-76372457D01*
X116155647Y-76230000D01*
X116135165Y-76087543D01*
X116075377Y-75956627D01*
X116055785Y-75934016D01*
X116026762Y-75870460D01*
X116025500Y-75852815D01*
X116025500Y-71406899D01*
X116045185Y-71339860D01*
X116061819Y-71319218D01*
X116631537Y-70749500D01*
X117244400Y-70136637D01*
X117305721Y-70103154D01*
X117314436Y-70101582D01*
X117321962Y-70100500D01*
X117460050Y-70059954D01*
X117460050Y-70059953D01*
X117460053Y-70059953D01*
X117581128Y-69982143D01*
X117675377Y-69873373D01*
X117687706Y-69846375D01*
X117733460Y-69793573D01*
X117800499Y-69773888D01*
X117867539Y-69793572D01*
X117913294Y-69846376D01*
X117924500Y-69897888D01*
X117924500Y-75069435D01*
X117950090Y-75164938D01*
X117998075Y-75248050D01*
X117998076Y-75248051D01*
X117998075Y-75248051D01*
X117999521Y-75250556D01*
X117999528Y-75250565D01*
X119069432Y-76320470D01*
X119102917Y-76381793D01*
X119104489Y-76390503D01*
X119114834Y-76462453D01*
X119114835Y-76462458D01*
X119156967Y-76554712D01*
X119174623Y-76593373D01*
X119268872Y-76702143D01*
X119389947Y-76779953D01*
X119389950Y-76779954D01*
X119389949Y-76779954D01*
X119436806Y-76793712D01*
X119524650Y-76819505D01*
X119528036Y-76820499D01*
X119528038Y-76820500D01*
X119528039Y-76820500D01*
X119671962Y-76820500D01*
X119671962Y-76820499D01*
X119810053Y-76779953D01*
X119931128Y-76702143D01*
X119941788Y-76689840D01*
X120000565Y-76652067D01*
X120070435Y-76652067D01*
X120129213Y-76689841D01*
X120158238Y-76753397D01*
X120159500Y-76771044D01*
X120159500Y-80986143D01*
X120180441Y-81064298D01*
X120183385Y-81075286D01*
X120183387Y-81075290D01*
X120229527Y-81155208D01*
X120229529Y-81155211D01*
X120229530Y-81155212D01*
X121014788Y-81940470D01*
X121094712Y-81986614D01*
X121183856Y-82010500D01*
X121183864Y-82010500D01*
X121191916Y-82011561D01*
X121191461Y-82015009D01*
X121243144Y-82030185D01*
X121257312Y-82040790D01*
X121258866Y-82042137D01*
X121258872Y-82042143D01*
X121379947Y-82119953D01*
X121379950Y-82119954D01*
X121379949Y-82119954D01*
X121518036Y-82160499D01*
X121518038Y-82160500D01*
X121518039Y-82160500D01*
X121661962Y-82160500D01*
X121661962Y-82160499D01*
X121800050Y-82119954D01*
X121800051Y-82119954D01*
X121800053Y-82119953D01*
X121876839Y-82070605D01*
X121943876Y-82050921D01*
X122010916Y-82070605D01*
X122031558Y-82087240D01*
X125593495Y-85649177D01*
X125626980Y-85710500D01*
X125628552Y-85719210D01*
X125644834Y-85832456D01*
X125704622Y-85963371D01*
X125704623Y-85963373D01*
X125798872Y-86072143D01*
X125919947Y-86149953D01*
X125919950Y-86149954D01*
X125919949Y-86149954D01*
X126058036Y-86190499D01*
X126058038Y-86190500D01*
X126058039Y-86190500D01*
X126201962Y-86190500D01*
X126201962Y-86190499D01*
X126340053Y-86149953D01*
X126461128Y-86072143D01*
X126555377Y-85963373D01*
X126615165Y-85832457D01*
X126635647Y-85690000D01*
X126615165Y-85547543D01*
X126555377Y-85416627D01*
X126461128Y-85307857D01*
X126340053Y-85230047D01*
X126340051Y-85230046D01*
X126340049Y-85230045D01*
X126340050Y-85230045D01*
X126201963Y-85189500D01*
X126201961Y-85189500D01*
X126176544Y-85189500D01*
X126109505Y-85169815D01*
X126088863Y-85153181D01*
X123105682Y-82170000D01*
X130694353Y-82170000D01*
X130714834Y-82312456D01*
X130737627Y-82362364D01*
X130774623Y-82443373D01*
X130868872Y-82552143D01*
X130989947Y-82629953D01*
X130989950Y-82629954D01*
X130989949Y-82629954D01*
X131128036Y-82670499D01*
X131128038Y-82670500D01*
X131128039Y-82670500D01*
X131271962Y-82670500D01*
X131271962Y-82670499D01*
X131410053Y-82629953D01*
X131531128Y-82552143D01*
X131531346Y-82551891D01*
X131531625Y-82551711D01*
X131537828Y-82546337D01*
X131538600Y-82547228D01*
X131590116Y-82514112D01*
X131592878Y-82513336D01*
X131655288Y-82496614D01*
X131735212Y-82450470D01*
X132223182Y-81962500D01*
X156868078Y-81962500D01*
X156868078Y-81962501D01*
X156886924Y-82165896D01*
X156942825Y-82362364D01*
X156942830Y-82362377D01*
X156983161Y-82443371D01*
X157033876Y-82545220D01*
X157039105Y-82552145D01*
X157156977Y-82708232D01*
X157156981Y-82708236D01*
X157307929Y-82845843D01*
X157307931Y-82845845D01*
X157481598Y-82953375D01*
X157481604Y-82953378D01*
X157521955Y-82969009D01*
X157672076Y-83027167D01*
X157872866Y-83064701D01*
X157872868Y-83064701D01*
X158077132Y-83064701D01*
X158077134Y-83064701D01*
X158277924Y-83027167D01*
X158468398Y-82953377D01*
X158642070Y-82845844D01*
X158793025Y-82708230D01*
X158916124Y-82545220D01*
X159007174Y-82362367D01*
X159063075Y-82165897D01*
X159081922Y-81962501D01*
X159063075Y-81759105D01*
X159007174Y-81562635D01*
X158916124Y-81379782D01*
X158793025Y-81216772D01*
X158793022Y-81216769D01*
X158793018Y-81216765D01*
X158642070Y-81079158D01*
X158642068Y-81079156D01*
X158468401Y-80971626D01*
X158468395Y-80971623D01*
X158318277Y-80913467D01*
X158277924Y-80897835D01*
X158077134Y-80860301D01*
X157872866Y-80860301D01*
X157672076Y-80897835D01*
X157672073Y-80897835D01*
X157672073Y-80897836D01*
X157481604Y-80971623D01*
X157481598Y-80971626D01*
X157307931Y-81079156D01*
X157307929Y-81079158D01*
X157156981Y-81216765D01*
X157156977Y-81216769D01*
X157033876Y-81379781D01*
X156942830Y-81562624D01*
X156942825Y-81562637D01*
X156886924Y-81759105D01*
X156868078Y-81962500D01*
X132223182Y-81962500D01*
X133978863Y-80206819D01*
X134040186Y-80173334D01*
X134066544Y-80170500D01*
X134091962Y-80170500D01*
X134091962Y-80170499D01*
X134230053Y-80129953D01*
X134351128Y-80052143D01*
X134445377Y-79943373D01*
X134505165Y-79812457D01*
X134525647Y-79670000D01*
X134505165Y-79527543D01*
X134445377Y-79396627D01*
X134351128Y-79287857D01*
X134230053Y-79210047D01*
X134230051Y-79210046D01*
X134230049Y-79210045D01*
X134230050Y-79210045D01*
X134091963Y-79169500D01*
X134091961Y-79169500D01*
X133948039Y-79169500D01*
X133948036Y-79169500D01*
X133809949Y-79210045D01*
X133688873Y-79287856D01*
X133594623Y-79396626D01*
X133594622Y-79396628D01*
X133534834Y-79527543D01*
X133518552Y-79640788D01*
X133489526Y-79704343D01*
X133483495Y-79710821D01*
X131519448Y-81674868D01*
X131458125Y-81708353D01*
X131396833Y-81706164D01*
X131271964Y-81669500D01*
X131271961Y-81669500D01*
X131128039Y-81669500D01*
X131128036Y-81669500D01*
X130989949Y-81710045D01*
X130868873Y-81787856D01*
X130774623Y-81896626D01*
X130774622Y-81896628D01*
X130714834Y-82027543D01*
X130694353Y-82170000D01*
X123105682Y-82170000D01*
X122315213Y-81379531D01*
X122315208Y-81379527D01*
X122235291Y-81333387D01*
X122235287Y-81333385D01*
X122229926Y-81331949D01*
X122229926Y-81331948D01*
X122161476Y-81313608D01*
X122146144Y-81309500D01*
X122146143Y-81309500D01*
X122003895Y-81309500D01*
X121936856Y-81289815D01*
X121922688Y-81279210D01*
X121921132Y-81277862D01*
X121921128Y-81277857D01*
X121800053Y-81200047D01*
X121800051Y-81200046D01*
X121800049Y-81200045D01*
X121800050Y-81200045D01*
X121661963Y-81159500D01*
X121661961Y-81159500D01*
X121518039Y-81159500D01*
X121518036Y-81159500D01*
X121379944Y-81200047D01*
X121379835Y-81200097D01*
X121379716Y-81200114D01*
X121371437Y-81202545D01*
X121371087Y-81201353D01*
X121310675Y-81210030D01*
X121247123Y-81180997D01*
X121240658Y-81174976D01*
X120896819Y-80831137D01*
X120863334Y-80769814D01*
X120860500Y-80743456D01*
X120860500Y-77520000D01*
X126764353Y-77520000D01*
X126784834Y-77662456D01*
X126840375Y-77784071D01*
X126844623Y-77793373D01*
X126938872Y-77902143D01*
X127059947Y-77979953D01*
X127059950Y-77979954D01*
X127059949Y-77979954D01*
X127198036Y-78020499D01*
X127198038Y-78020500D01*
X127198039Y-78020500D01*
X127341962Y-78020500D01*
X127341962Y-78020499D01*
X127480053Y-77979953D01*
X127601128Y-77902143D01*
X127613126Y-77888296D01*
X127671903Y-77850523D01*
X127706838Y-77845500D01*
X128075551Y-77845500D01*
X128075552Y-77845500D01*
X128123302Y-77832705D01*
X128171054Y-77819910D01*
X128175897Y-77817114D01*
X128237899Y-77800500D01*
X128353834Y-77800500D01*
X128420873Y-77820185D01*
X128466628Y-77872989D01*
X128476572Y-77942147D01*
X128475857Y-77945434D01*
X128454353Y-78095000D01*
X128474834Y-78237456D01*
X128534622Y-78368371D01*
X128534623Y-78368373D01*
X128628872Y-78477143D01*
X128749947Y-78554953D01*
X128749950Y-78554954D01*
X128749949Y-78554954D01*
X128888036Y-78595499D01*
X128888038Y-78595500D01*
X128888039Y-78595500D01*
X129031962Y-78595500D01*
X129031962Y-78595499D01*
X129139121Y-78564035D01*
X129170050Y-78554954D01*
X129170050Y-78554953D01*
X129170053Y-78554953D01*
X129270834Y-78490184D01*
X129337874Y-78470500D01*
X130484435Y-78470500D01*
X130484436Y-78470500D01*
X130532186Y-78457705D01*
X130579938Y-78444910D01*
X130665562Y-78395475D01*
X130735475Y-78325562D01*
X135131037Y-73930000D01*
X137374750Y-73930000D01*
X137392132Y-74062030D01*
X137393670Y-74073708D01*
X137393671Y-74073712D01*
X137449137Y-74207622D01*
X137449138Y-74207624D01*
X137449139Y-74207625D01*
X137537379Y-74322621D01*
X137652375Y-74410861D01*
X137786291Y-74466330D01*
X137916151Y-74483426D01*
X137980047Y-74511692D01*
X137987646Y-74518684D01*
X139278181Y-75809218D01*
X139311666Y-75870541D01*
X139314500Y-75896899D01*
X139314500Y-76192974D01*
X139294815Y-76260013D01*
X139288882Y-76268452D01*
X139250524Y-76318441D01*
X139209137Y-76372377D01*
X139153671Y-76506287D01*
X139153670Y-76506291D01*
X139134750Y-76650000D01*
X139153590Y-76793105D01*
X139153670Y-76793708D01*
X139153671Y-76793712D01*
X139209137Y-76927622D01*
X139209138Y-76927624D01*
X139209139Y-76927625D01*
X139297379Y-77042621D01*
X139412375Y-77130861D01*
X139412376Y-77130861D01*
X139412377Y-77130862D01*
X139429265Y-77137857D01*
X139546291Y-77186330D01*
X139673280Y-77203048D01*
X139689999Y-77205250D01*
X139690000Y-77205250D01*
X139690001Y-77205250D01*
X139704977Y-77203278D01*
X139833709Y-77186330D01*
X139967625Y-77130861D01*
X140082621Y-77042621D01*
X140144101Y-76962499D01*
X156868078Y-76962499D01*
X156868078Y-76962500D01*
X156886924Y-77165895D01*
X156942825Y-77362363D01*
X156942830Y-77362376D01*
X157003972Y-77485164D01*
X157033876Y-77545219D01*
X157150621Y-77699815D01*
X157156977Y-77708231D01*
X157156981Y-77708235D01*
X157307929Y-77845842D01*
X157307931Y-77845844D01*
X157481598Y-77953374D01*
X157481604Y-77953377D01*
X157521955Y-77969008D01*
X157672076Y-78027166D01*
X157872866Y-78064700D01*
X157872868Y-78064700D01*
X158077132Y-78064700D01*
X158077134Y-78064700D01*
X158277924Y-78027166D01*
X158468398Y-77953376D01*
X158642070Y-77845843D01*
X158793025Y-77708229D01*
X158916124Y-77545219D01*
X159007174Y-77362366D01*
X159063075Y-77165896D01*
X159081922Y-76962500D01*
X159078690Y-76927625D01*
X159063075Y-76759104D01*
X159054936Y-76730499D01*
X159007174Y-76562634D01*
X159003229Y-76554712D01*
X158957290Y-76462453D01*
X158916124Y-76379781D01*
X158793025Y-76216771D01*
X158793022Y-76216768D01*
X158793018Y-76216764D01*
X158642070Y-76079157D01*
X158642068Y-76079155D01*
X158468401Y-75971625D01*
X158468395Y-75971622D01*
X158318277Y-75913466D01*
X158277924Y-75897834D01*
X158077134Y-75860300D01*
X157872866Y-75860300D01*
X157672076Y-75897834D01*
X157672073Y-75897834D01*
X157672073Y-75897835D01*
X157481604Y-75971622D01*
X157481598Y-75971625D01*
X157307931Y-76079155D01*
X157307929Y-76079157D01*
X157156981Y-76216764D01*
X157156977Y-76216768D01*
X157033876Y-76379780D01*
X156942830Y-76562623D01*
X156942825Y-76562636D01*
X156886924Y-76759104D01*
X156868078Y-76962499D01*
X140144101Y-76962499D01*
X140170861Y-76927625D01*
X140226330Y-76793709D01*
X140245250Y-76650000D01*
X140226330Y-76506291D01*
X140170861Y-76372375D01*
X140091123Y-76268459D01*
X140065930Y-76203291D01*
X140065500Y-76192974D01*
X140065500Y-75640567D01*
X140065500Y-75640565D01*
X140039910Y-75545062D01*
X140015192Y-75502250D01*
X140015192Y-75502249D01*
X140015190Y-75502247D01*
X139990474Y-75459436D01*
X139990471Y-75459432D01*
X138518684Y-73987646D01*
X138485199Y-73926323D01*
X138483428Y-73916163D01*
X138466330Y-73786291D01*
X138410861Y-73652375D01*
X138322621Y-73537379D01*
X138207625Y-73449139D01*
X138207624Y-73449138D01*
X138207622Y-73449137D01*
X138073712Y-73393671D01*
X138073710Y-73393670D01*
X138073709Y-73393670D01*
X138001854Y-73384210D01*
X137930001Y-73374750D01*
X137929999Y-73374750D01*
X137786291Y-73393670D01*
X137786287Y-73393671D01*
X137652377Y-73449137D01*
X137537379Y-73537379D01*
X137449137Y-73652377D01*
X137393671Y-73786287D01*
X137393670Y-73786291D01*
X137377654Y-73907946D01*
X137374750Y-73930000D01*
X135131037Y-73930000D01*
X137079218Y-71981819D01*
X137114600Y-71962499D01*
X156868078Y-71962499D01*
X156868078Y-71962500D01*
X156886924Y-72165895D01*
X156942825Y-72362363D01*
X156942830Y-72362376D01*
X157033876Y-72545219D01*
X157156977Y-72708231D01*
X157156981Y-72708235D01*
X157210958Y-72757441D01*
X157304880Y-72843063D01*
X157307929Y-72845842D01*
X157307931Y-72845844D01*
X157481598Y-72953374D01*
X157481604Y-72953377D01*
X157521955Y-72969008D01*
X157672076Y-73027166D01*
X157872866Y-73064700D01*
X157872868Y-73064700D01*
X158077132Y-73064700D01*
X158077134Y-73064700D01*
X158277924Y-73027166D01*
X158468398Y-72953376D01*
X158642070Y-72845843D01*
X158793025Y-72708229D01*
X158916124Y-72545219D01*
X159007174Y-72362366D01*
X159063075Y-72165896D01*
X159081922Y-71962500D01*
X159077975Y-71919909D01*
X159063075Y-71759104D01*
X159007174Y-71562634D01*
X158916124Y-71379781D01*
X158793025Y-71216771D01*
X158793022Y-71216768D01*
X158793018Y-71216764D01*
X158642070Y-71079157D01*
X158642068Y-71079155D01*
X158468401Y-70971625D01*
X158468395Y-70971622D01*
X158309207Y-70909953D01*
X158277924Y-70897834D01*
X158077134Y-70860300D01*
X157872866Y-70860300D01*
X157672076Y-70897834D01*
X157672073Y-70897834D01*
X157672073Y-70897835D01*
X157481604Y-70971622D01*
X157481598Y-70971625D01*
X157307931Y-71079155D01*
X157307929Y-71079157D01*
X157156981Y-71216764D01*
X157156977Y-71216768D01*
X157033876Y-71379780D01*
X156942830Y-71562623D01*
X156942825Y-71562636D01*
X156886924Y-71759104D01*
X156868078Y-71962499D01*
X137114600Y-71962499D01*
X137140541Y-71948334D01*
X137166899Y-71945500D01*
X148859030Y-71945500D01*
X148859031Y-71945500D01*
X148906781Y-71932705D01*
X148954533Y-71919910D01*
X149040157Y-71870475D01*
X149110070Y-71800562D01*
X151580474Y-69330158D01*
X151580475Y-69330157D01*
X151629910Y-69244533D01*
X151655500Y-69149030D01*
X151655500Y-67835565D01*
X151647081Y-67804145D01*
X151629911Y-67740063D01*
X151619746Y-67722456D01*
X151580477Y-67654440D01*
X151580473Y-67654435D01*
X151235566Y-67309529D01*
X151202081Y-67248206D01*
X151200509Y-67239493D01*
X151200446Y-67239057D01*
X151190165Y-67167543D01*
X151167150Y-67117147D01*
X151130379Y-67036630D01*
X151130376Y-67036626D01*
X151120452Y-67025173D01*
X151066145Y-66962499D01*
X156868078Y-66962499D01*
X156868078Y-66962500D01*
X156886924Y-67165895D01*
X156942825Y-67362363D01*
X156942830Y-67362376D01*
X156995033Y-67467212D01*
X157033876Y-67545219D01*
X157156764Y-67707950D01*
X157156977Y-67708231D01*
X157156981Y-67708235D01*
X157307929Y-67845842D01*
X157307931Y-67845844D01*
X157481598Y-67953374D01*
X157481604Y-67953377D01*
X157504232Y-67962143D01*
X157672076Y-68027166D01*
X157872866Y-68064700D01*
X157872868Y-68064700D01*
X158077132Y-68064700D01*
X158077134Y-68064700D01*
X158277924Y-68027166D01*
X158468398Y-67953376D01*
X158642070Y-67845843D01*
X158793025Y-67708229D01*
X158916124Y-67545219D01*
X159007174Y-67362366D01*
X159063075Y-67165896D01*
X159081922Y-66962500D01*
X159063075Y-66759104D01*
X159007174Y-66562634D01*
X158916124Y-66379781D01*
X158793025Y-66216771D01*
X158793022Y-66216768D01*
X158793018Y-66216764D01*
X158642070Y-66079157D01*
X158642068Y-66079155D01*
X158468401Y-65971625D01*
X158468395Y-65971622D01*
X158318277Y-65913466D01*
X158277924Y-65897834D01*
X158077134Y-65860300D01*
X157872866Y-65860300D01*
X157672076Y-65897834D01*
X157672073Y-65897834D01*
X157672073Y-65897835D01*
X157481604Y-65971622D01*
X157481598Y-65971625D01*
X157307931Y-66079155D01*
X157307929Y-66079157D01*
X157156981Y-66216764D01*
X157156977Y-66216768D01*
X157033876Y-66379780D01*
X156942830Y-66562623D01*
X156942825Y-66562636D01*
X156886924Y-66759104D01*
X156868078Y-66962499D01*
X151066145Y-66962499D01*
X151036128Y-66927857D01*
X150915053Y-66850047D01*
X150915051Y-66850046D01*
X150915049Y-66850045D01*
X150915050Y-66850045D01*
X150776963Y-66809500D01*
X150776961Y-66809500D01*
X150710576Y-66809500D01*
X150643537Y-66789815D01*
X150622895Y-66773181D01*
X149462424Y-65612710D01*
X149389106Y-65570381D01*
X149389107Y-65570381D01*
X149368662Y-65564903D01*
X149307330Y-65548469D01*
X149307327Y-65548469D01*
X148145531Y-65548469D01*
X148078492Y-65528784D01*
X148032737Y-65475980D01*
X148021531Y-65424469D01*
X148021531Y-64624453D01*
X148041216Y-64557414D01*
X148051819Y-64543249D01*
X148060377Y-64533373D01*
X148120165Y-64402457D01*
X148140647Y-64260000D01*
X148120165Y-64117543D01*
X148060377Y-63986627D01*
X147966128Y-63877857D01*
X147966124Y-63877854D01*
X147960767Y-63873212D01*
X147922994Y-63814434D01*
X147922994Y-63744564D01*
X147960769Y-63685786D01*
X148024325Y-63656762D01*
X148041971Y-63655500D01*
X148513811Y-63655500D01*
X148580850Y-63675185D01*
X148601492Y-63691819D01*
X148788034Y-63878361D01*
X148821519Y-63939684D01*
X148822764Y-63951268D01*
X148823091Y-63951222D01*
X148844834Y-64102456D01*
X148871114Y-64160000D01*
X148904623Y-64233373D01*
X148998872Y-64342143D01*
X149119947Y-64419953D01*
X149119950Y-64419954D01*
X149119949Y-64419954D01*
X149227107Y-64451417D01*
X149237955Y-64454603D01*
X149258036Y-64460499D01*
X149258038Y-64460500D01*
X149258039Y-64460500D01*
X149401962Y-64460500D01*
X149401962Y-64460499D01*
X149540053Y-64419953D01*
X149661128Y-64342143D01*
X149755377Y-64233373D01*
X149815165Y-64102457D01*
X149835647Y-63960000D01*
X149815165Y-63817543D01*
X149755377Y-63686627D01*
X149661128Y-63577857D01*
X149540053Y-63500047D01*
X149540051Y-63500046D01*
X149540049Y-63500045D01*
X149540050Y-63500045D01*
X149401963Y-63459500D01*
X149401961Y-63459500D01*
X149341188Y-63459500D01*
X149274149Y-63439815D01*
X149253507Y-63423181D01*
X148899864Y-63069537D01*
X148899863Y-63069536D01*
X148899862Y-63069535D01*
X148862750Y-63048108D01*
X148825640Y-63026682D01*
X148764406Y-63010275D01*
X148742853Y-63004500D01*
X147532853Y-63004500D01*
X147447147Y-63004500D01*
X147425593Y-63010275D01*
X147393502Y-63014500D01*
X147277147Y-63014500D01*
X147194359Y-63036682D01*
X147120138Y-63079535D01*
X147120135Y-63079537D01*
X146539537Y-63660135D01*
X146539533Y-63660141D01*
X146496681Y-63734361D01*
X146496682Y-63734362D01*
X146472397Y-63824997D01*
X146470154Y-63824396D01*
X146446711Y-63877380D01*
X146388384Y-63915848D01*
X146318519Y-63916674D01*
X146259298Y-63879598D01*
X146258331Y-63878495D01*
X146237192Y-63854100D01*
X146171128Y-63777857D01*
X146050053Y-63700047D01*
X146050051Y-63700046D01*
X146050049Y-63700045D01*
X146050050Y-63700045D01*
X145911963Y-63659500D01*
X145911961Y-63659500D01*
X145768039Y-63659500D01*
X145768036Y-63659500D01*
X145629949Y-63700045D01*
X145508873Y-63777856D01*
X145414623Y-63886626D01*
X145414622Y-63886628D01*
X145354834Y-64017543D01*
X145334353Y-64160000D01*
X145354834Y-64302452D01*
X145354835Y-64302458D01*
X145363709Y-64321889D01*
X145373650Y-64391048D01*
X145344623Y-64454603D01*
X145338595Y-64461078D01*
X145239534Y-64560138D01*
X145202402Y-64624453D01*
X145196682Y-64634361D01*
X145194597Y-64642143D01*
X145184429Y-64680087D01*
X145184429Y-64680090D01*
X145174500Y-64717147D01*
X145174500Y-64717150D01*
X145174500Y-67202852D01*
X145196682Y-67285640D01*
X145208800Y-67306628D01*
X145239535Y-67359862D01*
X145639534Y-67759861D01*
X145639535Y-67759862D01*
X145700138Y-67820465D01*
X145700140Y-67820466D01*
X145700144Y-67820469D01*
X145774359Y-67863317D01*
X145781872Y-67866429D01*
X145781093Y-67868309D01*
X145831419Y-67898974D01*
X145833392Y-67901196D01*
X145860898Y-67932941D01*
X145868872Y-67942143D01*
X145989947Y-68019953D01*
X145989950Y-68019954D01*
X145989949Y-68019954D01*
X146128036Y-68060499D01*
X146128038Y-68060500D01*
X146128039Y-68060500D01*
X146271962Y-68060500D01*
X146271962Y-68060499D01*
X146379121Y-68029035D01*
X146410050Y-68019954D01*
X146410050Y-68019953D01*
X146410053Y-68019953D01*
X146531128Y-67942143D01*
X146625377Y-67833373D01*
X146685165Y-67702457D01*
X146705647Y-67560000D01*
X146705647Y-67559999D01*
X146705647Y-67551131D01*
X146707502Y-67551131D01*
X146715873Y-67492863D01*
X146761622Y-67440054D01*
X146828659Y-67420362D01*
X146895701Y-67440039D01*
X146916354Y-67456681D01*
X146958034Y-67498361D01*
X146991519Y-67559684D01*
X146992764Y-67571268D01*
X146993091Y-67571222D01*
X147014834Y-67722456D01*
X147071548Y-67846639D01*
X147074623Y-67853373D01*
X147168872Y-67962143D01*
X147289947Y-68039953D01*
X147289950Y-68039954D01*
X147289949Y-68039954D01*
X147428036Y-68080499D01*
X147428038Y-68080500D01*
X147428039Y-68080500D01*
X147571962Y-68080500D01*
X147571962Y-68080499D01*
X147710053Y-68039953D01*
X147831128Y-67962143D01*
X147925377Y-67853373D01*
X147985165Y-67722457D01*
X148005647Y-67580000D01*
X147985165Y-67437543D01*
X147925377Y-67306627D01*
X147831128Y-67197857D01*
X147710053Y-67120047D01*
X147710051Y-67120046D01*
X147710049Y-67120045D01*
X147710050Y-67120045D01*
X147571963Y-67079500D01*
X147571961Y-67079500D01*
X147511189Y-67079500D01*
X147444150Y-67059815D01*
X147423508Y-67043181D01*
X147161819Y-66781492D01*
X147128334Y-66720169D01*
X147125500Y-66693811D01*
X147125500Y-64754599D01*
X147145185Y-64687560D01*
X147197989Y-64641805D01*
X147267147Y-64631861D01*
X147316532Y-64650279D01*
X147321504Y-64653474D01*
X147367261Y-64706274D01*
X147378469Y-64757792D01*
X147378469Y-65842329D01*
X147395274Y-65905048D01*
X147400380Y-65924103D01*
X147400381Y-65924106D01*
X147427815Y-65971625D01*
X147442711Y-65997425D01*
X147572575Y-66127289D01*
X147572576Y-66127290D01*
X147572578Y-66127291D01*
X147631633Y-66161385D01*
X147631635Y-66161387D01*
X147631636Y-66161387D01*
X147645894Y-66169619D01*
X147727670Y-66191531D01*
X149080455Y-66191531D01*
X149147494Y-66211216D01*
X149168136Y-66227850D01*
X149640296Y-66700010D01*
X149673781Y-66761333D01*
X149668797Y-66831025D01*
X149626925Y-66886958D01*
X149619656Y-66892006D01*
X149563873Y-66927856D01*
X149469623Y-67036626D01*
X149469622Y-67036628D01*
X149409834Y-67167543D01*
X149389353Y-67310000D01*
X149409834Y-67452456D01*
X149469622Y-67583371D01*
X149469623Y-67583373D01*
X149528182Y-67650954D01*
X149557207Y-67714509D01*
X149558469Y-67732156D01*
X149558469Y-68305454D01*
X149538784Y-68372493D01*
X149522150Y-68393135D01*
X147941051Y-69974233D01*
X147879728Y-70007718D01*
X147810036Y-70002734D01*
X147786335Y-69990871D01*
X147785050Y-69990045D01*
X147646963Y-69949500D01*
X147646961Y-69949500D01*
X147503039Y-69949500D01*
X147503036Y-69949500D01*
X147364949Y-69990045D01*
X147364948Y-69990046D01*
X147264166Y-70054815D01*
X147197126Y-70074500D01*
X136290969Y-70074500D01*
X136195466Y-70100089D01*
X136109843Y-70149525D01*
X136109840Y-70149527D01*
X129246187Y-77013181D01*
X129184864Y-77046666D01*
X129158506Y-77049500D01*
X128021680Y-77049500D01*
X127926179Y-77075089D01*
X127926174Y-77075091D01*
X127921334Y-77077886D01*
X127859333Y-77094500D01*
X127570072Y-77094500D01*
X127503033Y-77074815D01*
X127503032Y-77074815D01*
X127480050Y-77060045D01*
X127341963Y-77019500D01*
X127341961Y-77019500D01*
X127198039Y-77019500D01*
X127198036Y-77019500D01*
X127059949Y-77060045D01*
X126938873Y-77137856D01*
X126844623Y-77246626D01*
X126844622Y-77246628D01*
X126784834Y-77377543D01*
X126764353Y-77520000D01*
X120860500Y-77520000D01*
X120860500Y-76886544D01*
X120880185Y-76819505D01*
X120896819Y-76798863D01*
X121102311Y-76593371D01*
X121350470Y-76345212D01*
X121396614Y-76265288D01*
X121420500Y-76176143D01*
X121420500Y-76083856D01*
X121420500Y-67954544D01*
X121440185Y-67887505D01*
X121456815Y-67866867D01*
X121825491Y-67498190D01*
X121886812Y-67464707D01*
X121949162Y-67467211D01*
X122134066Y-67523301D01*
X122134065Y-67523301D01*
X122152529Y-67525119D01*
X122340000Y-67543584D01*
X122545934Y-67523301D01*
X122743954Y-67463233D01*
X122926450Y-67365686D01*
X123061835Y-67254578D01*
X123126145Y-67227266D01*
X123195013Y-67239057D01*
X123246573Y-67286209D01*
X123264500Y-67350432D01*
X123264500Y-67837437D01*
X123264499Y-67837437D01*
X123271434Y-67863313D01*
X123271434Y-67863316D01*
X123271435Y-67863316D01*
X123271435Y-67863317D01*
X123272773Y-67868309D01*
X123290090Y-67932940D01*
X123290091Y-67932941D01*
X123334581Y-68010000D01*
X123339526Y-68018564D01*
X123861579Y-68540618D01*
X123895064Y-68601941D01*
X123892559Y-68664294D01*
X123844699Y-68822068D01*
X123824417Y-69028001D01*
X123844699Y-69233933D01*
X123847915Y-69244534D01*
X123904768Y-69431955D01*
X124002315Y-69614451D01*
X124002317Y-69614453D01*
X124133589Y-69774411D01*
X124163164Y-69798682D01*
X124293550Y-69905686D01*
X124476046Y-70003233D01*
X124674066Y-70063301D01*
X124674065Y-70063301D01*
X124692529Y-70065119D01*
X124880000Y-70083584D01*
X125085934Y-70063301D01*
X125243709Y-70015440D01*
X125313574Y-70014818D01*
X125367383Y-70046421D01*
X128428181Y-73107219D01*
X128461666Y-73168542D01*
X128464500Y-73194900D01*
X128464500Y-74542815D01*
X128444815Y-74609854D01*
X128434215Y-74624016D01*
X128414623Y-74646627D01*
X128414622Y-74646628D01*
X128354834Y-74777543D01*
X128334353Y-74920000D01*
X128354834Y-75062456D01*
X128401637Y-75164938D01*
X128414623Y-75193373D01*
X128508872Y-75302143D01*
X128629947Y-75379953D01*
X128629950Y-75379954D01*
X128629949Y-75379954D01*
X128768036Y-75420499D01*
X128768038Y-75420500D01*
X128768039Y-75420500D01*
X128911962Y-75420500D01*
X128911962Y-75420499D01*
X129050053Y-75379953D01*
X129171128Y-75302143D01*
X129265377Y-75193373D01*
X129325165Y-75062457D01*
X129345647Y-74920000D01*
X129325165Y-74777543D01*
X129265377Y-74646627D01*
X129245785Y-74624016D01*
X129216762Y-74560460D01*
X129215500Y-74542815D01*
X129215500Y-72938568D01*
X129215500Y-72938566D01*
X129194636Y-72860700D01*
X129189911Y-72843064D01*
X129140475Y-72757438D01*
X125898419Y-69515383D01*
X125864935Y-69454061D01*
X125867439Y-69391710D01*
X125915300Y-69233935D01*
X125935583Y-69028001D01*
X125915300Y-68822067D01*
X125855232Y-68624047D01*
X125757685Y-68441551D01*
X125645994Y-68305454D01*
X125626410Y-68281590D01*
X125490435Y-68170000D01*
X125466450Y-68150316D01*
X125283954Y-68052769D01*
X125085934Y-67992701D01*
X125085932Y-67992700D01*
X125085934Y-67992700D01*
X124880000Y-67972418D01*
X124674067Y-67992700D01*
X124516293Y-68040560D01*
X124446426Y-68041183D01*
X124392617Y-68009580D01*
X124133219Y-67750182D01*
X124099734Y-67688859D01*
X124104718Y-67619167D01*
X124146590Y-67563234D01*
X124212054Y-67538817D01*
X124220900Y-67538501D01*
X125749750Y-67538501D01*
X125749751Y-67538500D01*
X125764568Y-67535553D01*
X125808229Y-67526869D01*
X125808229Y-67526868D01*
X125808231Y-67526868D01*
X125874552Y-67482553D01*
X125918867Y-67416232D01*
X125918867Y-67416230D01*
X125918868Y-67416230D01*
X125928922Y-67365683D01*
X125930500Y-67357749D01*
X125930500Y-65618253D01*
X125930500Y-65618250D01*
X125930499Y-65618248D01*
X125918868Y-65559771D01*
X125918867Y-65559770D01*
X125874552Y-65493448D01*
X125808230Y-65449133D01*
X125808229Y-65449132D01*
X125749752Y-65437501D01*
X125749748Y-65437501D01*
X124010252Y-65437501D01*
X124009900Y-65437501D01*
X123942861Y-65417816D01*
X123922219Y-65401182D01*
X123250564Y-64729527D01*
X123250563Y-64729526D01*
X123250562Y-64729525D01*
X123193479Y-64696568D01*
X123164937Y-64680089D01*
X123110460Y-64665491D01*
X123110460Y-64665492D01*
X123069438Y-64654500D01*
X123069436Y-64654500D01*
X123069435Y-64654500D01*
X119109436Y-64654500D01*
X119010564Y-64654500D01*
X118915063Y-64680089D01*
X118915060Y-64680090D01*
X118829440Y-64729522D01*
X118829435Y-64729526D01*
X112959528Y-70599434D01*
X112959522Y-70599443D01*
X112919390Y-70668952D01*
X112899685Y-70694632D01*
X112709532Y-70884785D01*
X112709530Y-70884788D01*
X112671591Y-70950500D01*
X112668856Y-70955237D01*
X112663388Y-70964708D01*
X112663386Y-70964711D01*
X112656798Y-70989297D01*
X112639500Y-71053856D01*
X112639500Y-71053858D01*
X112639500Y-73521229D01*
X112619815Y-73588268D01*
X112602260Y-73609429D01*
X112602347Y-73609508D01*
X112602337Y-73609518D01*
X112602405Y-73609584D01*
X112600721Y-73611302D01*
X112579258Y-73635001D01*
X112577022Y-73637895D01*
X112565365Y-73654634D01*
X112565364Y-73654636D01*
X112535366Y-73741036D01*
X112535366Y-73741037D01*
X112534386Y-73749937D01*
X112538410Y-73818655D01*
X112578287Y-73900957D01*
X112578288Y-73900959D01*
X112583888Y-73907946D01*
X112583889Y-73907947D01*
X112597901Y-73920408D01*
X112634916Y-73979667D01*
X112639500Y-74013069D01*
X112639500Y-76705424D01*
X112619815Y-76772463D01*
X112567011Y-76818218D01*
X112497853Y-76828162D01*
X112434297Y-76799137D01*
X112427819Y-76793105D01*
X111447424Y-75812710D01*
X111374106Y-75770381D01*
X111374107Y-75770381D01*
X111353662Y-75764903D01*
X111292330Y-75748469D01*
X111292327Y-75748469D01*
X108102044Y-75748469D01*
X108035005Y-75728784D01*
X108014363Y-75712150D01*
X106406966Y-74104752D01*
X106373481Y-74043429D01*
X106370830Y-74018777D01*
X106370646Y-74017502D01*
X106370647Y-74017500D01*
X106350165Y-73875043D01*
X106290377Y-73744127D01*
X106196128Y-73635357D01*
X106075053Y-73557547D01*
X106075051Y-73557546D01*
X106075049Y-73557545D01*
X106075050Y-73557545D01*
X105936963Y-73517000D01*
X105936961Y-73517000D01*
X105793039Y-73517000D01*
X105793036Y-73517000D01*
X105654949Y-73557545D01*
X105533873Y-73635356D01*
X105439623Y-73744126D01*
X105439622Y-73744128D01*
X105379834Y-73875043D01*
X105359353Y-74017500D01*
X94050500Y-74017500D01*
X94050500Y-61799998D01*
X107853657Y-61799998D01*
X107871736Y-61925746D01*
X107871737Y-61925750D01*
X107924511Y-62041307D01*
X107924516Y-62041314D01*
X107969991Y-62093796D01*
X107999016Y-62157352D01*
X107989072Y-62226510D01*
X107969992Y-62256199D01*
X107924516Y-62308682D01*
X107924511Y-62308689D01*
X107871737Y-62424246D01*
X107871736Y-62424250D01*
X107853657Y-62549999D01*
X107871736Y-62675747D01*
X107871737Y-62675751D01*
X107924511Y-62791308D01*
X107924516Y-62791315D01*
X107969991Y-62843797D01*
X107999016Y-62907353D01*
X107989072Y-62976511D01*
X107969992Y-63006200D01*
X107924516Y-63058683D01*
X107924511Y-63058690D01*
X107871737Y-63174247D01*
X107871736Y-63174251D01*
X107853657Y-63300000D01*
X107871736Y-63425748D01*
X107871737Y-63425752D01*
X107924511Y-63541309D01*
X107924512Y-63541311D01*
X108007707Y-63637324D01*
X108114582Y-63706008D01*
X108114584Y-63706008D01*
X108114585Y-63706009D01*
X108236478Y-63741800D01*
X108236479Y-63741800D01*
X108363521Y-63741800D01*
X108485418Y-63706008D01*
X108592293Y-63637324D01*
X108675488Y-63541311D01*
X108713045Y-63459070D01*
X108728262Y-63425752D01*
X108728263Y-63425748D01*
X108728632Y-63423181D01*
X108746343Y-63300000D01*
X108728263Y-63174251D01*
X108728262Y-63174247D01*
X108675488Y-63058690D01*
X108675488Y-63058689D01*
X108656419Y-63036682D01*
X108630008Y-63006201D01*
X108600983Y-62942646D01*
X108610927Y-62873487D01*
X108630005Y-62843800D01*
X108675488Y-62791310D01*
X108728263Y-62675748D01*
X108746343Y-62549999D01*
X108728263Y-62424250D01*
X108728262Y-62424246D01*
X108675488Y-62308689D01*
X108675488Y-62308688D01*
X108675483Y-62308682D01*
X108630008Y-62256200D01*
X108600983Y-62192645D01*
X108610927Y-62123486D01*
X108630005Y-62093799D01*
X108675488Y-62041309D01*
X108728263Y-61925747D01*
X108746343Y-61799998D01*
X108728263Y-61674249D01*
X108728262Y-61674245D01*
X108675488Y-61558688D01*
X108675488Y-61558687D01*
X108592293Y-61462674D01*
X108485418Y-61393990D01*
X108485416Y-61393989D01*
X108485414Y-61393988D01*
X108363522Y-61358198D01*
X108363521Y-61358198D01*
X108236479Y-61358198D01*
X108236478Y-61358198D01*
X108114585Y-61393988D01*
X108007708Y-61462673D01*
X107924513Y-61558685D01*
X107924511Y-61558688D01*
X107871737Y-61674245D01*
X107871736Y-61674249D01*
X107853657Y-61799998D01*
X94050500Y-61799998D01*
X94050500Y-56603711D01*
X95199500Y-56603711D01*
X95199500Y-56846288D01*
X95231161Y-57086785D01*
X95293947Y-57321104D01*
X95386773Y-57545205D01*
X95386776Y-57545212D01*
X95508064Y-57755289D01*
X95508066Y-57755292D01*
X95508067Y-57755293D01*
X95655733Y-57947736D01*
X95655739Y-57947743D01*
X95827256Y-58119260D01*
X95827262Y-58119265D01*
X96019711Y-58266936D01*
X96229788Y-58388224D01*
X96453900Y-58481054D01*
X96688211Y-58543838D01*
X96868586Y-58567584D01*
X96928711Y-58575500D01*
X96928712Y-58575500D01*
X97171289Y-58575500D01*
X97219388Y-58569167D01*
X97411789Y-58543838D01*
X97646100Y-58481054D01*
X97870212Y-58388224D01*
X98080289Y-58266936D01*
X98272738Y-58119265D01*
X98444265Y-57947738D01*
X98591936Y-57755289D01*
X98713224Y-57545212D01*
X98806054Y-57321100D01*
X98868838Y-57086789D01*
X98900500Y-56846288D01*
X98900500Y-56603712D01*
X98900500Y-56603711D01*
X157199500Y-56603711D01*
X157199500Y-56846288D01*
X157231161Y-57086785D01*
X157293947Y-57321104D01*
X157386773Y-57545205D01*
X157386776Y-57545212D01*
X157508064Y-57755289D01*
X157508066Y-57755292D01*
X157508067Y-57755293D01*
X157655733Y-57947736D01*
X157655739Y-57947743D01*
X157827256Y-58119260D01*
X157827262Y-58119265D01*
X158019711Y-58266936D01*
X158229788Y-58388224D01*
X158453900Y-58481054D01*
X158688211Y-58543838D01*
X158868586Y-58567584D01*
X158928711Y-58575500D01*
X158928712Y-58575500D01*
X159171289Y-58575500D01*
X159219388Y-58569167D01*
X159411789Y-58543838D01*
X159646100Y-58481054D01*
X159870212Y-58388224D01*
X160080289Y-58266936D01*
X160272738Y-58119265D01*
X160444265Y-57947738D01*
X160591936Y-57755289D01*
X160713224Y-57545212D01*
X160806054Y-57321100D01*
X160868838Y-57086789D01*
X160900500Y-56846288D01*
X160900500Y-56603712D01*
X160868838Y-56363211D01*
X160806054Y-56128900D01*
X160713224Y-55904788D01*
X160591936Y-55694711D01*
X160444265Y-55502262D01*
X160444260Y-55502256D01*
X160272743Y-55330739D01*
X160272736Y-55330733D01*
X160080293Y-55183067D01*
X160080292Y-55183066D01*
X160080289Y-55183064D01*
X159870212Y-55061776D01*
X159870205Y-55061773D01*
X159646104Y-54968947D01*
X159411785Y-54906161D01*
X159171289Y-54874500D01*
X159171288Y-54874500D01*
X158928712Y-54874500D01*
X158928711Y-54874500D01*
X158688214Y-54906161D01*
X158453895Y-54968947D01*
X158229794Y-55061773D01*
X158229785Y-55061777D01*
X158019706Y-55183067D01*
X157827263Y-55330733D01*
X157827256Y-55330739D01*
X157655739Y-55502256D01*
X157655733Y-55502263D01*
X157508067Y-55694706D01*
X157386777Y-55904785D01*
X157386773Y-55904794D01*
X157293947Y-56128895D01*
X157231161Y-56363214D01*
X157199500Y-56603711D01*
X98900500Y-56603711D01*
X98868838Y-56363211D01*
X98806054Y-56128900D01*
X98713224Y-55904788D01*
X98591936Y-55694711D01*
X98444265Y-55502262D01*
X98444260Y-55502256D01*
X98272743Y-55330739D01*
X98272736Y-55330733D01*
X98080293Y-55183067D01*
X98080292Y-55183066D01*
X98080289Y-55183064D01*
X97870212Y-55061776D01*
X97870205Y-55061773D01*
X97646104Y-54968947D01*
X97411785Y-54906161D01*
X97171289Y-54874500D01*
X97171288Y-54874500D01*
X96928712Y-54874500D01*
X96928711Y-54874500D01*
X96688214Y-54906161D01*
X96453895Y-54968947D01*
X96229794Y-55061773D01*
X96229785Y-55061777D01*
X96019706Y-55183067D01*
X95827263Y-55330733D01*
X95827256Y-55330739D01*
X95655739Y-55502256D01*
X95655733Y-55502263D01*
X95508067Y-55694706D01*
X95386777Y-55904785D01*
X95386773Y-55904794D01*
X95293947Y-56128895D01*
X95231161Y-56363214D01*
X95199500Y-56603711D01*
X94050500Y-56603711D01*
X94050500Y-53849500D01*
X94070185Y-53782461D01*
X94122989Y-53736706D01*
X94174500Y-53725500D01*
X161925500Y-53725500D01*
X161992539Y-53745185D01*
G37*
%TD.AperFunction*%
%TD*%
%TA.AperFunction,Conductor*%
%TO.N,+3V3*%
G36*
X113066115Y-73671383D02*
G01*
X113069542Y-73679656D01*
X113066115Y-73687929D01*
X113061108Y-73690891D01*
X112753150Y-73780418D01*
X112744249Y-73779437D01*
X112738649Y-73772449D01*
X112739630Y-73763548D01*
X112741846Y-73760681D01*
X112836618Y-73671151D01*
X112844653Y-73667956D01*
X113057842Y-73667956D01*
X113066115Y-73671383D01*
G37*
%TD.AperFunction*%
%TD*%
M02*
