%TF.GenerationSoftware,KiCad,Pcbnew,8.0.5*%
%TF.CreationDate,2024-10-07T09:03:38+02:00*%
%TF.ProjectId,ADC_Klipper_Board,4144435f-4b6c-4697-9070-65725f426f61,rev?*%
%TF.SameCoordinates,Original*%
%TF.FileFunction,Legend,Top*%
%TF.FilePolarity,Positive*%
%FSLAX46Y46*%
G04 Gerber Fmt 4.6, Leading zero omitted, Abs format (unit mm)*
G04 Created by KiCad (PCBNEW 8.0.5) date 2024-10-07 09:03:38*
%MOMM*%
%LPD*%
G01*
G04 APERTURE LIST*
%ADD10C,0.150000*%
%ADD11C,0.254000*%
%ADD12C,0.100000*%
%ADD13C,0.120000*%
%ADD14C,0.200000*%
%ADD15C,0.152400*%
%ADD16C,0.127000*%
%ADD17C,0.508000*%
%ADD18C,0.250000*%
%ADD19C,0.020000*%
G04 APERTURE END LIST*
D10*
X122847142Y-87259580D02*
X122799523Y-87307200D01*
X122799523Y-87307200D02*
X122656666Y-87354819D01*
X122656666Y-87354819D02*
X122561428Y-87354819D01*
X122561428Y-87354819D02*
X122418571Y-87307200D01*
X122418571Y-87307200D02*
X122323333Y-87211961D01*
X122323333Y-87211961D02*
X122275714Y-87116723D01*
X122275714Y-87116723D02*
X122228095Y-86926247D01*
X122228095Y-86926247D02*
X122228095Y-86783390D01*
X122228095Y-86783390D02*
X122275714Y-86592914D01*
X122275714Y-86592914D02*
X122323333Y-86497676D01*
X122323333Y-86497676D02*
X122418571Y-86402438D01*
X122418571Y-86402438D02*
X122561428Y-86354819D01*
X122561428Y-86354819D02*
X122656666Y-86354819D01*
X122656666Y-86354819D02*
X122799523Y-86402438D01*
X122799523Y-86402438D02*
X122847142Y-86450057D01*
X123799523Y-87354819D02*
X123228095Y-87354819D01*
X123513809Y-87354819D02*
X123513809Y-86354819D01*
X123513809Y-86354819D02*
X123418571Y-86497676D01*
X123418571Y-86497676D02*
X123323333Y-86592914D01*
X123323333Y-86592914D02*
X123228095Y-86640533D01*
X124656666Y-86688152D02*
X124656666Y-87354819D01*
X124418571Y-86307200D02*
X124180476Y-87021485D01*
X124180476Y-87021485D02*
X124799523Y-87021485D01*
X110604819Y-68881666D02*
X110128628Y-69214999D01*
X110604819Y-69453094D02*
X109604819Y-69453094D01*
X109604819Y-69453094D02*
X109604819Y-69072142D01*
X109604819Y-69072142D02*
X109652438Y-68976904D01*
X109652438Y-68976904D02*
X109700057Y-68929285D01*
X109700057Y-68929285D02*
X109795295Y-68881666D01*
X109795295Y-68881666D02*
X109938152Y-68881666D01*
X109938152Y-68881666D02*
X110033390Y-68929285D01*
X110033390Y-68929285D02*
X110081009Y-68976904D01*
X110081009Y-68976904D02*
X110128628Y-69072142D01*
X110128628Y-69072142D02*
X110128628Y-69453094D01*
X109700057Y-68500713D02*
X109652438Y-68453094D01*
X109652438Y-68453094D02*
X109604819Y-68357856D01*
X109604819Y-68357856D02*
X109604819Y-68119761D01*
X109604819Y-68119761D02*
X109652438Y-68024523D01*
X109652438Y-68024523D02*
X109700057Y-67976904D01*
X109700057Y-67976904D02*
X109795295Y-67929285D01*
X109795295Y-67929285D02*
X109890533Y-67929285D01*
X109890533Y-67929285D02*
X110033390Y-67976904D01*
X110033390Y-67976904D02*
X110604819Y-68548332D01*
X110604819Y-68548332D02*
X110604819Y-67929285D01*
X103782142Y-79334819D02*
X103448809Y-78858628D01*
X103210714Y-79334819D02*
X103210714Y-78334819D01*
X103210714Y-78334819D02*
X103591666Y-78334819D01*
X103591666Y-78334819D02*
X103686904Y-78382438D01*
X103686904Y-78382438D02*
X103734523Y-78430057D01*
X103734523Y-78430057D02*
X103782142Y-78525295D01*
X103782142Y-78525295D02*
X103782142Y-78668152D01*
X103782142Y-78668152D02*
X103734523Y-78763390D01*
X103734523Y-78763390D02*
X103686904Y-78811009D01*
X103686904Y-78811009D02*
X103591666Y-78858628D01*
X103591666Y-78858628D02*
X103210714Y-78858628D01*
X104734523Y-79334819D02*
X104163095Y-79334819D01*
X104448809Y-79334819D02*
X104448809Y-78334819D01*
X104448809Y-78334819D02*
X104353571Y-78477676D01*
X104353571Y-78477676D02*
X104258333Y-78572914D01*
X104258333Y-78572914D02*
X104163095Y-78620533D01*
X105115476Y-78430057D02*
X105163095Y-78382438D01*
X105163095Y-78382438D02*
X105258333Y-78334819D01*
X105258333Y-78334819D02*
X105496428Y-78334819D01*
X105496428Y-78334819D02*
X105591666Y-78382438D01*
X105591666Y-78382438D02*
X105639285Y-78430057D01*
X105639285Y-78430057D02*
X105686904Y-78525295D01*
X105686904Y-78525295D02*
X105686904Y-78620533D01*
X105686904Y-78620533D02*
X105639285Y-78763390D01*
X105639285Y-78763390D02*
X105067857Y-79334819D01*
X105067857Y-79334819D02*
X105686904Y-79334819D01*
X121757142Y-89889580D02*
X121709523Y-89937200D01*
X121709523Y-89937200D02*
X121566666Y-89984819D01*
X121566666Y-89984819D02*
X121471428Y-89984819D01*
X121471428Y-89984819D02*
X121328571Y-89937200D01*
X121328571Y-89937200D02*
X121233333Y-89841961D01*
X121233333Y-89841961D02*
X121185714Y-89746723D01*
X121185714Y-89746723D02*
X121138095Y-89556247D01*
X121138095Y-89556247D02*
X121138095Y-89413390D01*
X121138095Y-89413390D02*
X121185714Y-89222914D01*
X121185714Y-89222914D02*
X121233333Y-89127676D01*
X121233333Y-89127676D02*
X121328571Y-89032438D01*
X121328571Y-89032438D02*
X121471428Y-88984819D01*
X121471428Y-88984819D02*
X121566666Y-88984819D01*
X121566666Y-88984819D02*
X121709523Y-89032438D01*
X121709523Y-89032438D02*
X121757142Y-89080057D01*
X122709523Y-89984819D02*
X122138095Y-89984819D01*
X122423809Y-89984819D02*
X122423809Y-88984819D01*
X122423809Y-88984819D02*
X122328571Y-89127676D01*
X122328571Y-89127676D02*
X122233333Y-89222914D01*
X122233333Y-89222914D02*
X122138095Y-89270533D01*
X123661904Y-89984819D02*
X123090476Y-89984819D01*
X123376190Y-89984819D02*
X123376190Y-88984819D01*
X123376190Y-88984819D02*
X123280952Y-89127676D01*
X123280952Y-89127676D02*
X123185714Y-89222914D01*
X123185714Y-89222914D02*
X123090476Y-89270533D01*
X127770142Y-72224820D02*
X127436809Y-71748629D01*
X127198714Y-72224820D02*
X127198714Y-71224820D01*
X127198714Y-71224820D02*
X127579666Y-71224820D01*
X127579666Y-71224820D02*
X127674904Y-71272439D01*
X127674904Y-71272439D02*
X127722523Y-71320058D01*
X127722523Y-71320058D02*
X127770142Y-71415296D01*
X127770142Y-71415296D02*
X127770142Y-71558153D01*
X127770142Y-71558153D02*
X127722523Y-71653391D01*
X127722523Y-71653391D02*
X127674904Y-71701010D01*
X127674904Y-71701010D02*
X127579666Y-71748629D01*
X127579666Y-71748629D02*
X127198714Y-71748629D01*
X128722523Y-72224820D02*
X128151095Y-72224820D01*
X128436809Y-72224820D02*
X128436809Y-71224820D01*
X128436809Y-71224820D02*
X128341571Y-71367677D01*
X128341571Y-71367677D02*
X128246333Y-71462915D01*
X128246333Y-71462915D02*
X128151095Y-71510534D01*
X129674904Y-72224820D02*
X129103476Y-72224820D01*
X129389190Y-72224820D02*
X129389190Y-71224820D01*
X129389190Y-71224820D02*
X129293952Y-71367677D01*
X129293952Y-71367677D02*
X129198714Y-71462915D01*
X129198714Y-71462915D02*
X129103476Y-71510534D01*
X131309142Y-79654819D02*
X130975809Y-79178628D01*
X130737714Y-79654819D02*
X130737714Y-78654819D01*
X130737714Y-78654819D02*
X131118666Y-78654819D01*
X131118666Y-78654819D02*
X131213904Y-78702438D01*
X131213904Y-78702438D02*
X131261523Y-78750057D01*
X131261523Y-78750057D02*
X131309142Y-78845295D01*
X131309142Y-78845295D02*
X131309142Y-78988152D01*
X131309142Y-78988152D02*
X131261523Y-79083390D01*
X131261523Y-79083390D02*
X131213904Y-79131009D01*
X131213904Y-79131009D02*
X131118666Y-79178628D01*
X131118666Y-79178628D02*
X130737714Y-79178628D01*
X131690095Y-78750057D02*
X131737714Y-78702438D01*
X131737714Y-78702438D02*
X131832952Y-78654819D01*
X131832952Y-78654819D02*
X132071047Y-78654819D01*
X132071047Y-78654819D02*
X132166285Y-78702438D01*
X132166285Y-78702438D02*
X132213904Y-78750057D01*
X132213904Y-78750057D02*
X132261523Y-78845295D01*
X132261523Y-78845295D02*
X132261523Y-78940533D01*
X132261523Y-78940533D02*
X132213904Y-79083390D01*
X132213904Y-79083390D02*
X131642476Y-79654819D01*
X131642476Y-79654819D02*
X132261523Y-79654819D01*
X132594857Y-78654819D02*
X133213904Y-78654819D01*
X133213904Y-78654819D02*
X132880571Y-79035771D01*
X132880571Y-79035771D02*
X133023428Y-79035771D01*
X133023428Y-79035771D02*
X133118666Y-79083390D01*
X133118666Y-79083390D02*
X133166285Y-79131009D01*
X133166285Y-79131009D02*
X133213904Y-79226247D01*
X133213904Y-79226247D02*
X133213904Y-79464342D01*
X133213904Y-79464342D02*
X133166285Y-79559580D01*
X133166285Y-79559580D02*
X133118666Y-79607200D01*
X133118666Y-79607200D02*
X133023428Y-79654819D01*
X133023428Y-79654819D02*
X132737714Y-79654819D01*
X132737714Y-79654819D02*
X132642476Y-79607200D01*
X132642476Y-79607200D02*
X132594857Y-79559580D01*
X106379819Y-67001666D02*
X105903628Y-67334999D01*
X106379819Y-67573094D02*
X105379819Y-67573094D01*
X105379819Y-67573094D02*
X105379819Y-67192142D01*
X105379819Y-67192142D02*
X105427438Y-67096904D01*
X105427438Y-67096904D02*
X105475057Y-67049285D01*
X105475057Y-67049285D02*
X105570295Y-67001666D01*
X105570295Y-67001666D02*
X105713152Y-67001666D01*
X105713152Y-67001666D02*
X105808390Y-67049285D01*
X105808390Y-67049285D02*
X105856009Y-67096904D01*
X105856009Y-67096904D02*
X105903628Y-67192142D01*
X105903628Y-67192142D02*
X105903628Y-67573094D01*
X106379819Y-66049285D02*
X106379819Y-66620713D01*
X106379819Y-66334999D02*
X105379819Y-66334999D01*
X105379819Y-66334999D02*
X105522676Y-66430237D01*
X105522676Y-66430237D02*
X105617914Y-66525475D01*
X105617914Y-66525475D02*
X105665533Y-66620713D01*
X114854819Y-59091666D02*
X114378628Y-59424999D01*
X114854819Y-59663094D02*
X113854819Y-59663094D01*
X113854819Y-59663094D02*
X113854819Y-59282142D01*
X113854819Y-59282142D02*
X113902438Y-59186904D01*
X113902438Y-59186904D02*
X113950057Y-59139285D01*
X113950057Y-59139285D02*
X114045295Y-59091666D01*
X114045295Y-59091666D02*
X114188152Y-59091666D01*
X114188152Y-59091666D02*
X114283390Y-59139285D01*
X114283390Y-59139285D02*
X114331009Y-59186904D01*
X114331009Y-59186904D02*
X114378628Y-59282142D01*
X114378628Y-59282142D02*
X114378628Y-59663094D01*
X113854819Y-58758332D02*
X113854819Y-58091666D01*
X113854819Y-58091666D02*
X114854819Y-58520237D01*
X108859580Y-95691666D02*
X108907200Y-95739285D01*
X108907200Y-95739285D02*
X108954819Y-95882142D01*
X108954819Y-95882142D02*
X108954819Y-95977380D01*
X108954819Y-95977380D02*
X108907200Y-96120237D01*
X108907200Y-96120237D02*
X108811961Y-96215475D01*
X108811961Y-96215475D02*
X108716723Y-96263094D01*
X108716723Y-96263094D02*
X108526247Y-96310713D01*
X108526247Y-96310713D02*
X108383390Y-96310713D01*
X108383390Y-96310713D02*
X108192914Y-96263094D01*
X108192914Y-96263094D02*
X108097676Y-96215475D01*
X108097676Y-96215475D02*
X108002438Y-96120237D01*
X108002438Y-96120237D02*
X107954819Y-95977380D01*
X107954819Y-95977380D02*
X107954819Y-95882142D01*
X107954819Y-95882142D02*
X108002438Y-95739285D01*
X108002438Y-95739285D02*
X108050057Y-95691666D01*
X108288152Y-94834523D02*
X108954819Y-94834523D01*
X107907200Y-95072618D02*
X108621485Y-95310713D01*
X108621485Y-95310713D02*
X108621485Y-94691666D01*
X130038095Y-64654819D02*
X130609523Y-64654819D01*
X130323809Y-65654819D02*
X130323809Y-64654819D01*
X130942857Y-65654819D02*
X130942857Y-64654819D01*
X130942857Y-64654819D02*
X131323809Y-64654819D01*
X131323809Y-64654819D02*
X131419047Y-64702438D01*
X131419047Y-64702438D02*
X131466666Y-64750057D01*
X131466666Y-64750057D02*
X131514285Y-64845295D01*
X131514285Y-64845295D02*
X131514285Y-64988152D01*
X131514285Y-64988152D02*
X131466666Y-65083390D01*
X131466666Y-65083390D02*
X131419047Y-65131009D01*
X131419047Y-65131009D02*
X131323809Y-65178628D01*
X131323809Y-65178628D02*
X130942857Y-65178628D01*
X131895238Y-64750057D02*
X131942857Y-64702438D01*
X131942857Y-64702438D02*
X132038095Y-64654819D01*
X132038095Y-64654819D02*
X132276190Y-64654819D01*
X132276190Y-64654819D02*
X132371428Y-64702438D01*
X132371428Y-64702438D02*
X132419047Y-64750057D01*
X132419047Y-64750057D02*
X132466666Y-64845295D01*
X132466666Y-64845295D02*
X132466666Y-64940533D01*
X132466666Y-64940533D02*
X132419047Y-65083390D01*
X132419047Y-65083390D02*
X131847619Y-65654819D01*
X131847619Y-65654819D02*
X132466666Y-65654819D01*
X129427580Y-76342858D02*
X129475200Y-76390477D01*
X129475200Y-76390477D02*
X129522819Y-76533334D01*
X129522819Y-76533334D02*
X129522819Y-76628572D01*
X129522819Y-76628572D02*
X129475200Y-76771429D01*
X129475200Y-76771429D02*
X129379961Y-76866667D01*
X129379961Y-76866667D02*
X129284723Y-76914286D01*
X129284723Y-76914286D02*
X129094247Y-76961905D01*
X129094247Y-76961905D02*
X128951390Y-76961905D01*
X128951390Y-76961905D02*
X128760914Y-76914286D01*
X128760914Y-76914286D02*
X128665676Y-76866667D01*
X128665676Y-76866667D02*
X128570438Y-76771429D01*
X128570438Y-76771429D02*
X128522819Y-76628572D01*
X128522819Y-76628572D02*
X128522819Y-76533334D01*
X128522819Y-76533334D02*
X128570438Y-76390477D01*
X128570438Y-76390477D02*
X128618057Y-76342858D01*
X129522819Y-75390477D02*
X129522819Y-75961905D01*
X129522819Y-75676191D02*
X128522819Y-75676191D01*
X128522819Y-75676191D02*
X128665676Y-75771429D01*
X128665676Y-75771429D02*
X128760914Y-75866667D01*
X128760914Y-75866667D02*
X128808533Y-75961905D01*
X128522819Y-74533334D02*
X128522819Y-74723810D01*
X128522819Y-74723810D02*
X128570438Y-74819048D01*
X128570438Y-74819048D02*
X128618057Y-74866667D01*
X128618057Y-74866667D02*
X128760914Y-74961905D01*
X128760914Y-74961905D02*
X128951390Y-75009524D01*
X128951390Y-75009524D02*
X129332342Y-75009524D01*
X129332342Y-75009524D02*
X129427580Y-74961905D01*
X129427580Y-74961905D02*
X129475200Y-74914286D01*
X129475200Y-74914286D02*
X129522819Y-74819048D01*
X129522819Y-74819048D02*
X129522819Y-74628572D01*
X129522819Y-74628572D02*
X129475200Y-74533334D01*
X129475200Y-74533334D02*
X129427580Y-74485715D01*
X129427580Y-74485715D02*
X129332342Y-74438096D01*
X129332342Y-74438096D02*
X129094247Y-74438096D01*
X129094247Y-74438096D02*
X128999009Y-74485715D01*
X128999009Y-74485715D02*
X128951390Y-74533334D01*
X128951390Y-74533334D02*
X128903771Y-74628572D01*
X128903771Y-74628572D02*
X128903771Y-74819048D01*
X128903771Y-74819048D02*
X128951390Y-74914286D01*
X128951390Y-74914286D02*
X128999009Y-74961905D01*
X128999009Y-74961905D02*
X129094247Y-75009524D01*
X108854819Y-68866666D02*
X108378628Y-69199999D01*
X108854819Y-69438094D02*
X107854819Y-69438094D01*
X107854819Y-69438094D02*
X107854819Y-69057142D01*
X107854819Y-69057142D02*
X107902438Y-68961904D01*
X107902438Y-68961904D02*
X107950057Y-68914285D01*
X107950057Y-68914285D02*
X108045295Y-68866666D01*
X108045295Y-68866666D02*
X108188152Y-68866666D01*
X108188152Y-68866666D02*
X108283390Y-68914285D01*
X108283390Y-68914285D02*
X108331009Y-68961904D01*
X108331009Y-68961904D02*
X108378628Y-69057142D01*
X108378628Y-69057142D02*
X108378628Y-69438094D01*
X107854819Y-68533332D02*
X107854819Y-67914285D01*
X107854819Y-67914285D02*
X108235771Y-68247618D01*
X108235771Y-68247618D02*
X108235771Y-68104761D01*
X108235771Y-68104761D02*
X108283390Y-68009523D01*
X108283390Y-68009523D02*
X108331009Y-67961904D01*
X108331009Y-67961904D02*
X108426247Y-67914285D01*
X108426247Y-67914285D02*
X108664342Y-67914285D01*
X108664342Y-67914285D02*
X108759580Y-67961904D01*
X108759580Y-67961904D02*
X108807200Y-68009523D01*
X108807200Y-68009523D02*
X108854819Y-68104761D01*
X108854819Y-68104761D02*
X108854819Y-68390475D01*
X108854819Y-68390475D02*
X108807200Y-68485713D01*
X108807200Y-68485713D02*
X108759580Y-68533332D01*
X113143333Y-63839580D02*
X113095714Y-63887200D01*
X113095714Y-63887200D02*
X112952857Y-63934819D01*
X112952857Y-63934819D02*
X112857619Y-63934819D01*
X112857619Y-63934819D02*
X112714762Y-63887200D01*
X112714762Y-63887200D02*
X112619524Y-63791961D01*
X112619524Y-63791961D02*
X112571905Y-63696723D01*
X112571905Y-63696723D02*
X112524286Y-63506247D01*
X112524286Y-63506247D02*
X112524286Y-63363390D01*
X112524286Y-63363390D02*
X112571905Y-63172914D01*
X112571905Y-63172914D02*
X112619524Y-63077676D01*
X112619524Y-63077676D02*
X112714762Y-62982438D01*
X112714762Y-62982438D02*
X112857619Y-62934819D01*
X112857619Y-62934819D02*
X112952857Y-62934819D01*
X112952857Y-62934819D02*
X113095714Y-62982438D01*
X113095714Y-62982438D02*
X113143333Y-63030057D01*
X113476667Y-62934819D02*
X114143333Y-62934819D01*
X114143333Y-62934819D02*
X113714762Y-63934819D01*
X151380180Y-65070596D02*
X150570657Y-65070596D01*
X150570657Y-65070596D02*
X150475419Y-65118215D01*
X150475419Y-65118215D02*
X150427800Y-65165834D01*
X150427800Y-65165834D02*
X150380180Y-65261072D01*
X150380180Y-65261072D02*
X150380180Y-65451548D01*
X150380180Y-65451548D02*
X150427800Y-65546786D01*
X150427800Y-65546786D02*
X150475419Y-65594405D01*
X150475419Y-65594405D02*
X150570657Y-65642024D01*
X150570657Y-65642024D02*
X151380180Y-65642024D01*
X151380180Y-66594405D02*
X151380180Y-66118215D01*
X151380180Y-66118215D02*
X150903990Y-66070596D01*
X150903990Y-66070596D02*
X150951609Y-66118215D01*
X150951609Y-66118215D02*
X150999228Y-66213453D01*
X150999228Y-66213453D02*
X150999228Y-66451548D01*
X150999228Y-66451548D02*
X150951609Y-66546786D01*
X150951609Y-66546786D02*
X150903990Y-66594405D01*
X150903990Y-66594405D02*
X150808752Y-66642024D01*
X150808752Y-66642024D02*
X150570657Y-66642024D01*
X150570657Y-66642024D02*
X150475419Y-66594405D01*
X150475419Y-66594405D02*
X150427800Y-66546786D01*
X150427800Y-66546786D02*
X150380180Y-66451548D01*
X150380180Y-66451548D02*
X150380180Y-66213453D01*
X150380180Y-66213453D02*
X150427800Y-66118215D01*
X150427800Y-66118215D02*
X150475419Y-66070596D01*
X129219144Y-87159580D02*
X129171525Y-87207200D01*
X129171525Y-87207200D02*
X129028668Y-87254819D01*
X129028668Y-87254819D02*
X128933430Y-87254819D01*
X128933430Y-87254819D02*
X128790573Y-87207200D01*
X128790573Y-87207200D02*
X128695335Y-87111961D01*
X128695335Y-87111961D02*
X128647716Y-87016723D01*
X128647716Y-87016723D02*
X128600097Y-86826247D01*
X128600097Y-86826247D02*
X128600097Y-86683390D01*
X128600097Y-86683390D02*
X128647716Y-86492914D01*
X128647716Y-86492914D02*
X128695335Y-86397676D01*
X128695335Y-86397676D02*
X128790573Y-86302438D01*
X128790573Y-86302438D02*
X128933430Y-86254819D01*
X128933430Y-86254819D02*
X129028668Y-86254819D01*
X129028668Y-86254819D02*
X129171525Y-86302438D01*
X129171525Y-86302438D02*
X129219144Y-86350057D01*
X130171525Y-87254819D02*
X129600097Y-87254819D01*
X129885811Y-87254819D02*
X129885811Y-86254819D01*
X129885811Y-86254819D02*
X129790573Y-86397676D01*
X129790573Y-86397676D02*
X129695335Y-86492914D01*
X129695335Y-86492914D02*
X129600097Y-86540533D01*
X131076287Y-86254819D02*
X130600097Y-86254819D01*
X130600097Y-86254819D02*
X130552478Y-86731009D01*
X130552478Y-86731009D02*
X130600097Y-86683390D01*
X130600097Y-86683390D02*
X130695335Y-86635771D01*
X130695335Y-86635771D02*
X130933430Y-86635771D01*
X130933430Y-86635771D02*
X131028668Y-86683390D01*
X131028668Y-86683390D02*
X131076287Y-86731009D01*
X131076287Y-86731009D02*
X131123906Y-86826247D01*
X131123906Y-86826247D02*
X131123906Y-87064342D01*
X131123906Y-87064342D02*
X131076287Y-87159580D01*
X131076287Y-87159580D02*
X131028668Y-87207200D01*
X131028668Y-87207200D02*
X130933430Y-87254819D01*
X130933430Y-87254819D02*
X130695335Y-87254819D01*
X130695335Y-87254819D02*
X130600097Y-87207200D01*
X130600097Y-87207200D02*
X130552478Y-87159580D01*
X117507142Y-71789580D02*
X117459523Y-71837200D01*
X117459523Y-71837200D02*
X117316666Y-71884819D01*
X117316666Y-71884819D02*
X117221428Y-71884819D01*
X117221428Y-71884819D02*
X117078571Y-71837200D01*
X117078571Y-71837200D02*
X116983333Y-71741961D01*
X116983333Y-71741961D02*
X116935714Y-71646723D01*
X116935714Y-71646723D02*
X116888095Y-71456247D01*
X116888095Y-71456247D02*
X116888095Y-71313390D01*
X116888095Y-71313390D02*
X116935714Y-71122914D01*
X116935714Y-71122914D02*
X116983333Y-71027676D01*
X116983333Y-71027676D02*
X117078571Y-70932438D01*
X117078571Y-70932438D02*
X117221428Y-70884819D01*
X117221428Y-70884819D02*
X117316666Y-70884819D01*
X117316666Y-70884819D02*
X117459523Y-70932438D01*
X117459523Y-70932438D02*
X117507142Y-70980057D01*
X118459523Y-71884819D02*
X117888095Y-71884819D01*
X118173809Y-71884819D02*
X118173809Y-70884819D01*
X118173809Y-70884819D02*
X118078571Y-71027676D01*
X118078571Y-71027676D02*
X117983333Y-71122914D01*
X117983333Y-71122914D02*
X117888095Y-71170533D01*
X118792857Y-70884819D02*
X119459523Y-70884819D01*
X119459523Y-70884819D02*
X119030952Y-71884819D01*
X144301144Y-80992019D02*
X143967811Y-80515828D01*
X143729716Y-80992019D02*
X143729716Y-79992019D01*
X143729716Y-79992019D02*
X144110668Y-79992019D01*
X144110668Y-79992019D02*
X144205906Y-80039638D01*
X144205906Y-80039638D02*
X144253525Y-80087257D01*
X144253525Y-80087257D02*
X144301144Y-80182495D01*
X144301144Y-80182495D02*
X144301144Y-80325352D01*
X144301144Y-80325352D02*
X144253525Y-80420590D01*
X144253525Y-80420590D02*
X144205906Y-80468209D01*
X144205906Y-80468209D02*
X144110668Y-80515828D01*
X144110668Y-80515828D02*
X143729716Y-80515828D01*
X144682097Y-80087257D02*
X144729716Y-80039638D01*
X144729716Y-80039638D02*
X144824954Y-79992019D01*
X144824954Y-79992019D02*
X145063049Y-79992019D01*
X145063049Y-79992019D02*
X145158287Y-80039638D01*
X145158287Y-80039638D02*
X145205906Y-80087257D01*
X145205906Y-80087257D02*
X145253525Y-80182495D01*
X145253525Y-80182495D02*
X145253525Y-80277733D01*
X145253525Y-80277733D02*
X145205906Y-80420590D01*
X145205906Y-80420590D02*
X144634478Y-80992019D01*
X144634478Y-80992019D02*
X145253525Y-80992019D01*
X145729716Y-80992019D02*
X145920192Y-80992019D01*
X145920192Y-80992019D02*
X146015430Y-80944400D01*
X146015430Y-80944400D02*
X146063049Y-80896780D01*
X146063049Y-80896780D02*
X146158287Y-80753923D01*
X146158287Y-80753923D02*
X146205906Y-80563447D01*
X146205906Y-80563447D02*
X146205906Y-80182495D01*
X146205906Y-80182495D02*
X146158287Y-80087257D01*
X146158287Y-80087257D02*
X146110668Y-80039638D01*
X146110668Y-80039638D02*
X146015430Y-79992019D01*
X146015430Y-79992019D02*
X145824954Y-79992019D01*
X145824954Y-79992019D02*
X145729716Y-80039638D01*
X145729716Y-80039638D02*
X145682097Y-80087257D01*
X145682097Y-80087257D02*
X145634478Y-80182495D01*
X145634478Y-80182495D02*
X145634478Y-80420590D01*
X145634478Y-80420590D02*
X145682097Y-80515828D01*
X145682097Y-80515828D02*
X145729716Y-80563447D01*
X145729716Y-80563447D02*
X145824954Y-80611066D01*
X145824954Y-80611066D02*
X146015430Y-80611066D01*
X146015430Y-80611066D02*
X146110668Y-80563447D01*
X146110668Y-80563447D02*
X146158287Y-80515828D01*
X146158287Y-80515828D02*
X146205906Y-80420590D01*
X112104819Y-56738094D02*
X111104819Y-56738094D01*
X111104819Y-56738094D02*
X111104819Y-56499999D01*
X111104819Y-56499999D02*
X111152438Y-56357142D01*
X111152438Y-56357142D02*
X111247676Y-56261904D01*
X111247676Y-56261904D02*
X111342914Y-56214285D01*
X111342914Y-56214285D02*
X111533390Y-56166666D01*
X111533390Y-56166666D02*
X111676247Y-56166666D01*
X111676247Y-56166666D02*
X111866723Y-56214285D01*
X111866723Y-56214285D02*
X111961961Y-56261904D01*
X111961961Y-56261904D02*
X112057200Y-56357142D01*
X112057200Y-56357142D02*
X112104819Y-56499999D01*
X112104819Y-56499999D02*
X112104819Y-56738094D01*
X111104819Y-55833332D02*
X111104819Y-55214285D01*
X111104819Y-55214285D02*
X111485771Y-55547618D01*
X111485771Y-55547618D02*
X111485771Y-55404761D01*
X111485771Y-55404761D02*
X111533390Y-55309523D01*
X111533390Y-55309523D02*
X111581009Y-55261904D01*
X111581009Y-55261904D02*
X111676247Y-55214285D01*
X111676247Y-55214285D02*
X111914342Y-55214285D01*
X111914342Y-55214285D02*
X112009580Y-55261904D01*
X112009580Y-55261904D02*
X112057200Y-55309523D01*
X112057200Y-55309523D02*
X112104819Y-55404761D01*
X112104819Y-55404761D02*
X112104819Y-55690475D01*
X112104819Y-55690475D02*
X112057200Y-55785713D01*
X112057200Y-55785713D02*
X112009580Y-55833332D01*
X117984819Y-55741667D02*
X117508628Y-56075000D01*
X117984819Y-56313095D02*
X116984819Y-56313095D01*
X116984819Y-56313095D02*
X116984819Y-55932143D01*
X116984819Y-55932143D02*
X117032438Y-55836905D01*
X117032438Y-55836905D02*
X117080057Y-55789286D01*
X117080057Y-55789286D02*
X117175295Y-55741667D01*
X117175295Y-55741667D02*
X117318152Y-55741667D01*
X117318152Y-55741667D02*
X117413390Y-55789286D01*
X117413390Y-55789286D02*
X117461009Y-55836905D01*
X117461009Y-55836905D02*
X117508628Y-55932143D01*
X117508628Y-55932143D02*
X117508628Y-56313095D01*
X117413390Y-55170238D02*
X117365771Y-55265476D01*
X117365771Y-55265476D02*
X117318152Y-55313095D01*
X117318152Y-55313095D02*
X117222914Y-55360714D01*
X117222914Y-55360714D02*
X117175295Y-55360714D01*
X117175295Y-55360714D02*
X117080057Y-55313095D01*
X117080057Y-55313095D02*
X117032438Y-55265476D01*
X117032438Y-55265476D02*
X116984819Y-55170238D01*
X116984819Y-55170238D02*
X116984819Y-54979762D01*
X116984819Y-54979762D02*
X117032438Y-54884524D01*
X117032438Y-54884524D02*
X117080057Y-54836905D01*
X117080057Y-54836905D02*
X117175295Y-54789286D01*
X117175295Y-54789286D02*
X117222914Y-54789286D01*
X117222914Y-54789286D02*
X117318152Y-54836905D01*
X117318152Y-54836905D02*
X117365771Y-54884524D01*
X117365771Y-54884524D02*
X117413390Y-54979762D01*
X117413390Y-54979762D02*
X117413390Y-55170238D01*
X117413390Y-55170238D02*
X117461009Y-55265476D01*
X117461009Y-55265476D02*
X117508628Y-55313095D01*
X117508628Y-55313095D02*
X117603866Y-55360714D01*
X117603866Y-55360714D02*
X117794342Y-55360714D01*
X117794342Y-55360714D02*
X117889580Y-55313095D01*
X117889580Y-55313095D02*
X117937200Y-55265476D01*
X117937200Y-55265476D02*
X117984819Y-55170238D01*
X117984819Y-55170238D02*
X117984819Y-54979762D01*
X117984819Y-54979762D02*
X117937200Y-54884524D01*
X117937200Y-54884524D02*
X117889580Y-54836905D01*
X117889580Y-54836905D02*
X117794342Y-54789286D01*
X117794342Y-54789286D02*
X117603866Y-54789286D01*
X117603866Y-54789286D02*
X117508628Y-54836905D01*
X117508628Y-54836905D02*
X117461009Y-54884524D01*
X117461009Y-54884524D02*
X117413390Y-54979762D01*
X117754819Y-69532857D02*
X117278628Y-69866190D01*
X117754819Y-70104285D02*
X116754819Y-70104285D01*
X116754819Y-70104285D02*
X116754819Y-69723333D01*
X116754819Y-69723333D02*
X116802438Y-69628095D01*
X116802438Y-69628095D02*
X116850057Y-69580476D01*
X116850057Y-69580476D02*
X116945295Y-69532857D01*
X116945295Y-69532857D02*
X117088152Y-69532857D01*
X117088152Y-69532857D02*
X117183390Y-69580476D01*
X117183390Y-69580476D02*
X117231009Y-69628095D01*
X117231009Y-69628095D02*
X117278628Y-69723333D01*
X117278628Y-69723333D02*
X117278628Y-70104285D01*
X117754819Y-68580476D02*
X117754819Y-69151904D01*
X117754819Y-68866190D02*
X116754819Y-68866190D01*
X116754819Y-68866190D02*
X116897676Y-68961428D01*
X116897676Y-68961428D02*
X116992914Y-69056666D01*
X116992914Y-69056666D02*
X117040533Y-69151904D01*
X116754819Y-68247142D02*
X116754819Y-67580476D01*
X116754819Y-67580476D02*
X117754819Y-68009047D01*
X111954819Y-59341666D02*
X111478628Y-59674999D01*
X111954819Y-59913094D02*
X110954819Y-59913094D01*
X110954819Y-59913094D02*
X110954819Y-59532142D01*
X110954819Y-59532142D02*
X111002438Y-59436904D01*
X111002438Y-59436904D02*
X111050057Y-59389285D01*
X111050057Y-59389285D02*
X111145295Y-59341666D01*
X111145295Y-59341666D02*
X111288152Y-59341666D01*
X111288152Y-59341666D02*
X111383390Y-59389285D01*
X111383390Y-59389285D02*
X111431009Y-59436904D01*
X111431009Y-59436904D02*
X111478628Y-59532142D01*
X111478628Y-59532142D02*
X111478628Y-59913094D01*
X110954819Y-58484523D02*
X110954819Y-58674999D01*
X110954819Y-58674999D02*
X111002438Y-58770237D01*
X111002438Y-58770237D02*
X111050057Y-58817856D01*
X111050057Y-58817856D02*
X111192914Y-58913094D01*
X111192914Y-58913094D02*
X111383390Y-58960713D01*
X111383390Y-58960713D02*
X111764342Y-58960713D01*
X111764342Y-58960713D02*
X111859580Y-58913094D01*
X111859580Y-58913094D02*
X111907200Y-58865475D01*
X111907200Y-58865475D02*
X111954819Y-58770237D01*
X111954819Y-58770237D02*
X111954819Y-58579761D01*
X111954819Y-58579761D02*
X111907200Y-58484523D01*
X111907200Y-58484523D02*
X111859580Y-58436904D01*
X111859580Y-58436904D02*
X111764342Y-58389285D01*
X111764342Y-58389285D02*
X111526247Y-58389285D01*
X111526247Y-58389285D02*
X111431009Y-58436904D01*
X111431009Y-58436904D02*
X111383390Y-58484523D01*
X111383390Y-58484523D02*
X111335771Y-58579761D01*
X111335771Y-58579761D02*
X111335771Y-58770237D01*
X111335771Y-58770237D02*
X111383390Y-58865475D01*
X111383390Y-58865475D02*
X111431009Y-58913094D01*
X111431009Y-58913094D02*
X111526247Y-58960713D01*
X102859580Y-93766666D02*
X102907200Y-93814285D01*
X102907200Y-93814285D02*
X102954819Y-93957142D01*
X102954819Y-93957142D02*
X102954819Y-94052380D01*
X102954819Y-94052380D02*
X102907200Y-94195237D01*
X102907200Y-94195237D02*
X102811961Y-94290475D01*
X102811961Y-94290475D02*
X102716723Y-94338094D01*
X102716723Y-94338094D02*
X102526247Y-94385713D01*
X102526247Y-94385713D02*
X102383390Y-94385713D01*
X102383390Y-94385713D02*
X102192914Y-94338094D01*
X102192914Y-94338094D02*
X102097676Y-94290475D01*
X102097676Y-94290475D02*
X102002438Y-94195237D01*
X102002438Y-94195237D02*
X101954819Y-94052380D01*
X101954819Y-94052380D02*
X101954819Y-93957142D01*
X101954819Y-93957142D02*
X102002438Y-93814285D01*
X102002438Y-93814285D02*
X102050057Y-93766666D01*
X101954819Y-93433332D02*
X101954819Y-92814285D01*
X101954819Y-92814285D02*
X102335771Y-93147618D01*
X102335771Y-93147618D02*
X102335771Y-93004761D01*
X102335771Y-93004761D02*
X102383390Y-92909523D01*
X102383390Y-92909523D02*
X102431009Y-92861904D01*
X102431009Y-92861904D02*
X102526247Y-92814285D01*
X102526247Y-92814285D02*
X102764342Y-92814285D01*
X102764342Y-92814285D02*
X102859580Y-92861904D01*
X102859580Y-92861904D02*
X102907200Y-92909523D01*
X102907200Y-92909523D02*
X102954819Y-93004761D01*
X102954819Y-93004761D02*
X102954819Y-93290475D01*
X102954819Y-93290475D02*
X102907200Y-93385713D01*
X102907200Y-93385713D02*
X102859580Y-93433332D01*
X127837142Y-70779580D02*
X127789523Y-70827200D01*
X127789523Y-70827200D02*
X127646666Y-70874819D01*
X127646666Y-70874819D02*
X127551428Y-70874819D01*
X127551428Y-70874819D02*
X127408571Y-70827200D01*
X127408571Y-70827200D02*
X127313333Y-70731961D01*
X127313333Y-70731961D02*
X127265714Y-70636723D01*
X127265714Y-70636723D02*
X127218095Y-70446247D01*
X127218095Y-70446247D02*
X127218095Y-70303390D01*
X127218095Y-70303390D02*
X127265714Y-70112914D01*
X127265714Y-70112914D02*
X127313333Y-70017676D01*
X127313333Y-70017676D02*
X127408571Y-69922438D01*
X127408571Y-69922438D02*
X127551428Y-69874819D01*
X127551428Y-69874819D02*
X127646666Y-69874819D01*
X127646666Y-69874819D02*
X127789523Y-69922438D01*
X127789523Y-69922438D02*
X127837142Y-69970057D01*
X128789523Y-70874819D02*
X128218095Y-70874819D01*
X128503809Y-70874819D02*
X128503809Y-69874819D01*
X128503809Y-69874819D02*
X128408571Y-70017676D01*
X128408571Y-70017676D02*
X128313333Y-70112914D01*
X128313333Y-70112914D02*
X128218095Y-70160533D01*
X129360952Y-70303390D02*
X129265714Y-70255771D01*
X129265714Y-70255771D02*
X129218095Y-70208152D01*
X129218095Y-70208152D02*
X129170476Y-70112914D01*
X129170476Y-70112914D02*
X129170476Y-70065295D01*
X129170476Y-70065295D02*
X129218095Y-69970057D01*
X129218095Y-69970057D02*
X129265714Y-69922438D01*
X129265714Y-69922438D02*
X129360952Y-69874819D01*
X129360952Y-69874819D02*
X129551428Y-69874819D01*
X129551428Y-69874819D02*
X129646666Y-69922438D01*
X129646666Y-69922438D02*
X129694285Y-69970057D01*
X129694285Y-69970057D02*
X129741904Y-70065295D01*
X129741904Y-70065295D02*
X129741904Y-70112914D01*
X129741904Y-70112914D02*
X129694285Y-70208152D01*
X129694285Y-70208152D02*
X129646666Y-70255771D01*
X129646666Y-70255771D02*
X129551428Y-70303390D01*
X129551428Y-70303390D02*
X129360952Y-70303390D01*
X129360952Y-70303390D02*
X129265714Y-70351009D01*
X129265714Y-70351009D02*
X129218095Y-70398628D01*
X129218095Y-70398628D02*
X129170476Y-70493866D01*
X129170476Y-70493866D02*
X129170476Y-70684342D01*
X129170476Y-70684342D02*
X129218095Y-70779580D01*
X129218095Y-70779580D02*
X129265714Y-70827200D01*
X129265714Y-70827200D02*
X129360952Y-70874819D01*
X129360952Y-70874819D02*
X129551428Y-70874819D01*
X129551428Y-70874819D02*
X129646666Y-70827200D01*
X129646666Y-70827200D02*
X129694285Y-70779580D01*
X129694285Y-70779580D02*
X129741904Y-70684342D01*
X129741904Y-70684342D02*
X129741904Y-70493866D01*
X129741904Y-70493866D02*
X129694285Y-70398628D01*
X129694285Y-70398628D02*
X129646666Y-70351009D01*
X129646666Y-70351009D02*
X129551428Y-70303390D01*
X144301144Y-82562019D02*
X143967811Y-82085828D01*
X143729716Y-82562019D02*
X143729716Y-81562019D01*
X143729716Y-81562019D02*
X144110668Y-81562019D01*
X144110668Y-81562019D02*
X144205906Y-81609638D01*
X144205906Y-81609638D02*
X144253525Y-81657257D01*
X144253525Y-81657257D02*
X144301144Y-81752495D01*
X144301144Y-81752495D02*
X144301144Y-81895352D01*
X144301144Y-81895352D02*
X144253525Y-81990590D01*
X144253525Y-81990590D02*
X144205906Y-82038209D01*
X144205906Y-82038209D02*
X144110668Y-82085828D01*
X144110668Y-82085828D02*
X143729716Y-82085828D01*
X144682097Y-81657257D02*
X144729716Y-81609638D01*
X144729716Y-81609638D02*
X144824954Y-81562019D01*
X144824954Y-81562019D02*
X145063049Y-81562019D01*
X145063049Y-81562019D02*
X145158287Y-81609638D01*
X145158287Y-81609638D02*
X145205906Y-81657257D01*
X145205906Y-81657257D02*
X145253525Y-81752495D01*
X145253525Y-81752495D02*
X145253525Y-81847733D01*
X145253525Y-81847733D02*
X145205906Y-81990590D01*
X145205906Y-81990590D02*
X144634478Y-82562019D01*
X144634478Y-82562019D02*
X145253525Y-82562019D01*
X145824954Y-81990590D02*
X145729716Y-81942971D01*
X145729716Y-81942971D02*
X145682097Y-81895352D01*
X145682097Y-81895352D02*
X145634478Y-81800114D01*
X145634478Y-81800114D02*
X145634478Y-81752495D01*
X145634478Y-81752495D02*
X145682097Y-81657257D01*
X145682097Y-81657257D02*
X145729716Y-81609638D01*
X145729716Y-81609638D02*
X145824954Y-81562019D01*
X145824954Y-81562019D02*
X146015430Y-81562019D01*
X146015430Y-81562019D02*
X146110668Y-81609638D01*
X146110668Y-81609638D02*
X146158287Y-81657257D01*
X146158287Y-81657257D02*
X146205906Y-81752495D01*
X146205906Y-81752495D02*
X146205906Y-81800114D01*
X146205906Y-81800114D02*
X146158287Y-81895352D01*
X146158287Y-81895352D02*
X146110668Y-81942971D01*
X146110668Y-81942971D02*
X146015430Y-81990590D01*
X146015430Y-81990590D02*
X145824954Y-81990590D01*
X145824954Y-81990590D02*
X145729716Y-82038209D01*
X145729716Y-82038209D02*
X145682097Y-82085828D01*
X145682097Y-82085828D02*
X145634478Y-82181066D01*
X145634478Y-82181066D02*
X145634478Y-82371542D01*
X145634478Y-82371542D02*
X145682097Y-82466780D01*
X145682097Y-82466780D02*
X145729716Y-82514400D01*
X145729716Y-82514400D02*
X145824954Y-82562019D01*
X145824954Y-82562019D02*
X146015430Y-82562019D01*
X146015430Y-82562019D02*
X146110668Y-82514400D01*
X146110668Y-82514400D02*
X146158287Y-82466780D01*
X146158287Y-82466780D02*
X146205906Y-82371542D01*
X146205906Y-82371542D02*
X146205906Y-82181066D01*
X146205906Y-82181066D02*
X146158287Y-82085828D01*
X146158287Y-82085828D02*
X146110668Y-82038209D01*
X146110668Y-82038209D02*
X146015430Y-81990590D01*
X131309142Y-84254819D02*
X130975809Y-83778628D01*
X130737714Y-84254819D02*
X130737714Y-83254819D01*
X130737714Y-83254819D02*
X131118666Y-83254819D01*
X131118666Y-83254819D02*
X131213904Y-83302438D01*
X131213904Y-83302438D02*
X131261523Y-83350057D01*
X131261523Y-83350057D02*
X131309142Y-83445295D01*
X131309142Y-83445295D02*
X131309142Y-83588152D01*
X131309142Y-83588152D02*
X131261523Y-83683390D01*
X131261523Y-83683390D02*
X131213904Y-83731009D01*
X131213904Y-83731009D02*
X131118666Y-83778628D01*
X131118666Y-83778628D02*
X130737714Y-83778628D01*
X131690095Y-83350057D02*
X131737714Y-83302438D01*
X131737714Y-83302438D02*
X131832952Y-83254819D01*
X131832952Y-83254819D02*
X132071047Y-83254819D01*
X132071047Y-83254819D02*
X132166285Y-83302438D01*
X132166285Y-83302438D02*
X132213904Y-83350057D01*
X132213904Y-83350057D02*
X132261523Y-83445295D01*
X132261523Y-83445295D02*
X132261523Y-83540533D01*
X132261523Y-83540533D02*
X132213904Y-83683390D01*
X132213904Y-83683390D02*
X131642476Y-84254819D01*
X131642476Y-84254819D02*
X132261523Y-84254819D01*
X132880571Y-83254819D02*
X132975809Y-83254819D01*
X132975809Y-83254819D02*
X133071047Y-83302438D01*
X133071047Y-83302438D02*
X133118666Y-83350057D01*
X133118666Y-83350057D02*
X133166285Y-83445295D01*
X133166285Y-83445295D02*
X133213904Y-83635771D01*
X133213904Y-83635771D02*
X133213904Y-83873866D01*
X133213904Y-83873866D02*
X133166285Y-84064342D01*
X133166285Y-84064342D02*
X133118666Y-84159580D01*
X133118666Y-84159580D02*
X133071047Y-84207200D01*
X133071047Y-84207200D02*
X132975809Y-84254819D01*
X132975809Y-84254819D02*
X132880571Y-84254819D01*
X132880571Y-84254819D02*
X132785333Y-84207200D01*
X132785333Y-84207200D02*
X132737714Y-84159580D01*
X132737714Y-84159580D02*
X132690095Y-84064342D01*
X132690095Y-84064342D02*
X132642476Y-83873866D01*
X132642476Y-83873866D02*
X132642476Y-83635771D01*
X132642476Y-83635771D02*
X132690095Y-83445295D01*
X132690095Y-83445295D02*
X132737714Y-83350057D01*
X132737714Y-83350057D02*
X132785333Y-83302438D01*
X132785333Y-83302438D02*
X132880571Y-83254819D01*
X112498095Y-53436819D02*
X113069523Y-53436819D01*
X112783809Y-54436819D02*
X112783809Y-53436819D01*
X113402857Y-54436819D02*
X113402857Y-53436819D01*
X113402857Y-53436819D02*
X113783809Y-53436819D01*
X113783809Y-53436819D02*
X113879047Y-53484438D01*
X113879047Y-53484438D02*
X113926666Y-53532057D01*
X113926666Y-53532057D02*
X113974285Y-53627295D01*
X113974285Y-53627295D02*
X113974285Y-53770152D01*
X113974285Y-53770152D02*
X113926666Y-53865390D01*
X113926666Y-53865390D02*
X113879047Y-53913009D01*
X113879047Y-53913009D02*
X113783809Y-53960628D01*
X113783809Y-53960628D02*
X113402857Y-53960628D01*
X114926666Y-54436819D02*
X114355238Y-54436819D01*
X114640952Y-54436819D02*
X114640952Y-53436819D01*
X114640952Y-53436819D02*
X114545714Y-53579676D01*
X114545714Y-53579676D02*
X114450476Y-53674914D01*
X114450476Y-53674914D02*
X114355238Y-53722533D01*
X140707142Y-69999580D02*
X140659523Y-70047200D01*
X140659523Y-70047200D02*
X140516666Y-70094819D01*
X140516666Y-70094819D02*
X140421428Y-70094819D01*
X140421428Y-70094819D02*
X140278571Y-70047200D01*
X140278571Y-70047200D02*
X140183333Y-69951961D01*
X140183333Y-69951961D02*
X140135714Y-69856723D01*
X140135714Y-69856723D02*
X140088095Y-69666247D01*
X140088095Y-69666247D02*
X140088095Y-69523390D01*
X140088095Y-69523390D02*
X140135714Y-69332914D01*
X140135714Y-69332914D02*
X140183333Y-69237676D01*
X140183333Y-69237676D02*
X140278571Y-69142438D01*
X140278571Y-69142438D02*
X140421428Y-69094819D01*
X140421428Y-69094819D02*
X140516666Y-69094819D01*
X140516666Y-69094819D02*
X140659523Y-69142438D01*
X140659523Y-69142438D02*
X140707142Y-69190057D01*
X141088095Y-69190057D02*
X141135714Y-69142438D01*
X141135714Y-69142438D02*
X141230952Y-69094819D01*
X141230952Y-69094819D02*
X141469047Y-69094819D01*
X141469047Y-69094819D02*
X141564285Y-69142438D01*
X141564285Y-69142438D02*
X141611904Y-69190057D01*
X141611904Y-69190057D02*
X141659523Y-69285295D01*
X141659523Y-69285295D02*
X141659523Y-69380533D01*
X141659523Y-69380533D02*
X141611904Y-69523390D01*
X141611904Y-69523390D02*
X141040476Y-70094819D01*
X141040476Y-70094819D02*
X141659523Y-70094819D01*
X142040476Y-69190057D02*
X142088095Y-69142438D01*
X142088095Y-69142438D02*
X142183333Y-69094819D01*
X142183333Y-69094819D02*
X142421428Y-69094819D01*
X142421428Y-69094819D02*
X142516666Y-69142438D01*
X142516666Y-69142438D02*
X142564285Y-69190057D01*
X142564285Y-69190057D02*
X142611904Y-69285295D01*
X142611904Y-69285295D02*
X142611904Y-69380533D01*
X142611904Y-69380533D02*
X142564285Y-69523390D01*
X142564285Y-69523390D02*
X141992857Y-70094819D01*
X141992857Y-70094819D02*
X142611904Y-70094819D01*
X103977142Y-84224819D02*
X103643809Y-83748628D01*
X103405714Y-84224819D02*
X103405714Y-83224819D01*
X103405714Y-83224819D02*
X103786666Y-83224819D01*
X103786666Y-83224819D02*
X103881904Y-83272438D01*
X103881904Y-83272438D02*
X103929523Y-83320057D01*
X103929523Y-83320057D02*
X103977142Y-83415295D01*
X103977142Y-83415295D02*
X103977142Y-83558152D01*
X103977142Y-83558152D02*
X103929523Y-83653390D01*
X103929523Y-83653390D02*
X103881904Y-83701009D01*
X103881904Y-83701009D02*
X103786666Y-83748628D01*
X103786666Y-83748628D02*
X103405714Y-83748628D01*
X104929523Y-84224819D02*
X104358095Y-84224819D01*
X104643809Y-84224819D02*
X104643809Y-83224819D01*
X104643809Y-83224819D02*
X104548571Y-83367676D01*
X104548571Y-83367676D02*
X104453333Y-83462914D01*
X104453333Y-83462914D02*
X104358095Y-83510533D01*
X105262857Y-83224819D02*
X105881904Y-83224819D01*
X105881904Y-83224819D02*
X105548571Y-83605771D01*
X105548571Y-83605771D02*
X105691428Y-83605771D01*
X105691428Y-83605771D02*
X105786666Y-83653390D01*
X105786666Y-83653390D02*
X105834285Y-83701009D01*
X105834285Y-83701009D02*
X105881904Y-83796247D01*
X105881904Y-83796247D02*
X105881904Y-84034342D01*
X105881904Y-84034342D02*
X105834285Y-84129580D01*
X105834285Y-84129580D02*
X105786666Y-84177200D01*
X105786666Y-84177200D02*
X105691428Y-84224819D01*
X105691428Y-84224819D02*
X105405714Y-84224819D01*
X105405714Y-84224819D02*
X105310476Y-84177200D01*
X105310476Y-84177200D02*
X105262857Y-84129580D01*
X117925097Y-95069199D02*
X118067954Y-95116818D01*
X118067954Y-95116818D02*
X118306049Y-95116818D01*
X118306049Y-95116818D02*
X118401287Y-95069199D01*
X118401287Y-95069199D02*
X118448906Y-95021579D01*
X118448906Y-95021579D02*
X118496525Y-94926341D01*
X118496525Y-94926341D02*
X118496525Y-94831103D01*
X118496525Y-94831103D02*
X118448906Y-94735865D01*
X118448906Y-94735865D02*
X118401287Y-94688246D01*
X118401287Y-94688246D02*
X118306049Y-94640627D01*
X118306049Y-94640627D02*
X118115573Y-94593008D01*
X118115573Y-94593008D02*
X118020335Y-94545389D01*
X118020335Y-94545389D02*
X117972716Y-94497770D01*
X117972716Y-94497770D02*
X117925097Y-94402532D01*
X117925097Y-94402532D02*
X117925097Y-94307294D01*
X117925097Y-94307294D02*
X117972716Y-94212056D01*
X117972716Y-94212056D02*
X118020335Y-94164437D01*
X118020335Y-94164437D02*
X118115573Y-94116818D01*
X118115573Y-94116818D02*
X118353668Y-94116818D01*
X118353668Y-94116818D02*
X118496525Y-94164437D01*
X118877478Y-94212056D02*
X118925097Y-94164437D01*
X118925097Y-94164437D02*
X119020335Y-94116818D01*
X119020335Y-94116818D02*
X119258430Y-94116818D01*
X119258430Y-94116818D02*
X119353668Y-94164437D01*
X119353668Y-94164437D02*
X119401287Y-94212056D01*
X119401287Y-94212056D02*
X119448906Y-94307294D01*
X119448906Y-94307294D02*
X119448906Y-94402532D01*
X119448906Y-94402532D02*
X119401287Y-94545389D01*
X119401287Y-94545389D02*
X118829859Y-95116818D01*
X118829859Y-95116818D02*
X119448906Y-95116818D01*
X123554819Y-56166666D02*
X123078628Y-56499999D01*
X123554819Y-56738094D02*
X122554819Y-56738094D01*
X122554819Y-56738094D02*
X122554819Y-56357142D01*
X122554819Y-56357142D02*
X122602438Y-56261904D01*
X122602438Y-56261904D02*
X122650057Y-56214285D01*
X122650057Y-56214285D02*
X122745295Y-56166666D01*
X122745295Y-56166666D02*
X122888152Y-56166666D01*
X122888152Y-56166666D02*
X122983390Y-56214285D01*
X122983390Y-56214285D02*
X123031009Y-56261904D01*
X123031009Y-56261904D02*
X123078628Y-56357142D01*
X123078628Y-56357142D02*
X123078628Y-56738094D01*
X123554819Y-55690475D02*
X123554819Y-55499999D01*
X123554819Y-55499999D02*
X123507200Y-55404761D01*
X123507200Y-55404761D02*
X123459580Y-55357142D01*
X123459580Y-55357142D02*
X123316723Y-55261904D01*
X123316723Y-55261904D02*
X123126247Y-55214285D01*
X123126247Y-55214285D02*
X122745295Y-55214285D01*
X122745295Y-55214285D02*
X122650057Y-55261904D01*
X122650057Y-55261904D02*
X122602438Y-55309523D01*
X122602438Y-55309523D02*
X122554819Y-55404761D01*
X122554819Y-55404761D02*
X122554819Y-55595237D01*
X122554819Y-55595237D02*
X122602438Y-55690475D01*
X122602438Y-55690475D02*
X122650057Y-55738094D01*
X122650057Y-55738094D02*
X122745295Y-55785713D01*
X122745295Y-55785713D02*
X122983390Y-55785713D01*
X122983390Y-55785713D02*
X123078628Y-55738094D01*
X123078628Y-55738094D02*
X123126247Y-55690475D01*
X123126247Y-55690475D02*
X123173866Y-55595237D01*
X123173866Y-55595237D02*
X123173866Y-55404761D01*
X123173866Y-55404761D02*
X123126247Y-55309523D01*
X123126247Y-55309523D02*
X123078628Y-55261904D01*
X123078628Y-55261904D02*
X122983390Y-55214285D01*
X142227142Y-68779580D02*
X142179523Y-68827200D01*
X142179523Y-68827200D02*
X142036666Y-68874819D01*
X142036666Y-68874819D02*
X141941428Y-68874819D01*
X141941428Y-68874819D02*
X141798571Y-68827200D01*
X141798571Y-68827200D02*
X141703333Y-68731961D01*
X141703333Y-68731961D02*
X141655714Y-68636723D01*
X141655714Y-68636723D02*
X141608095Y-68446247D01*
X141608095Y-68446247D02*
X141608095Y-68303390D01*
X141608095Y-68303390D02*
X141655714Y-68112914D01*
X141655714Y-68112914D02*
X141703333Y-68017676D01*
X141703333Y-68017676D02*
X141798571Y-67922438D01*
X141798571Y-67922438D02*
X141941428Y-67874819D01*
X141941428Y-67874819D02*
X142036666Y-67874819D01*
X142036666Y-67874819D02*
X142179523Y-67922438D01*
X142179523Y-67922438D02*
X142227142Y-67970057D01*
X142608095Y-67970057D02*
X142655714Y-67922438D01*
X142655714Y-67922438D02*
X142750952Y-67874819D01*
X142750952Y-67874819D02*
X142989047Y-67874819D01*
X142989047Y-67874819D02*
X143084285Y-67922438D01*
X143084285Y-67922438D02*
X143131904Y-67970057D01*
X143131904Y-67970057D02*
X143179523Y-68065295D01*
X143179523Y-68065295D02*
X143179523Y-68160533D01*
X143179523Y-68160533D02*
X143131904Y-68303390D01*
X143131904Y-68303390D02*
X142560476Y-68874819D01*
X142560476Y-68874819D02*
X143179523Y-68874819D01*
X144131904Y-68874819D02*
X143560476Y-68874819D01*
X143846190Y-68874819D02*
X143846190Y-67874819D01*
X143846190Y-67874819D02*
X143750952Y-68017676D01*
X143750952Y-68017676D02*
X143655714Y-68112914D01*
X143655714Y-68112914D02*
X143560476Y-68160533D01*
X107538095Y-59354818D02*
X107538095Y-60164341D01*
X107538095Y-60164341D02*
X107585714Y-60259579D01*
X107585714Y-60259579D02*
X107633333Y-60307199D01*
X107633333Y-60307199D02*
X107728571Y-60354818D01*
X107728571Y-60354818D02*
X107919047Y-60354818D01*
X107919047Y-60354818D02*
X108014285Y-60307199D01*
X108014285Y-60307199D02*
X108061904Y-60259579D01*
X108061904Y-60259579D02*
X108109523Y-60164341D01*
X108109523Y-60164341D02*
X108109523Y-59354818D01*
X109109523Y-60354818D02*
X108538095Y-60354818D01*
X108823809Y-60354818D02*
X108823809Y-59354818D01*
X108823809Y-59354818D02*
X108728571Y-59497675D01*
X108728571Y-59497675D02*
X108633333Y-59592913D01*
X108633333Y-59592913D02*
X108538095Y-59640532D01*
X108238095Y-96854819D02*
X108809523Y-96854819D01*
X108523809Y-97854819D02*
X108523809Y-96854819D01*
X109142857Y-97854819D02*
X109142857Y-96854819D01*
X109142857Y-96854819D02*
X109523809Y-96854819D01*
X109523809Y-96854819D02*
X109619047Y-96902438D01*
X109619047Y-96902438D02*
X109666666Y-96950057D01*
X109666666Y-96950057D02*
X109714285Y-97045295D01*
X109714285Y-97045295D02*
X109714285Y-97188152D01*
X109714285Y-97188152D02*
X109666666Y-97283390D01*
X109666666Y-97283390D02*
X109619047Y-97331009D01*
X109619047Y-97331009D02*
X109523809Y-97378628D01*
X109523809Y-97378628D02*
X109142857Y-97378628D01*
X110047619Y-96854819D02*
X110666666Y-96854819D01*
X110666666Y-96854819D02*
X110333333Y-97235771D01*
X110333333Y-97235771D02*
X110476190Y-97235771D01*
X110476190Y-97235771D02*
X110571428Y-97283390D01*
X110571428Y-97283390D02*
X110619047Y-97331009D01*
X110619047Y-97331009D02*
X110666666Y-97426247D01*
X110666666Y-97426247D02*
X110666666Y-97664342D01*
X110666666Y-97664342D02*
X110619047Y-97759580D01*
X110619047Y-97759580D02*
X110571428Y-97807200D01*
X110571428Y-97807200D02*
X110476190Y-97854819D01*
X110476190Y-97854819D02*
X110190476Y-97854819D01*
X110190476Y-97854819D02*
X110095238Y-97807200D01*
X110095238Y-97807200D02*
X110047619Y-97759580D01*
X144307142Y-70584819D02*
X143973809Y-70108628D01*
X143735714Y-70584819D02*
X143735714Y-69584819D01*
X143735714Y-69584819D02*
X144116666Y-69584819D01*
X144116666Y-69584819D02*
X144211904Y-69632438D01*
X144211904Y-69632438D02*
X144259523Y-69680057D01*
X144259523Y-69680057D02*
X144307142Y-69775295D01*
X144307142Y-69775295D02*
X144307142Y-69918152D01*
X144307142Y-69918152D02*
X144259523Y-70013390D01*
X144259523Y-70013390D02*
X144211904Y-70061009D01*
X144211904Y-70061009D02*
X144116666Y-70108628D01*
X144116666Y-70108628D02*
X143735714Y-70108628D01*
X144688095Y-69680057D02*
X144735714Y-69632438D01*
X144735714Y-69632438D02*
X144830952Y-69584819D01*
X144830952Y-69584819D02*
X145069047Y-69584819D01*
X145069047Y-69584819D02*
X145164285Y-69632438D01*
X145164285Y-69632438D02*
X145211904Y-69680057D01*
X145211904Y-69680057D02*
X145259523Y-69775295D01*
X145259523Y-69775295D02*
X145259523Y-69870533D01*
X145259523Y-69870533D02*
X145211904Y-70013390D01*
X145211904Y-70013390D02*
X144640476Y-70584819D01*
X144640476Y-70584819D02*
X145259523Y-70584819D01*
X146116666Y-69584819D02*
X145926190Y-69584819D01*
X145926190Y-69584819D02*
X145830952Y-69632438D01*
X145830952Y-69632438D02*
X145783333Y-69680057D01*
X145783333Y-69680057D02*
X145688095Y-69822914D01*
X145688095Y-69822914D02*
X145640476Y-70013390D01*
X145640476Y-70013390D02*
X145640476Y-70394342D01*
X145640476Y-70394342D02*
X145688095Y-70489580D01*
X145688095Y-70489580D02*
X145735714Y-70537200D01*
X145735714Y-70537200D02*
X145830952Y-70584819D01*
X145830952Y-70584819D02*
X146021428Y-70584819D01*
X146021428Y-70584819D02*
X146116666Y-70537200D01*
X146116666Y-70537200D02*
X146164285Y-70489580D01*
X146164285Y-70489580D02*
X146211904Y-70394342D01*
X146211904Y-70394342D02*
X146211904Y-70156247D01*
X146211904Y-70156247D02*
X146164285Y-70061009D01*
X146164285Y-70061009D02*
X146116666Y-70013390D01*
X146116666Y-70013390D02*
X146021428Y-69965771D01*
X146021428Y-69965771D02*
X145830952Y-69965771D01*
X145830952Y-69965771D02*
X145735714Y-70013390D01*
X145735714Y-70013390D02*
X145688095Y-70061009D01*
X145688095Y-70061009D02*
X145640476Y-70156247D01*
X151390180Y-68058095D02*
X150580657Y-68058095D01*
X150580657Y-68058095D02*
X150485419Y-68105714D01*
X150485419Y-68105714D02*
X150437800Y-68153333D01*
X150437800Y-68153333D02*
X150390180Y-68248571D01*
X150390180Y-68248571D02*
X150390180Y-68439047D01*
X150390180Y-68439047D02*
X150437800Y-68534285D01*
X150437800Y-68534285D02*
X150485419Y-68581904D01*
X150485419Y-68581904D02*
X150580657Y-68629523D01*
X150580657Y-68629523D02*
X151390180Y-68629523D01*
X151390180Y-69534285D02*
X151390180Y-69343809D01*
X151390180Y-69343809D02*
X151342561Y-69248571D01*
X151342561Y-69248571D02*
X151294942Y-69200952D01*
X151294942Y-69200952D02*
X151152085Y-69105714D01*
X151152085Y-69105714D02*
X150961609Y-69058095D01*
X150961609Y-69058095D02*
X150580657Y-69058095D01*
X150580657Y-69058095D02*
X150485419Y-69105714D01*
X150485419Y-69105714D02*
X150437800Y-69153333D01*
X150437800Y-69153333D02*
X150390180Y-69248571D01*
X150390180Y-69248571D02*
X150390180Y-69439047D01*
X150390180Y-69439047D02*
X150437800Y-69534285D01*
X150437800Y-69534285D02*
X150485419Y-69581904D01*
X150485419Y-69581904D02*
X150580657Y-69629523D01*
X150580657Y-69629523D02*
X150818752Y-69629523D01*
X150818752Y-69629523D02*
X150913990Y-69581904D01*
X150913990Y-69581904D02*
X150961609Y-69534285D01*
X150961609Y-69534285D02*
X151009228Y-69439047D01*
X151009228Y-69439047D02*
X151009228Y-69248571D01*
X151009228Y-69248571D02*
X150961609Y-69153333D01*
X150961609Y-69153333D02*
X150913990Y-69105714D01*
X150913990Y-69105714D02*
X150818752Y-69058095D01*
X135754819Y-75961904D02*
X136564342Y-75961904D01*
X136564342Y-75961904D02*
X136659580Y-75914285D01*
X136659580Y-75914285D02*
X136707200Y-75866666D01*
X136707200Y-75866666D02*
X136754819Y-75771428D01*
X136754819Y-75771428D02*
X136754819Y-75580952D01*
X136754819Y-75580952D02*
X136707200Y-75485714D01*
X136707200Y-75485714D02*
X136659580Y-75438095D01*
X136659580Y-75438095D02*
X136564342Y-75390476D01*
X136564342Y-75390476D02*
X135754819Y-75390476D01*
X136088152Y-74485714D02*
X136754819Y-74485714D01*
X135707200Y-74723809D02*
X136421485Y-74961904D01*
X136421485Y-74961904D02*
X136421485Y-74342857D01*
X113857142Y-84979581D02*
X113809523Y-85027201D01*
X113809523Y-85027201D02*
X113666666Y-85074820D01*
X113666666Y-85074820D02*
X113571428Y-85074820D01*
X113571428Y-85074820D02*
X113428571Y-85027201D01*
X113428571Y-85027201D02*
X113333333Y-84931962D01*
X113333333Y-84931962D02*
X113285714Y-84836724D01*
X113285714Y-84836724D02*
X113238095Y-84646248D01*
X113238095Y-84646248D02*
X113238095Y-84503391D01*
X113238095Y-84503391D02*
X113285714Y-84312915D01*
X113285714Y-84312915D02*
X113333333Y-84217677D01*
X113333333Y-84217677D02*
X113428571Y-84122439D01*
X113428571Y-84122439D02*
X113571428Y-84074820D01*
X113571428Y-84074820D02*
X113666666Y-84074820D01*
X113666666Y-84074820D02*
X113809523Y-84122439D01*
X113809523Y-84122439D02*
X113857142Y-84170058D01*
X114809523Y-85074820D02*
X114238095Y-85074820D01*
X114523809Y-85074820D02*
X114523809Y-84074820D01*
X114523809Y-84074820D02*
X114428571Y-84217677D01*
X114428571Y-84217677D02*
X114333333Y-84312915D01*
X114333333Y-84312915D02*
X114238095Y-84360534D01*
X115142857Y-84074820D02*
X115761904Y-84074820D01*
X115761904Y-84074820D02*
X115428571Y-84455772D01*
X115428571Y-84455772D02*
X115571428Y-84455772D01*
X115571428Y-84455772D02*
X115666666Y-84503391D01*
X115666666Y-84503391D02*
X115714285Y-84551010D01*
X115714285Y-84551010D02*
X115761904Y-84646248D01*
X115761904Y-84646248D02*
X115761904Y-84884343D01*
X115761904Y-84884343D02*
X115714285Y-84979581D01*
X115714285Y-84979581D02*
X115666666Y-85027201D01*
X115666666Y-85027201D02*
X115571428Y-85074820D01*
X115571428Y-85074820D02*
X115285714Y-85074820D01*
X115285714Y-85074820D02*
X115190476Y-85027201D01*
X115190476Y-85027201D02*
X115142857Y-84979581D01*
X134057142Y-66859580D02*
X134009523Y-66907200D01*
X134009523Y-66907200D02*
X133866666Y-66954819D01*
X133866666Y-66954819D02*
X133771428Y-66954819D01*
X133771428Y-66954819D02*
X133628571Y-66907200D01*
X133628571Y-66907200D02*
X133533333Y-66811961D01*
X133533333Y-66811961D02*
X133485714Y-66716723D01*
X133485714Y-66716723D02*
X133438095Y-66526247D01*
X133438095Y-66526247D02*
X133438095Y-66383390D01*
X133438095Y-66383390D02*
X133485714Y-66192914D01*
X133485714Y-66192914D02*
X133533333Y-66097676D01*
X133533333Y-66097676D02*
X133628571Y-66002438D01*
X133628571Y-66002438D02*
X133771428Y-65954819D01*
X133771428Y-65954819D02*
X133866666Y-65954819D01*
X133866666Y-65954819D02*
X134009523Y-66002438D01*
X134009523Y-66002438D02*
X134057142Y-66050057D01*
X134438095Y-66050057D02*
X134485714Y-66002438D01*
X134485714Y-66002438D02*
X134580952Y-65954819D01*
X134580952Y-65954819D02*
X134819047Y-65954819D01*
X134819047Y-65954819D02*
X134914285Y-66002438D01*
X134914285Y-66002438D02*
X134961904Y-66050057D01*
X134961904Y-66050057D02*
X135009523Y-66145295D01*
X135009523Y-66145295D02*
X135009523Y-66240533D01*
X135009523Y-66240533D02*
X134961904Y-66383390D01*
X134961904Y-66383390D02*
X134390476Y-66954819D01*
X134390476Y-66954819D02*
X135009523Y-66954819D01*
X135914285Y-65954819D02*
X135438095Y-65954819D01*
X135438095Y-65954819D02*
X135390476Y-66431009D01*
X135390476Y-66431009D02*
X135438095Y-66383390D01*
X135438095Y-66383390D02*
X135533333Y-66335771D01*
X135533333Y-66335771D02*
X135771428Y-66335771D01*
X135771428Y-66335771D02*
X135866666Y-66383390D01*
X135866666Y-66383390D02*
X135914285Y-66431009D01*
X135914285Y-66431009D02*
X135961904Y-66526247D01*
X135961904Y-66526247D02*
X135961904Y-66764342D01*
X135961904Y-66764342D02*
X135914285Y-66859580D01*
X135914285Y-66859580D02*
X135866666Y-66907200D01*
X135866666Y-66907200D02*
X135771428Y-66954819D01*
X135771428Y-66954819D02*
X135533333Y-66954819D01*
X135533333Y-66954819D02*
X135438095Y-66907200D01*
X135438095Y-66907200D02*
X135390476Y-66859580D01*
X140818821Y-81569104D02*
X141628344Y-81569104D01*
X141628344Y-81569104D02*
X141723582Y-81521485D01*
X141723582Y-81521485D02*
X141771202Y-81473866D01*
X141771202Y-81473866D02*
X141818821Y-81378628D01*
X141818821Y-81378628D02*
X141818821Y-81188152D01*
X141818821Y-81188152D02*
X141771202Y-81092914D01*
X141771202Y-81092914D02*
X141723582Y-81045295D01*
X141723582Y-81045295D02*
X141628344Y-80997676D01*
X141628344Y-80997676D02*
X140818821Y-80997676D01*
X141247392Y-80378628D02*
X141199773Y-80473866D01*
X141199773Y-80473866D02*
X141152154Y-80521485D01*
X141152154Y-80521485D02*
X141056916Y-80569104D01*
X141056916Y-80569104D02*
X141009297Y-80569104D01*
X141009297Y-80569104D02*
X140914059Y-80521485D01*
X140914059Y-80521485D02*
X140866440Y-80473866D01*
X140866440Y-80473866D02*
X140818821Y-80378628D01*
X140818821Y-80378628D02*
X140818821Y-80188152D01*
X140818821Y-80188152D02*
X140866440Y-80092914D01*
X140866440Y-80092914D02*
X140914059Y-80045295D01*
X140914059Y-80045295D02*
X141009297Y-79997676D01*
X141009297Y-79997676D02*
X141056916Y-79997676D01*
X141056916Y-79997676D02*
X141152154Y-80045295D01*
X141152154Y-80045295D02*
X141199773Y-80092914D01*
X141199773Y-80092914D02*
X141247392Y-80188152D01*
X141247392Y-80188152D02*
X141247392Y-80378628D01*
X141247392Y-80378628D02*
X141295011Y-80473866D01*
X141295011Y-80473866D02*
X141342630Y-80521485D01*
X141342630Y-80521485D02*
X141437868Y-80569104D01*
X141437868Y-80569104D02*
X141628344Y-80569104D01*
X141628344Y-80569104D02*
X141723582Y-80521485D01*
X141723582Y-80521485D02*
X141771202Y-80473866D01*
X141771202Y-80473866D02*
X141818821Y-80378628D01*
X141818821Y-80378628D02*
X141818821Y-80188152D01*
X141818821Y-80188152D02*
X141771202Y-80092914D01*
X141771202Y-80092914D02*
X141723582Y-80045295D01*
X141723582Y-80045295D02*
X141628344Y-79997676D01*
X141628344Y-79997676D02*
X141437868Y-79997676D01*
X141437868Y-79997676D02*
X141342630Y-80045295D01*
X141342630Y-80045295D02*
X141295011Y-80092914D01*
X141295011Y-80092914D02*
X141247392Y-80188152D01*
X111954819Y-92366666D02*
X111478628Y-92699999D01*
X111954819Y-92938094D02*
X110954819Y-92938094D01*
X110954819Y-92938094D02*
X110954819Y-92557142D01*
X110954819Y-92557142D02*
X111002438Y-92461904D01*
X111002438Y-92461904D02*
X111050057Y-92414285D01*
X111050057Y-92414285D02*
X111145295Y-92366666D01*
X111145295Y-92366666D02*
X111288152Y-92366666D01*
X111288152Y-92366666D02*
X111383390Y-92414285D01*
X111383390Y-92414285D02*
X111431009Y-92461904D01*
X111431009Y-92461904D02*
X111478628Y-92557142D01*
X111478628Y-92557142D02*
X111478628Y-92938094D01*
X111288152Y-91509523D02*
X111954819Y-91509523D01*
X110907200Y-91747618D02*
X111621485Y-91985713D01*
X111621485Y-91985713D02*
X111621485Y-91366666D01*
X106147142Y-71744819D02*
X105813809Y-71268628D01*
X105575714Y-71744819D02*
X105575714Y-70744819D01*
X105575714Y-70744819D02*
X105956666Y-70744819D01*
X105956666Y-70744819D02*
X106051904Y-70792438D01*
X106051904Y-70792438D02*
X106099523Y-70840057D01*
X106099523Y-70840057D02*
X106147142Y-70935295D01*
X106147142Y-70935295D02*
X106147142Y-71078152D01*
X106147142Y-71078152D02*
X106099523Y-71173390D01*
X106099523Y-71173390D02*
X106051904Y-71221009D01*
X106051904Y-71221009D02*
X105956666Y-71268628D01*
X105956666Y-71268628D02*
X105575714Y-71268628D01*
X107099523Y-71744819D02*
X106528095Y-71744819D01*
X106813809Y-71744819D02*
X106813809Y-70744819D01*
X106813809Y-70744819D02*
X106718571Y-70887676D01*
X106718571Y-70887676D02*
X106623333Y-70982914D01*
X106623333Y-70982914D02*
X106528095Y-71030533D01*
X107956666Y-71078152D02*
X107956666Y-71744819D01*
X107718571Y-70697200D02*
X107480476Y-71411485D01*
X107480476Y-71411485D02*
X108099523Y-71411485D01*
X144307142Y-72154819D02*
X143973809Y-71678628D01*
X143735714Y-72154819D02*
X143735714Y-71154819D01*
X143735714Y-71154819D02*
X144116666Y-71154819D01*
X144116666Y-71154819D02*
X144211904Y-71202438D01*
X144211904Y-71202438D02*
X144259523Y-71250057D01*
X144259523Y-71250057D02*
X144307142Y-71345295D01*
X144307142Y-71345295D02*
X144307142Y-71488152D01*
X144307142Y-71488152D02*
X144259523Y-71583390D01*
X144259523Y-71583390D02*
X144211904Y-71631009D01*
X144211904Y-71631009D02*
X144116666Y-71678628D01*
X144116666Y-71678628D02*
X143735714Y-71678628D01*
X144688095Y-71250057D02*
X144735714Y-71202438D01*
X144735714Y-71202438D02*
X144830952Y-71154819D01*
X144830952Y-71154819D02*
X145069047Y-71154819D01*
X145069047Y-71154819D02*
X145164285Y-71202438D01*
X145164285Y-71202438D02*
X145211904Y-71250057D01*
X145211904Y-71250057D02*
X145259523Y-71345295D01*
X145259523Y-71345295D02*
X145259523Y-71440533D01*
X145259523Y-71440533D02*
X145211904Y-71583390D01*
X145211904Y-71583390D02*
X144640476Y-72154819D01*
X144640476Y-72154819D02*
X145259523Y-72154819D01*
X146164285Y-71154819D02*
X145688095Y-71154819D01*
X145688095Y-71154819D02*
X145640476Y-71631009D01*
X145640476Y-71631009D02*
X145688095Y-71583390D01*
X145688095Y-71583390D02*
X145783333Y-71535771D01*
X145783333Y-71535771D02*
X146021428Y-71535771D01*
X146021428Y-71535771D02*
X146116666Y-71583390D01*
X146116666Y-71583390D02*
X146164285Y-71631009D01*
X146164285Y-71631009D02*
X146211904Y-71726247D01*
X146211904Y-71726247D02*
X146211904Y-71964342D01*
X146211904Y-71964342D02*
X146164285Y-72059580D01*
X146164285Y-72059580D02*
X146116666Y-72107200D01*
X146116666Y-72107200D02*
X146021428Y-72154819D01*
X146021428Y-72154819D02*
X145783333Y-72154819D01*
X145783333Y-72154819D02*
X145688095Y-72107200D01*
X145688095Y-72107200D02*
X145640476Y-72059580D01*
X156195180Y-74629167D02*
X155480895Y-74629167D01*
X155480895Y-74629167D02*
X155338038Y-74581548D01*
X155338038Y-74581548D02*
X155242800Y-74486310D01*
X155242800Y-74486310D02*
X155195180Y-74343453D01*
X155195180Y-74343453D02*
X155195180Y-74248215D01*
X156195180Y-75010120D02*
X156195180Y-75629167D01*
X156195180Y-75629167D02*
X155814228Y-75295834D01*
X155814228Y-75295834D02*
X155814228Y-75438691D01*
X155814228Y-75438691D02*
X155766609Y-75533929D01*
X155766609Y-75533929D02*
X155718990Y-75581548D01*
X155718990Y-75581548D02*
X155623752Y-75629167D01*
X155623752Y-75629167D02*
X155385657Y-75629167D01*
X155385657Y-75629167D02*
X155290419Y-75581548D01*
X155290419Y-75581548D02*
X155242800Y-75533929D01*
X155242800Y-75533929D02*
X155195180Y-75438691D01*
X155195180Y-75438691D02*
X155195180Y-75152977D01*
X155195180Y-75152977D02*
X155242800Y-75057739D01*
X155242800Y-75057739D02*
X155290419Y-75010120D01*
X110359580Y-93366666D02*
X110407200Y-93414285D01*
X110407200Y-93414285D02*
X110454819Y-93557142D01*
X110454819Y-93557142D02*
X110454819Y-93652380D01*
X110454819Y-93652380D02*
X110407200Y-93795237D01*
X110407200Y-93795237D02*
X110311961Y-93890475D01*
X110311961Y-93890475D02*
X110216723Y-93938094D01*
X110216723Y-93938094D02*
X110026247Y-93985713D01*
X110026247Y-93985713D02*
X109883390Y-93985713D01*
X109883390Y-93985713D02*
X109692914Y-93938094D01*
X109692914Y-93938094D02*
X109597676Y-93890475D01*
X109597676Y-93890475D02*
X109502438Y-93795237D01*
X109502438Y-93795237D02*
X109454819Y-93652380D01*
X109454819Y-93652380D02*
X109454819Y-93557142D01*
X109454819Y-93557142D02*
X109502438Y-93414285D01*
X109502438Y-93414285D02*
X109550057Y-93366666D01*
X109454819Y-92509523D02*
X109454819Y-92699999D01*
X109454819Y-92699999D02*
X109502438Y-92795237D01*
X109502438Y-92795237D02*
X109550057Y-92842856D01*
X109550057Y-92842856D02*
X109692914Y-92938094D01*
X109692914Y-92938094D02*
X109883390Y-92985713D01*
X109883390Y-92985713D02*
X110264342Y-92985713D01*
X110264342Y-92985713D02*
X110359580Y-92938094D01*
X110359580Y-92938094D02*
X110407200Y-92890475D01*
X110407200Y-92890475D02*
X110454819Y-92795237D01*
X110454819Y-92795237D02*
X110454819Y-92604761D01*
X110454819Y-92604761D02*
X110407200Y-92509523D01*
X110407200Y-92509523D02*
X110359580Y-92461904D01*
X110359580Y-92461904D02*
X110264342Y-92414285D01*
X110264342Y-92414285D02*
X110026247Y-92414285D01*
X110026247Y-92414285D02*
X109931009Y-92461904D01*
X109931009Y-92461904D02*
X109883390Y-92509523D01*
X109883390Y-92509523D02*
X109835771Y-92604761D01*
X109835771Y-92604761D02*
X109835771Y-92795237D01*
X109835771Y-92795237D02*
X109883390Y-92890475D01*
X109883390Y-92890475D02*
X109931009Y-92938094D01*
X109931009Y-92938094D02*
X110026247Y-92985713D01*
X106627080Y-76037166D02*
X106674700Y-76084785D01*
X106674700Y-76084785D02*
X106722319Y-76227642D01*
X106722319Y-76227642D02*
X106722319Y-76322880D01*
X106722319Y-76322880D02*
X106674700Y-76465737D01*
X106674700Y-76465737D02*
X106579461Y-76560975D01*
X106579461Y-76560975D02*
X106484223Y-76608594D01*
X106484223Y-76608594D02*
X106293747Y-76656213D01*
X106293747Y-76656213D02*
X106150890Y-76656213D01*
X106150890Y-76656213D02*
X105960414Y-76608594D01*
X105960414Y-76608594D02*
X105865176Y-76560975D01*
X105865176Y-76560975D02*
X105769938Y-76465737D01*
X105769938Y-76465737D02*
X105722319Y-76322880D01*
X105722319Y-76322880D02*
X105722319Y-76227642D01*
X105722319Y-76227642D02*
X105769938Y-76084785D01*
X105769938Y-76084785D02*
X105817557Y-76037166D01*
X106722319Y-75037166D02*
X106246128Y-75370499D01*
X106722319Y-75608594D02*
X105722319Y-75608594D01*
X105722319Y-75608594D02*
X105722319Y-75227642D01*
X105722319Y-75227642D02*
X105769938Y-75132404D01*
X105769938Y-75132404D02*
X105817557Y-75084785D01*
X105817557Y-75084785D02*
X105912795Y-75037166D01*
X105912795Y-75037166D02*
X106055652Y-75037166D01*
X106055652Y-75037166D02*
X106150890Y-75084785D01*
X106150890Y-75084785D02*
X106198509Y-75132404D01*
X106198509Y-75132404D02*
X106246128Y-75227642D01*
X106246128Y-75227642D02*
X106246128Y-75608594D01*
X106722319Y-74084785D02*
X106722319Y-74656213D01*
X106722319Y-74370499D02*
X105722319Y-74370499D01*
X105722319Y-74370499D02*
X105865176Y-74465737D01*
X105865176Y-74465737D02*
X105960414Y-74560975D01*
X105960414Y-74560975D02*
X106008033Y-74656213D01*
X106864819Y-77669999D02*
X107102914Y-77669999D01*
X107007676Y-77908094D02*
X107102914Y-77669999D01*
X107102914Y-77669999D02*
X107007676Y-77431904D01*
X107293390Y-77812856D02*
X107102914Y-77669999D01*
X107102914Y-77669999D02*
X107293390Y-77527142D01*
X130704819Y-59775594D02*
X129704819Y-59775594D01*
X129704819Y-59775594D02*
X129704819Y-59537499D01*
X129704819Y-59537499D02*
X129752438Y-59394642D01*
X129752438Y-59394642D02*
X129847676Y-59299404D01*
X129847676Y-59299404D02*
X129942914Y-59251785D01*
X129942914Y-59251785D02*
X130133390Y-59204166D01*
X130133390Y-59204166D02*
X130276247Y-59204166D01*
X130276247Y-59204166D02*
X130466723Y-59251785D01*
X130466723Y-59251785D02*
X130561961Y-59299404D01*
X130561961Y-59299404D02*
X130657200Y-59394642D01*
X130657200Y-59394642D02*
X130704819Y-59537499D01*
X130704819Y-59537499D02*
X130704819Y-59775594D01*
X129800057Y-58823213D02*
X129752438Y-58775594D01*
X129752438Y-58775594D02*
X129704819Y-58680356D01*
X129704819Y-58680356D02*
X129704819Y-58442261D01*
X129704819Y-58442261D02*
X129752438Y-58347023D01*
X129752438Y-58347023D02*
X129800057Y-58299404D01*
X129800057Y-58299404D02*
X129895295Y-58251785D01*
X129895295Y-58251785D02*
X129990533Y-58251785D01*
X129990533Y-58251785D02*
X130133390Y-58299404D01*
X130133390Y-58299404D02*
X130704819Y-58870832D01*
X130704819Y-58870832D02*
X130704819Y-58251785D01*
X112258333Y-61684580D02*
X112210714Y-61732200D01*
X112210714Y-61732200D02*
X112067857Y-61779819D01*
X112067857Y-61779819D02*
X111972619Y-61779819D01*
X111972619Y-61779819D02*
X111829762Y-61732200D01*
X111829762Y-61732200D02*
X111734524Y-61636961D01*
X111734524Y-61636961D02*
X111686905Y-61541723D01*
X111686905Y-61541723D02*
X111639286Y-61351247D01*
X111639286Y-61351247D02*
X111639286Y-61208390D01*
X111639286Y-61208390D02*
X111686905Y-61017914D01*
X111686905Y-61017914D02*
X111734524Y-60922676D01*
X111734524Y-60922676D02*
X111829762Y-60827438D01*
X111829762Y-60827438D02*
X111972619Y-60779819D01*
X111972619Y-60779819D02*
X112067857Y-60779819D01*
X112067857Y-60779819D02*
X112210714Y-60827438D01*
X112210714Y-60827438D02*
X112258333Y-60875057D01*
X112734524Y-61779819D02*
X112925000Y-61779819D01*
X112925000Y-61779819D02*
X113020238Y-61732200D01*
X113020238Y-61732200D02*
X113067857Y-61684580D01*
X113067857Y-61684580D02*
X113163095Y-61541723D01*
X113163095Y-61541723D02*
X113210714Y-61351247D01*
X113210714Y-61351247D02*
X113210714Y-60970295D01*
X113210714Y-60970295D02*
X113163095Y-60875057D01*
X113163095Y-60875057D02*
X113115476Y-60827438D01*
X113115476Y-60827438D02*
X113020238Y-60779819D01*
X113020238Y-60779819D02*
X112829762Y-60779819D01*
X112829762Y-60779819D02*
X112734524Y-60827438D01*
X112734524Y-60827438D02*
X112686905Y-60875057D01*
X112686905Y-60875057D02*
X112639286Y-60970295D01*
X112639286Y-60970295D02*
X112639286Y-61208390D01*
X112639286Y-61208390D02*
X112686905Y-61303628D01*
X112686905Y-61303628D02*
X112734524Y-61351247D01*
X112734524Y-61351247D02*
X112829762Y-61398866D01*
X112829762Y-61398866D02*
X113020238Y-61398866D01*
X113020238Y-61398866D02*
X113115476Y-61351247D01*
X113115476Y-61351247D02*
X113163095Y-61303628D01*
X113163095Y-61303628D02*
X113210714Y-61208390D01*
X140508595Y-70774819D02*
X140508595Y-71584342D01*
X140508595Y-71584342D02*
X140556214Y-71679580D01*
X140556214Y-71679580D02*
X140603833Y-71727200D01*
X140603833Y-71727200D02*
X140699071Y-71774819D01*
X140699071Y-71774819D02*
X140889547Y-71774819D01*
X140889547Y-71774819D02*
X140984785Y-71727200D01*
X140984785Y-71727200D02*
X141032404Y-71679580D01*
X141032404Y-71679580D02*
X141080023Y-71584342D01*
X141080023Y-71584342D02*
X141080023Y-70774819D01*
X141460976Y-70774819D02*
X142127642Y-70774819D01*
X142127642Y-70774819D02*
X141699071Y-71774819D01*
X113359580Y-82442857D02*
X113407200Y-82490476D01*
X113407200Y-82490476D02*
X113454819Y-82633333D01*
X113454819Y-82633333D02*
X113454819Y-82728571D01*
X113454819Y-82728571D02*
X113407200Y-82871428D01*
X113407200Y-82871428D02*
X113311961Y-82966666D01*
X113311961Y-82966666D02*
X113216723Y-83014285D01*
X113216723Y-83014285D02*
X113026247Y-83061904D01*
X113026247Y-83061904D02*
X112883390Y-83061904D01*
X112883390Y-83061904D02*
X112692914Y-83014285D01*
X112692914Y-83014285D02*
X112597676Y-82966666D01*
X112597676Y-82966666D02*
X112502438Y-82871428D01*
X112502438Y-82871428D02*
X112454819Y-82728571D01*
X112454819Y-82728571D02*
X112454819Y-82633333D01*
X112454819Y-82633333D02*
X112502438Y-82490476D01*
X112502438Y-82490476D02*
X112550057Y-82442857D01*
X113454819Y-81490476D02*
X113454819Y-82061904D01*
X113454819Y-81776190D02*
X112454819Y-81776190D01*
X112454819Y-81776190D02*
X112597676Y-81871428D01*
X112597676Y-81871428D02*
X112692914Y-81966666D01*
X112692914Y-81966666D02*
X112740533Y-82061904D01*
X112550057Y-81109523D02*
X112502438Y-81061904D01*
X112502438Y-81061904D02*
X112454819Y-80966666D01*
X112454819Y-80966666D02*
X112454819Y-80728571D01*
X112454819Y-80728571D02*
X112502438Y-80633333D01*
X112502438Y-80633333D02*
X112550057Y-80585714D01*
X112550057Y-80585714D02*
X112645295Y-80538095D01*
X112645295Y-80538095D02*
X112740533Y-80538095D01*
X112740533Y-80538095D02*
X112883390Y-80585714D01*
X112883390Y-80585714D02*
X113454819Y-81157142D01*
X113454819Y-81157142D02*
X113454819Y-80538095D01*
D11*
X121924318Y-80201762D02*
X120654318Y-80201762D01*
X121803365Y-78871285D02*
X121863842Y-78931761D01*
X121863842Y-78931761D02*
X121924318Y-79113190D01*
X121924318Y-79113190D02*
X121924318Y-79234142D01*
X121924318Y-79234142D02*
X121863842Y-79415571D01*
X121863842Y-79415571D02*
X121742889Y-79536523D01*
X121742889Y-79536523D02*
X121621937Y-79597000D01*
X121621937Y-79597000D02*
X121380032Y-79657476D01*
X121380032Y-79657476D02*
X121198603Y-79657476D01*
X121198603Y-79657476D02*
X120956699Y-79597000D01*
X120956699Y-79597000D02*
X120835746Y-79536523D01*
X120835746Y-79536523D02*
X120714794Y-79415571D01*
X120714794Y-79415571D02*
X120654318Y-79234142D01*
X120654318Y-79234142D02*
X120654318Y-79113190D01*
X120654318Y-79113190D02*
X120714794Y-78931761D01*
X120714794Y-78931761D02*
X120775270Y-78871285D01*
X121924318Y-77661761D02*
X121924318Y-78387476D01*
X121924318Y-78024619D02*
X120654318Y-78024619D01*
X120654318Y-78024619D02*
X120835746Y-78145571D01*
X120835746Y-78145571D02*
X120956699Y-78266523D01*
X120956699Y-78266523D02*
X121017175Y-78387476D01*
D10*
X97833333Y-67284819D02*
X97357143Y-67284819D01*
X97357143Y-67284819D02*
X97357143Y-66284819D01*
X98690476Y-67284819D02*
X98119048Y-67284819D01*
X98404762Y-67284819D02*
X98404762Y-66284819D01*
X98404762Y-66284819D02*
X98309524Y-66427676D01*
X98309524Y-66427676D02*
X98214286Y-66522914D01*
X98214286Y-66522914D02*
X98119048Y-66570533D01*
X102325180Y-63324000D02*
X102087085Y-63324000D01*
X102182323Y-63085905D02*
X102087085Y-63324000D01*
X102087085Y-63324000D02*
X102182323Y-63562095D01*
X101896609Y-63181143D02*
X102087085Y-63324000D01*
X102087085Y-63324000D02*
X101896609Y-63466857D01*
X101234819Y-63323999D02*
X101472914Y-63323999D01*
X101377676Y-63562094D02*
X101472914Y-63323999D01*
X101472914Y-63323999D02*
X101377676Y-63085904D01*
X101663390Y-63466856D02*
X101472914Y-63323999D01*
X101472914Y-63323999D02*
X101663390Y-63181142D01*
X107359580Y-89191666D02*
X107407200Y-89239285D01*
X107407200Y-89239285D02*
X107454819Y-89382142D01*
X107454819Y-89382142D02*
X107454819Y-89477380D01*
X107454819Y-89477380D02*
X107407200Y-89620237D01*
X107407200Y-89620237D02*
X107311961Y-89715475D01*
X107311961Y-89715475D02*
X107216723Y-89763094D01*
X107216723Y-89763094D02*
X107026247Y-89810713D01*
X107026247Y-89810713D02*
X106883390Y-89810713D01*
X106883390Y-89810713D02*
X106692914Y-89763094D01*
X106692914Y-89763094D02*
X106597676Y-89715475D01*
X106597676Y-89715475D02*
X106502438Y-89620237D01*
X106502438Y-89620237D02*
X106454819Y-89477380D01*
X106454819Y-89477380D02*
X106454819Y-89382142D01*
X106454819Y-89382142D02*
X106502438Y-89239285D01*
X106502438Y-89239285D02*
X106550057Y-89191666D01*
X106454819Y-88286904D02*
X106454819Y-88763094D01*
X106454819Y-88763094D02*
X106931009Y-88810713D01*
X106931009Y-88810713D02*
X106883390Y-88763094D01*
X106883390Y-88763094D02*
X106835771Y-88667856D01*
X106835771Y-88667856D02*
X106835771Y-88429761D01*
X106835771Y-88429761D02*
X106883390Y-88334523D01*
X106883390Y-88334523D02*
X106931009Y-88286904D01*
X106931009Y-88286904D02*
X107026247Y-88239285D01*
X107026247Y-88239285D02*
X107264342Y-88239285D01*
X107264342Y-88239285D02*
X107359580Y-88286904D01*
X107359580Y-88286904D02*
X107407200Y-88334523D01*
X107407200Y-88334523D02*
X107454819Y-88429761D01*
X107454819Y-88429761D02*
X107454819Y-88667856D01*
X107454819Y-88667856D02*
X107407200Y-88763094D01*
X107407200Y-88763094D02*
X107359580Y-88810713D01*
X114823333Y-66399580D02*
X114775714Y-66447200D01*
X114775714Y-66447200D02*
X114632857Y-66494819D01*
X114632857Y-66494819D02*
X114537619Y-66494819D01*
X114537619Y-66494819D02*
X114394762Y-66447200D01*
X114394762Y-66447200D02*
X114299524Y-66351961D01*
X114299524Y-66351961D02*
X114251905Y-66256723D01*
X114251905Y-66256723D02*
X114204286Y-66066247D01*
X114204286Y-66066247D02*
X114204286Y-65923390D01*
X114204286Y-65923390D02*
X114251905Y-65732914D01*
X114251905Y-65732914D02*
X114299524Y-65637676D01*
X114299524Y-65637676D02*
X114394762Y-65542438D01*
X114394762Y-65542438D02*
X114537619Y-65494819D01*
X114537619Y-65494819D02*
X114632857Y-65494819D01*
X114632857Y-65494819D02*
X114775714Y-65542438D01*
X114775714Y-65542438D02*
X114823333Y-65590057D01*
X115394762Y-65923390D02*
X115299524Y-65875771D01*
X115299524Y-65875771D02*
X115251905Y-65828152D01*
X115251905Y-65828152D02*
X115204286Y-65732914D01*
X115204286Y-65732914D02*
X115204286Y-65685295D01*
X115204286Y-65685295D02*
X115251905Y-65590057D01*
X115251905Y-65590057D02*
X115299524Y-65542438D01*
X115299524Y-65542438D02*
X115394762Y-65494819D01*
X115394762Y-65494819D02*
X115585238Y-65494819D01*
X115585238Y-65494819D02*
X115680476Y-65542438D01*
X115680476Y-65542438D02*
X115728095Y-65590057D01*
X115728095Y-65590057D02*
X115775714Y-65685295D01*
X115775714Y-65685295D02*
X115775714Y-65732914D01*
X115775714Y-65732914D02*
X115728095Y-65828152D01*
X115728095Y-65828152D02*
X115680476Y-65875771D01*
X115680476Y-65875771D02*
X115585238Y-65923390D01*
X115585238Y-65923390D02*
X115394762Y-65923390D01*
X115394762Y-65923390D02*
X115299524Y-65971009D01*
X115299524Y-65971009D02*
X115251905Y-66018628D01*
X115251905Y-66018628D02*
X115204286Y-66113866D01*
X115204286Y-66113866D02*
X115204286Y-66304342D01*
X115204286Y-66304342D02*
X115251905Y-66399580D01*
X115251905Y-66399580D02*
X115299524Y-66447200D01*
X115299524Y-66447200D02*
X115394762Y-66494819D01*
X115394762Y-66494819D02*
X115585238Y-66494819D01*
X115585238Y-66494819D02*
X115680476Y-66447200D01*
X115680476Y-66447200D02*
X115728095Y-66399580D01*
X115728095Y-66399580D02*
X115775714Y-66304342D01*
X115775714Y-66304342D02*
X115775714Y-66113866D01*
X115775714Y-66113866D02*
X115728095Y-66018628D01*
X115728095Y-66018628D02*
X115680476Y-65971009D01*
X115680476Y-65971009D02*
X115585238Y-65923390D01*
X101359580Y-93766666D02*
X101407200Y-93814285D01*
X101407200Y-93814285D02*
X101454819Y-93957142D01*
X101454819Y-93957142D02*
X101454819Y-94052380D01*
X101454819Y-94052380D02*
X101407200Y-94195237D01*
X101407200Y-94195237D02*
X101311961Y-94290475D01*
X101311961Y-94290475D02*
X101216723Y-94338094D01*
X101216723Y-94338094D02*
X101026247Y-94385713D01*
X101026247Y-94385713D02*
X100883390Y-94385713D01*
X100883390Y-94385713D02*
X100692914Y-94338094D01*
X100692914Y-94338094D02*
X100597676Y-94290475D01*
X100597676Y-94290475D02*
X100502438Y-94195237D01*
X100502438Y-94195237D02*
X100454819Y-94052380D01*
X100454819Y-94052380D02*
X100454819Y-93957142D01*
X100454819Y-93957142D02*
X100502438Y-93814285D01*
X100502438Y-93814285D02*
X100550057Y-93766666D01*
X100550057Y-93385713D02*
X100502438Y-93338094D01*
X100502438Y-93338094D02*
X100454819Y-93242856D01*
X100454819Y-93242856D02*
X100454819Y-93004761D01*
X100454819Y-93004761D02*
X100502438Y-92909523D01*
X100502438Y-92909523D02*
X100550057Y-92861904D01*
X100550057Y-92861904D02*
X100645295Y-92814285D01*
X100645295Y-92814285D02*
X100740533Y-92814285D01*
X100740533Y-92814285D02*
X100883390Y-92861904D01*
X100883390Y-92861904D02*
X101454819Y-93433332D01*
X101454819Y-93433332D02*
X101454819Y-92814285D01*
X124957142Y-55084580D02*
X124909523Y-55132200D01*
X124909523Y-55132200D02*
X124766666Y-55179819D01*
X124766666Y-55179819D02*
X124671428Y-55179819D01*
X124671428Y-55179819D02*
X124528571Y-55132200D01*
X124528571Y-55132200D02*
X124433333Y-55036961D01*
X124433333Y-55036961D02*
X124385714Y-54941723D01*
X124385714Y-54941723D02*
X124338095Y-54751247D01*
X124338095Y-54751247D02*
X124338095Y-54608390D01*
X124338095Y-54608390D02*
X124385714Y-54417914D01*
X124385714Y-54417914D02*
X124433333Y-54322676D01*
X124433333Y-54322676D02*
X124528571Y-54227438D01*
X124528571Y-54227438D02*
X124671428Y-54179819D01*
X124671428Y-54179819D02*
X124766666Y-54179819D01*
X124766666Y-54179819D02*
X124909523Y-54227438D01*
X124909523Y-54227438D02*
X124957142Y-54275057D01*
X125909523Y-55179819D02*
X125338095Y-55179819D01*
X125623809Y-55179819D02*
X125623809Y-54179819D01*
X125623809Y-54179819D02*
X125528571Y-54322676D01*
X125528571Y-54322676D02*
X125433333Y-54417914D01*
X125433333Y-54417914D02*
X125338095Y-54465533D01*
X126528571Y-54179819D02*
X126623809Y-54179819D01*
X126623809Y-54179819D02*
X126719047Y-54227438D01*
X126719047Y-54227438D02*
X126766666Y-54275057D01*
X126766666Y-54275057D02*
X126814285Y-54370295D01*
X126814285Y-54370295D02*
X126861904Y-54560771D01*
X126861904Y-54560771D02*
X126861904Y-54798866D01*
X126861904Y-54798866D02*
X126814285Y-54989342D01*
X126814285Y-54989342D02*
X126766666Y-55084580D01*
X126766666Y-55084580D02*
X126719047Y-55132200D01*
X126719047Y-55132200D02*
X126623809Y-55179819D01*
X126623809Y-55179819D02*
X126528571Y-55179819D01*
X126528571Y-55179819D02*
X126433333Y-55132200D01*
X126433333Y-55132200D02*
X126385714Y-55084580D01*
X126385714Y-55084580D02*
X126338095Y-54989342D01*
X126338095Y-54989342D02*
X126290476Y-54798866D01*
X126290476Y-54798866D02*
X126290476Y-54560771D01*
X126290476Y-54560771D02*
X126338095Y-54370295D01*
X126338095Y-54370295D02*
X126385714Y-54275057D01*
X126385714Y-54275057D02*
X126433333Y-54227438D01*
X126433333Y-54227438D02*
X126528571Y-54179819D01*
X137157142Y-66859580D02*
X137109523Y-66907200D01*
X137109523Y-66907200D02*
X136966666Y-66954819D01*
X136966666Y-66954819D02*
X136871428Y-66954819D01*
X136871428Y-66954819D02*
X136728571Y-66907200D01*
X136728571Y-66907200D02*
X136633333Y-66811961D01*
X136633333Y-66811961D02*
X136585714Y-66716723D01*
X136585714Y-66716723D02*
X136538095Y-66526247D01*
X136538095Y-66526247D02*
X136538095Y-66383390D01*
X136538095Y-66383390D02*
X136585714Y-66192914D01*
X136585714Y-66192914D02*
X136633333Y-66097676D01*
X136633333Y-66097676D02*
X136728571Y-66002438D01*
X136728571Y-66002438D02*
X136871428Y-65954819D01*
X136871428Y-65954819D02*
X136966666Y-65954819D01*
X136966666Y-65954819D02*
X137109523Y-66002438D01*
X137109523Y-66002438D02*
X137157142Y-66050057D01*
X137538095Y-66050057D02*
X137585714Y-66002438D01*
X137585714Y-66002438D02*
X137680952Y-65954819D01*
X137680952Y-65954819D02*
X137919047Y-65954819D01*
X137919047Y-65954819D02*
X138014285Y-66002438D01*
X138014285Y-66002438D02*
X138061904Y-66050057D01*
X138061904Y-66050057D02*
X138109523Y-66145295D01*
X138109523Y-66145295D02*
X138109523Y-66240533D01*
X138109523Y-66240533D02*
X138061904Y-66383390D01*
X138061904Y-66383390D02*
X137490476Y-66954819D01*
X137490476Y-66954819D02*
X138109523Y-66954819D01*
X138442857Y-65954819D02*
X139061904Y-65954819D01*
X139061904Y-65954819D02*
X138728571Y-66335771D01*
X138728571Y-66335771D02*
X138871428Y-66335771D01*
X138871428Y-66335771D02*
X138966666Y-66383390D01*
X138966666Y-66383390D02*
X139014285Y-66431009D01*
X139014285Y-66431009D02*
X139061904Y-66526247D01*
X139061904Y-66526247D02*
X139061904Y-66764342D01*
X139061904Y-66764342D02*
X139014285Y-66859580D01*
X139014285Y-66859580D02*
X138966666Y-66907200D01*
X138966666Y-66907200D02*
X138871428Y-66954819D01*
X138871428Y-66954819D02*
X138585714Y-66954819D01*
X138585714Y-66954819D02*
X138490476Y-66907200D01*
X138490476Y-66907200D02*
X138442857Y-66859580D01*
X131309142Y-81254819D02*
X130975809Y-80778628D01*
X130737714Y-81254819D02*
X130737714Y-80254819D01*
X130737714Y-80254819D02*
X131118666Y-80254819D01*
X131118666Y-80254819D02*
X131213904Y-80302438D01*
X131213904Y-80302438D02*
X131261523Y-80350057D01*
X131261523Y-80350057D02*
X131309142Y-80445295D01*
X131309142Y-80445295D02*
X131309142Y-80588152D01*
X131309142Y-80588152D02*
X131261523Y-80683390D01*
X131261523Y-80683390D02*
X131213904Y-80731009D01*
X131213904Y-80731009D02*
X131118666Y-80778628D01*
X131118666Y-80778628D02*
X130737714Y-80778628D01*
X131690095Y-80350057D02*
X131737714Y-80302438D01*
X131737714Y-80302438D02*
X131832952Y-80254819D01*
X131832952Y-80254819D02*
X132071047Y-80254819D01*
X132071047Y-80254819D02*
X132166285Y-80302438D01*
X132166285Y-80302438D02*
X132213904Y-80350057D01*
X132213904Y-80350057D02*
X132261523Y-80445295D01*
X132261523Y-80445295D02*
X132261523Y-80540533D01*
X132261523Y-80540533D02*
X132213904Y-80683390D01*
X132213904Y-80683390D02*
X131642476Y-81254819D01*
X131642476Y-81254819D02*
X132261523Y-81254819D01*
X132642476Y-80350057D02*
X132690095Y-80302438D01*
X132690095Y-80302438D02*
X132785333Y-80254819D01*
X132785333Y-80254819D02*
X133023428Y-80254819D01*
X133023428Y-80254819D02*
X133118666Y-80302438D01*
X133118666Y-80302438D02*
X133166285Y-80350057D01*
X133166285Y-80350057D02*
X133213904Y-80445295D01*
X133213904Y-80445295D02*
X133213904Y-80540533D01*
X133213904Y-80540533D02*
X133166285Y-80683390D01*
X133166285Y-80683390D02*
X132594857Y-81254819D01*
X132594857Y-81254819D02*
X133213904Y-81254819D01*
X131157142Y-71259580D02*
X131109523Y-71307200D01*
X131109523Y-71307200D02*
X130966666Y-71354819D01*
X130966666Y-71354819D02*
X130871428Y-71354819D01*
X130871428Y-71354819D02*
X130728571Y-71307200D01*
X130728571Y-71307200D02*
X130633333Y-71211961D01*
X130633333Y-71211961D02*
X130585714Y-71116723D01*
X130585714Y-71116723D02*
X130538095Y-70926247D01*
X130538095Y-70926247D02*
X130538095Y-70783390D01*
X130538095Y-70783390D02*
X130585714Y-70592914D01*
X130585714Y-70592914D02*
X130633333Y-70497676D01*
X130633333Y-70497676D02*
X130728571Y-70402438D01*
X130728571Y-70402438D02*
X130871428Y-70354819D01*
X130871428Y-70354819D02*
X130966666Y-70354819D01*
X130966666Y-70354819D02*
X131109523Y-70402438D01*
X131109523Y-70402438D02*
X131157142Y-70450057D01*
X131538095Y-70450057D02*
X131585714Y-70402438D01*
X131585714Y-70402438D02*
X131680952Y-70354819D01*
X131680952Y-70354819D02*
X131919047Y-70354819D01*
X131919047Y-70354819D02*
X132014285Y-70402438D01*
X132014285Y-70402438D02*
X132061904Y-70450057D01*
X132061904Y-70450057D02*
X132109523Y-70545295D01*
X132109523Y-70545295D02*
X132109523Y-70640533D01*
X132109523Y-70640533D02*
X132061904Y-70783390D01*
X132061904Y-70783390D02*
X131490476Y-71354819D01*
X131490476Y-71354819D02*
X132109523Y-71354819D01*
X132966666Y-70688152D02*
X132966666Y-71354819D01*
X132728571Y-70307200D02*
X132490476Y-71021485D01*
X132490476Y-71021485D02*
X133109523Y-71021485D01*
X134654819Y-86242857D02*
X134178628Y-86576190D01*
X134654819Y-86814285D02*
X133654819Y-86814285D01*
X133654819Y-86814285D02*
X133654819Y-86433333D01*
X133654819Y-86433333D02*
X133702438Y-86338095D01*
X133702438Y-86338095D02*
X133750057Y-86290476D01*
X133750057Y-86290476D02*
X133845295Y-86242857D01*
X133845295Y-86242857D02*
X133988152Y-86242857D01*
X133988152Y-86242857D02*
X134083390Y-86290476D01*
X134083390Y-86290476D02*
X134131009Y-86338095D01*
X134131009Y-86338095D02*
X134178628Y-86433333D01*
X134178628Y-86433333D02*
X134178628Y-86814285D01*
X133750057Y-85861904D02*
X133702438Y-85814285D01*
X133702438Y-85814285D02*
X133654819Y-85719047D01*
X133654819Y-85719047D02*
X133654819Y-85480952D01*
X133654819Y-85480952D02*
X133702438Y-85385714D01*
X133702438Y-85385714D02*
X133750057Y-85338095D01*
X133750057Y-85338095D02*
X133845295Y-85290476D01*
X133845295Y-85290476D02*
X133940533Y-85290476D01*
X133940533Y-85290476D02*
X134083390Y-85338095D01*
X134083390Y-85338095D02*
X134654819Y-85909523D01*
X134654819Y-85909523D02*
X134654819Y-85290476D01*
X134654819Y-84338095D02*
X134654819Y-84909523D01*
X134654819Y-84623809D02*
X133654819Y-84623809D01*
X133654819Y-84623809D02*
X133797676Y-84719047D01*
X133797676Y-84719047D02*
X133892914Y-84814285D01*
X133892914Y-84814285D02*
X133940533Y-84909523D01*
D12*
X98114895Y-81266666D02*
X98686323Y-81266666D01*
X98686323Y-81266666D02*
X98800609Y-81304761D01*
X98800609Y-81304761D02*
X98876800Y-81380952D01*
X98876800Y-81380952D02*
X98914895Y-81495237D01*
X98914895Y-81495237D02*
X98914895Y-81571428D01*
X98914895Y-80466666D02*
X98914895Y-80923809D01*
X98914895Y-80695237D02*
X98114895Y-80695237D01*
X98114895Y-80695237D02*
X98229180Y-80771428D01*
X98229180Y-80771428D02*
X98305371Y-80847618D01*
X98305371Y-80847618D02*
X98343466Y-80923809D01*
D10*
X130655819Y-62579667D02*
X130179628Y-62913000D01*
X130655819Y-63151095D02*
X129655819Y-63151095D01*
X129655819Y-63151095D02*
X129655819Y-62770143D01*
X129655819Y-62770143D02*
X129703438Y-62674905D01*
X129703438Y-62674905D02*
X129751057Y-62627286D01*
X129751057Y-62627286D02*
X129846295Y-62579667D01*
X129846295Y-62579667D02*
X129989152Y-62579667D01*
X129989152Y-62579667D02*
X130084390Y-62627286D01*
X130084390Y-62627286D02*
X130132009Y-62674905D01*
X130132009Y-62674905D02*
X130179628Y-62770143D01*
X130179628Y-62770143D02*
X130179628Y-63151095D01*
X129655819Y-61674905D02*
X129655819Y-62151095D01*
X129655819Y-62151095D02*
X130132009Y-62198714D01*
X130132009Y-62198714D02*
X130084390Y-62151095D01*
X130084390Y-62151095D02*
X130036771Y-62055857D01*
X130036771Y-62055857D02*
X130036771Y-61817762D01*
X130036771Y-61817762D02*
X130084390Y-61722524D01*
X130084390Y-61722524D02*
X130132009Y-61674905D01*
X130132009Y-61674905D02*
X130227247Y-61627286D01*
X130227247Y-61627286D02*
X130465342Y-61627286D01*
X130465342Y-61627286D02*
X130560580Y-61674905D01*
X130560580Y-61674905D02*
X130608200Y-61722524D01*
X130608200Y-61722524D02*
X130655819Y-61817762D01*
X130655819Y-61817762D02*
X130655819Y-62055857D01*
X130655819Y-62055857D02*
X130608200Y-62151095D01*
X130608200Y-62151095D02*
X130560580Y-62198714D01*
X127942801Y-92113093D02*
X127895181Y-92255950D01*
X127895181Y-92255950D02*
X127895181Y-92494045D01*
X127895181Y-92494045D02*
X127942801Y-92589283D01*
X127942801Y-92589283D02*
X127990420Y-92636902D01*
X127990420Y-92636902D02*
X128085658Y-92684521D01*
X128085658Y-92684521D02*
X128180896Y-92684521D01*
X128180896Y-92684521D02*
X128276134Y-92636902D01*
X128276134Y-92636902D02*
X128323753Y-92589283D01*
X128323753Y-92589283D02*
X128371372Y-92494045D01*
X128371372Y-92494045D02*
X128418991Y-92303569D01*
X128418991Y-92303569D02*
X128466610Y-92208331D01*
X128466610Y-92208331D02*
X128514229Y-92160712D01*
X128514229Y-92160712D02*
X128609467Y-92113093D01*
X128609467Y-92113093D02*
X128704705Y-92113093D01*
X128704705Y-92113093D02*
X128799943Y-92160712D01*
X128799943Y-92160712D02*
X128847562Y-92208331D01*
X128847562Y-92208331D02*
X128895181Y-92303569D01*
X128895181Y-92303569D02*
X128895181Y-92541664D01*
X128895181Y-92541664D02*
X128847562Y-92684521D01*
X127895181Y-93636902D02*
X127895181Y-93065474D01*
X127895181Y-93351188D02*
X128895181Y-93351188D01*
X128895181Y-93351188D02*
X128752324Y-93255950D01*
X128752324Y-93255950D02*
X128657086Y-93160712D01*
X128657086Y-93160712D02*
X128609467Y-93065474D01*
X113554819Y-79042857D02*
X113078628Y-79376190D01*
X113554819Y-79614285D02*
X112554819Y-79614285D01*
X112554819Y-79614285D02*
X112554819Y-79233333D01*
X112554819Y-79233333D02*
X112602438Y-79138095D01*
X112602438Y-79138095D02*
X112650057Y-79090476D01*
X112650057Y-79090476D02*
X112745295Y-79042857D01*
X112745295Y-79042857D02*
X112888152Y-79042857D01*
X112888152Y-79042857D02*
X112983390Y-79090476D01*
X112983390Y-79090476D02*
X113031009Y-79138095D01*
X113031009Y-79138095D02*
X113078628Y-79233333D01*
X113078628Y-79233333D02*
X113078628Y-79614285D01*
X113554819Y-78090476D02*
X113554819Y-78661904D01*
X113554819Y-78376190D02*
X112554819Y-78376190D01*
X112554819Y-78376190D02*
X112697676Y-78471428D01*
X112697676Y-78471428D02*
X112792914Y-78566666D01*
X112792914Y-78566666D02*
X112840533Y-78661904D01*
X113554819Y-77614285D02*
X113554819Y-77423809D01*
X113554819Y-77423809D02*
X113507200Y-77328571D01*
X113507200Y-77328571D02*
X113459580Y-77280952D01*
X113459580Y-77280952D02*
X113316723Y-77185714D01*
X113316723Y-77185714D02*
X113126247Y-77138095D01*
X113126247Y-77138095D02*
X112745295Y-77138095D01*
X112745295Y-77138095D02*
X112650057Y-77185714D01*
X112650057Y-77185714D02*
X112602438Y-77233333D01*
X112602438Y-77233333D02*
X112554819Y-77328571D01*
X112554819Y-77328571D02*
X112554819Y-77519047D01*
X112554819Y-77519047D02*
X112602438Y-77614285D01*
X112602438Y-77614285D02*
X112650057Y-77661904D01*
X112650057Y-77661904D02*
X112745295Y-77709523D01*
X112745295Y-77709523D02*
X112983390Y-77709523D01*
X112983390Y-77709523D02*
X113078628Y-77661904D01*
X113078628Y-77661904D02*
X113126247Y-77614285D01*
X113126247Y-77614285D02*
X113173866Y-77519047D01*
X113173866Y-77519047D02*
X113173866Y-77328571D01*
X113173866Y-77328571D02*
X113126247Y-77233333D01*
X113126247Y-77233333D02*
X113078628Y-77185714D01*
X113078628Y-77185714D02*
X112983390Y-77138095D01*
X123306666Y-71024819D02*
X123306666Y-71739104D01*
X123306666Y-71739104D02*
X123259047Y-71881961D01*
X123259047Y-71881961D02*
X123163809Y-71977200D01*
X123163809Y-71977200D02*
X123020952Y-72024819D01*
X123020952Y-72024819D02*
X122925714Y-72024819D01*
X123735238Y-71120057D02*
X123782857Y-71072438D01*
X123782857Y-71072438D02*
X123878095Y-71024819D01*
X123878095Y-71024819D02*
X124116190Y-71024819D01*
X124116190Y-71024819D02*
X124211428Y-71072438D01*
X124211428Y-71072438D02*
X124259047Y-71120057D01*
X124259047Y-71120057D02*
X124306666Y-71215295D01*
X124306666Y-71215295D02*
X124306666Y-71310533D01*
X124306666Y-71310533D02*
X124259047Y-71453390D01*
X124259047Y-71453390D02*
X123687619Y-72024819D01*
X123687619Y-72024819D02*
X124306666Y-72024819D01*
X115916628Y-88151191D02*
X116392819Y-88151191D01*
X115392819Y-88484524D02*
X115916628Y-88151191D01*
X115916628Y-88151191D02*
X115392819Y-87817858D01*
X116392819Y-86960715D02*
X116392819Y-87532143D01*
X116392819Y-87246429D02*
X115392819Y-87246429D01*
X115392819Y-87246429D02*
X115535676Y-87341667D01*
X115535676Y-87341667D02*
X115630914Y-87436905D01*
X115630914Y-87436905D02*
X115678533Y-87532143D01*
X104703095Y-89524819D02*
X104703095Y-90334342D01*
X104703095Y-90334342D02*
X104750714Y-90429580D01*
X104750714Y-90429580D02*
X104798333Y-90477200D01*
X104798333Y-90477200D02*
X104893571Y-90524819D01*
X104893571Y-90524819D02*
X105084047Y-90524819D01*
X105084047Y-90524819D02*
X105179285Y-90477200D01*
X105179285Y-90477200D02*
X105226904Y-90429580D01*
X105226904Y-90429580D02*
X105274523Y-90334342D01*
X105274523Y-90334342D02*
X105274523Y-89524819D01*
X105703095Y-89620057D02*
X105750714Y-89572438D01*
X105750714Y-89572438D02*
X105845952Y-89524819D01*
X105845952Y-89524819D02*
X106084047Y-89524819D01*
X106084047Y-89524819D02*
X106179285Y-89572438D01*
X106179285Y-89572438D02*
X106226904Y-89620057D01*
X106226904Y-89620057D02*
X106274523Y-89715295D01*
X106274523Y-89715295D02*
X106274523Y-89810533D01*
X106274523Y-89810533D02*
X106226904Y-89953390D01*
X106226904Y-89953390D02*
X105655476Y-90524819D01*
X105655476Y-90524819D02*
X106274523Y-90524819D01*
X112744819Y-69332857D02*
X112268628Y-69666190D01*
X112744819Y-69904285D02*
X111744819Y-69904285D01*
X111744819Y-69904285D02*
X111744819Y-69523333D01*
X111744819Y-69523333D02*
X111792438Y-69428095D01*
X111792438Y-69428095D02*
X111840057Y-69380476D01*
X111840057Y-69380476D02*
X111935295Y-69332857D01*
X111935295Y-69332857D02*
X112078152Y-69332857D01*
X112078152Y-69332857D02*
X112173390Y-69380476D01*
X112173390Y-69380476D02*
X112221009Y-69428095D01*
X112221009Y-69428095D02*
X112268628Y-69523333D01*
X112268628Y-69523333D02*
X112268628Y-69904285D01*
X112744819Y-68380476D02*
X112744819Y-68951904D01*
X112744819Y-68666190D02*
X111744819Y-68666190D01*
X111744819Y-68666190D02*
X111887676Y-68761428D01*
X111887676Y-68761428D02*
X111982914Y-68856666D01*
X111982914Y-68856666D02*
X112030533Y-68951904D01*
X112173390Y-67809047D02*
X112125771Y-67904285D01*
X112125771Y-67904285D02*
X112078152Y-67951904D01*
X112078152Y-67951904D02*
X111982914Y-67999523D01*
X111982914Y-67999523D02*
X111935295Y-67999523D01*
X111935295Y-67999523D02*
X111840057Y-67951904D01*
X111840057Y-67951904D02*
X111792438Y-67904285D01*
X111792438Y-67904285D02*
X111744819Y-67809047D01*
X111744819Y-67809047D02*
X111744819Y-67618571D01*
X111744819Y-67618571D02*
X111792438Y-67523333D01*
X111792438Y-67523333D02*
X111840057Y-67475714D01*
X111840057Y-67475714D02*
X111935295Y-67428095D01*
X111935295Y-67428095D02*
X111982914Y-67428095D01*
X111982914Y-67428095D02*
X112078152Y-67475714D01*
X112078152Y-67475714D02*
X112125771Y-67523333D01*
X112125771Y-67523333D02*
X112173390Y-67618571D01*
X112173390Y-67618571D02*
X112173390Y-67809047D01*
X112173390Y-67809047D02*
X112221009Y-67904285D01*
X112221009Y-67904285D02*
X112268628Y-67951904D01*
X112268628Y-67951904D02*
X112363866Y-67999523D01*
X112363866Y-67999523D02*
X112554342Y-67999523D01*
X112554342Y-67999523D02*
X112649580Y-67951904D01*
X112649580Y-67951904D02*
X112697200Y-67904285D01*
X112697200Y-67904285D02*
X112744819Y-67809047D01*
X112744819Y-67809047D02*
X112744819Y-67618571D01*
X112744819Y-67618571D02*
X112697200Y-67523333D01*
X112697200Y-67523333D02*
X112649580Y-67475714D01*
X112649580Y-67475714D02*
X112554342Y-67428095D01*
X112554342Y-67428095D02*
X112363866Y-67428095D01*
X112363866Y-67428095D02*
X112268628Y-67475714D01*
X112268628Y-67475714D02*
X112221009Y-67523333D01*
X112221009Y-67523333D02*
X112173390Y-67618571D01*
X147277142Y-72084819D02*
X146943809Y-71608628D01*
X146705714Y-72084819D02*
X146705714Y-71084819D01*
X146705714Y-71084819D02*
X147086666Y-71084819D01*
X147086666Y-71084819D02*
X147181904Y-71132438D01*
X147181904Y-71132438D02*
X147229523Y-71180057D01*
X147229523Y-71180057D02*
X147277142Y-71275295D01*
X147277142Y-71275295D02*
X147277142Y-71418152D01*
X147277142Y-71418152D02*
X147229523Y-71513390D01*
X147229523Y-71513390D02*
X147181904Y-71561009D01*
X147181904Y-71561009D02*
X147086666Y-71608628D01*
X147086666Y-71608628D02*
X146705714Y-71608628D01*
X147658095Y-71180057D02*
X147705714Y-71132438D01*
X147705714Y-71132438D02*
X147800952Y-71084819D01*
X147800952Y-71084819D02*
X148039047Y-71084819D01*
X148039047Y-71084819D02*
X148134285Y-71132438D01*
X148134285Y-71132438D02*
X148181904Y-71180057D01*
X148181904Y-71180057D02*
X148229523Y-71275295D01*
X148229523Y-71275295D02*
X148229523Y-71370533D01*
X148229523Y-71370533D02*
X148181904Y-71513390D01*
X148181904Y-71513390D02*
X147610476Y-72084819D01*
X147610476Y-72084819D02*
X148229523Y-72084819D01*
X148562857Y-71084819D02*
X149229523Y-71084819D01*
X149229523Y-71084819D02*
X148800952Y-72084819D01*
X131309142Y-82654819D02*
X130975809Y-82178628D01*
X130737714Y-82654819D02*
X130737714Y-81654819D01*
X130737714Y-81654819D02*
X131118666Y-81654819D01*
X131118666Y-81654819D02*
X131213904Y-81702438D01*
X131213904Y-81702438D02*
X131261523Y-81750057D01*
X131261523Y-81750057D02*
X131309142Y-81845295D01*
X131309142Y-81845295D02*
X131309142Y-81988152D01*
X131309142Y-81988152D02*
X131261523Y-82083390D01*
X131261523Y-82083390D02*
X131213904Y-82131009D01*
X131213904Y-82131009D02*
X131118666Y-82178628D01*
X131118666Y-82178628D02*
X130737714Y-82178628D01*
X131690095Y-81750057D02*
X131737714Y-81702438D01*
X131737714Y-81702438D02*
X131832952Y-81654819D01*
X131832952Y-81654819D02*
X132071047Y-81654819D01*
X132071047Y-81654819D02*
X132166285Y-81702438D01*
X132166285Y-81702438D02*
X132213904Y-81750057D01*
X132213904Y-81750057D02*
X132261523Y-81845295D01*
X132261523Y-81845295D02*
X132261523Y-81940533D01*
X132261523Y-81940533D02*
X132213904Y-82083390D01*
X132213904Y-82083390D02*
X131642476Y-82654819D01*
X131642476Y-82654819D02*
X132261523Y-82654819D01*
X133118666Y-81988152D02*
X133118666Y-82654819D01*
X132880571Y-81607200D02*
X132642476Y-82321485D01*
X132642476Y-82321485D02*
X133261523Y-82321485D01*
X150127142Y-72014819D02*
X149793809Y-71538628D01*
X149555714Y-72014819D02*
X149555714Y-71014819D01*
X149555714Y-71014819D02*
X149936666Y-71014819D01*
X149936666Y-71014819D02*
X150031904Y-71062438D01*
X150031904Y-71062438D02*
X150079523Y-71110057D01*
X150079523Y-71110057D02*
X150127142Y-71205295D01*
X150127142Y-71205295D02*
X150127142Y-71348152D01*
X150127142Y-71348152D02*
X150079523Y-71443390D01*
X150079523Y-71443390D02*
X150031904Y-71491009D01*
X150031904Y-71491009D02*
X149936666Y-71538628D01*
X149936666Y-71538628D02*
X149555714Y-71538628D01*
X150460476Y-71014819D02*
X151079523Y-71014819D01*
X151079523Y-71014819D02*
X150746190Y-71395771D01*
X150746190Y-71395771D02*
X150889047Y-71395771D01*
X150889047Y-71395771D02*
X150984285Y-71443390D01*
X150984285Y-71443390D02*
X151031904Y-71491009D01*
X151031904Y-71491009D02*
X151079523Y-71586247D01*
X151079523Y-71586247D02*
X151079523Y-71824342D01*
X151079523Y-71824342D02*
X151031904Y-71919580D01*
X151031904Y-71919580D02*
X150984285Y-71967200D01*
X150984285Y-71967200D02*
X150889047Y-72014819D01*
X150889047Y-72014819D02*
X150603333Y-72014819D01*
X150603333Y-72014819D02*
X150508095Y-71967200D01*
X150508095Y-71967200D02*
X150460476Y-71919580D01*
X151698571Y-71014819D02*
X151793809Y-71014819D01*
X151793809Y-71014819D02*
X151889047Y-71062438D01*
X151889047Y-71062438D02*
X151936666Y-71110057D01*
X151936666Y-71110057D02*
X151984285Y-71205295D01*
X151984285Y-71205295D02*
X152031904Y-71395771D01*
X152031904Y-71395771D02*
X152031904Y-71633866D01*
X152031904Y-71633866D02*
X151984285Y-71824342D01*
X151984285Y-71824342D02*
X151936666Y-71919580D01*
X151936666Y-71919580D02*
X151889047Y-71967200D01*
X151889047Y-71967200D02*
X151793809Y-72014819D01*
X151793809Y-72014819D02*
X151698571Y-72014819D01*
X151698571Y-72014819D02*
X151603333Y-71967200D01*
X151603333Y-71967200D02*
X151555714Y-71919580D01*
X151555714Y-71919580D02*
X151508095Y-71824342D01*
X151508095Y-71824342D02*
X151460476Y-71633866D01*
X151460476Y-71633866D02*
X151460476Y-71395771D01*
X151460476Y-71395771D02*
X151508095Y-71205295D01*
X151508095Y-71205295D02*
X151555714Y-71110057D01*
X151555714Y-71110057D02*
X151603333Y-71062438D01*
X151603333Y-71062438D02*
X151698571Y-71014819D01*
X150127142Y-76674819D02*
X149793809Y-76198628D01*
X149555714Y-76674819D02*
X149555714Y-75674819D01*
X149555714Y-75674819D02*
X149936666Y-75674819D01*
X149936666Y-75674819D02*
X150031904Y-75722438D01*
X150031904Y-75722438D02*
X150079523Y-75770057D01*
X150079523Y-75770057D02*
X150127142Y-75865295D01*
X150127142Y-75865295D02*
X150127142Y-76008152D01*
X150127142Y-76008152D02*
X150079523Y-76103390D01*
X150079523Y-76103390D02*
X150031904Y-76151009D01*
X150031904Y-76151009D02*
X149936666Y-76198628D01*
X149936666Y-76198628D02*
X149555714Y-76198628D01*
X150460476Y-75674819D02*
X151079523Y-75674819D01*
X151079523Y-75674819D02*
X150746190Y-76055771D01*
X150746190Y-76055771D02*
X150889047Y-76055771D01*
X150889047Y-76055771D02*
X150984285Y-76103390D01*
X150984285Y-76103390D02*
X151031904Y-76151009D01*
X151031904Y-76151009D02*
X151079523Y-76246247D01*
X151079523Y-76246247D02*
X151079523Y-76484342D01*
X151079523Y-76484342D02*
X151031904Y-76579580D01*
X151031904Y-76579580D02*
X150984285Y-76627200D01*
X150984285Y-76627200D02*
X150889047Y-76674819D01*
X150889047Y-76674819D02*
X150603333Y-76674819D01*
X150603333Y-76674819D02*
X150508095Y-76627200D01*
X150508095Y-76627200D02*
X150460476Y-76579580D01*
X152031904Y-76674819D02*
X151460476Y-76674819D01*
X151746190Y-76674819D02*
X151746190Y-75674819D01*
X151746190Y-75674819D02*
X151650952Y-75817676D01*
X151650952Y-75817676D02*
X151555714Y-75912914D01*
X151555714Y-75912914D02*
X151460476Y-75960533D01*
X109661905Y-85154819D02*
X109661905Y-84154819D01*
X109661905Y-84154819D02*
X109900000Y-84154819D01*
X109900000Y-84154819D02*
X110042857Y-84202438D01*
X110042857Y-84202438D02*
X110138095Y-84297676D01*
X110138095Y-84297676D02*
X110185714Y-84392914D01*
X110185714Y-84392914D02*
X110233333Y-84583390D01*
X110233333Y-84583390D02*
X110233333Y-84726247D01*
X110233333Y-84726247D02*
X110185714Y-84916723D01*
X110185714Y-84916723D02*
X110138095Y-85011961D01*
X110138095Y-85011961D02*
X110042857Y-85107200D01*
X110042857Y-85107200D02*
X109900000Y-85154819D01*
X109900000Y-85154819D02*
X109661905Y-85154819D01*
X111185714Y-85154819D02*
X110614286Y-85154819D01*
X110900000Y-85154819D02*
X110900000Y-84154819D01*
X110900000Y-84154819D02*
X110804762Y-84297676D01*
X110804762Y-84297676D02*
X110709524Y-84392914D01*
X110709524Y-84392914D02*
X110614286Y-84440533D01*
X115213095Y-56254819D02*
X115213095Y-57064342D01*
X115213095Y-57064342D02*
X115260714Y-57159580D01*
X115260714Y-57159580D02*
X115308333Y-57207200D01*
X115308333Y-57207200D02*
X115403571Y-57254819D01*
X115403571Y-57254819D02*
X115594047Y-57254819D01*
X115594047Y-57254819D02*
X115689285Y-57207200D01*
X115689285Y-57207200D02*
X115736904Y-57159580D01*
X115736904Y-57159580D02*
X115784523Y-57064342D01*
X115784523Y-57064342D02*
X115784523Y-56254819D01*
X116165476Y-56254819D02*
X116784523Y-56254819D01*
X116784523Y-56254819D02*
X116451190Y-56635771D01*
X116451190Y-56635771D02*
X116594047Y-56635771D01*
X116594047Y-56635771D02*
X116689285Y-56683390D01*
X116689285Y-56683390D02*
X116736904Y-56731009D01*
X116736904Y-56731009D02*
X116784523Y-56826247D01*
X116784523Y-56826247D02*
X116784523Y-57064342D01*
X116784523Y-57064342D02*
X116736904Y-57159580D01*
X116736904Y-57159580D02*
X116689285Y-57207200D01*
X116689285Y-57207200D02*
X116594047Y-57254819D01*
X116594047Y-57254819D02*
X116308333Y-57254819D01*
X116308333Y-57254819D02*
X116213095Y-57207200D01*
X116213095Y-57207200D02*
X116165476Y-57159580D01*
X127554819Y-63067857D02*
X127078628Y-63401190D01*
X127554819Y-63639285D02*
X126554819Y-63639285D01*
X126554819Y-63639285D02*
X126554819Y-63258333D01*
X126554819Y-63258333D02*
X126602438Y-63163095D01*
X126602438Y-63163095D02*
X126650057Y-63115476D01*
X126650057Y-63115476D02*
X126745295Y-63067857D01*
X126745295Y-63067857D02*
X126888152Y-63067857D01*
X126888152Y-63067857D02*
X126983390Y-63115476D01*
X126983390Y-63115476D02*
X127031009Y-63163095D01*
X127031009Y-63163095D02*
X127078628Y-63258333D01*
X127078628Y-63258333D02*
X127078628Y-63639285D01*
X127554819Y-62115476D02*
X127554819Y-62686904D01*
X127554819Y-62401190D02*
X126554819Y-62401190D01*
X126554819Y-62401190D02*
X126697676Y-62496428D01*
X126697676Y-62496428D02*
X126792914Y-62591666D01*
X126792914Y-62591666D02*
X126840533Y-62686904D01*
X126554819Y-61496428D02*
X126554819Y-61401190D01*
X126554819Y-61401190D02*
X126602438Y-61305952D01*
X126602438Y-61305952D02*
X126650057Y-61258333D01*
X126650057Y-61258333D02*
X126745295Y-61210714D01*
X126745295Y-61210714D02*
X126935771Y-61163095D01*
X126935771Y-61163095D02*
X127173866Y-61163095D01*
X127173866Y-61163095D02*
X127364342Y-61210714D01*
X127364342Y-61210714D02*
X127459580Y-61258333D01*
X127459580Y-61258333D02*
X127507200Y-61305952D01*
X127507200Y-61305952D02*
X127554819Y-61401190D01*
X127554819Y-61401190D02*
X127554819Y-61496428D01*
X127554819Y-61496428D02*
X127507200Y-61591666D01*
X127507200Y-61591666D02*
X127459580Y-61639285D01*
X127459580Y-61639285D02*
X127364342Y-61686904D01*
X127364342Y-61686904D02*
X127173866Y-61734523D01*
X127173866Y-61734523D02*
X126935771Y-61734523D01*
X126935771Y-61734523D02*
X126745295Y-61686904D01*
X126745295Y-61686904D02*
X126650057Y-61639285D01*
X126650057Y-61639285D02*
X126602438Y-61591666D01*
X126602438Y-61591666D02*
X126554819Y-61496428D01*
X142192142Y-66229580D02*
X142144523Y-66277200D01*
X142144523Y-66277200D02*
X142001666Y-66324819D01*
X142001666Y-66324819D02*
X141906428Y-66324819D01*
X141906428Y-66324819D02*
X141763571Y-66277200D01*
X141763571Y-66277200D02*
X141668333Y-66181961D01*
X141668333Y-66181961D02*
X141620714Y-66086723D01*
X141620714Y-66086723D02*
X141573095Y-65896247D01*
X141573095Y-65896247D02*
X141573095Y-65753390D01*
X141573095Y-65753390D02*
X141620714Y-65562914D01*
X141620714Y-65562914D02*
X141668333Y-65467676D01*
X141668333Y-65467676D02*
X141763571Y-65372438D01*
X141763571Y-65372438D02*
X141906428Y-65324819D01*
X141906428Y-65324819D02*
X142001666Y-65324819D01*
X142001666Y-65324819D02*
X142144523Y-65372438D01*
X142144523Y-65372438D02*
X142192142Y-65420057D01*
X142573095Y-65420057D02*
X142620714Y-65372438D01*
X142620714Y-65372438D02*
X142715952Y-65324819D01*
X142715952Y-65324819D02*
X142954047Y-65324819D01*
X142954047Y-65324819D02*
X143049285Y-65372438D01*
X143049285Y-65372438D02*
X143096904Y-65420057D01*
X143096904Y-65420057D02*
X143144523Y-65515295D01*
X143144523Y-65515295D02*
X143144523Y-65610533D01*
X143144523Y-65610533D02*
X143096904Y-65753390D01*
X143096904Y-65753390D02*
X142525476Y-66324819D01*
X142525476Y-66324819D02*
X143144523Y-66324819D01*
X143763571Y-65324819D02*
X143858809Y-65324819D01*
X143858809Y-65324819D02*
X143954047Y-65372438D01*
X143954047Y-65372438D02*
X144001666Y-65420057D01*
X144001666Y-65420057D02*
X144049285Y-65515295D01*
X144049285Y-65515295D02*
X144096904Y-65705771D01*
X144096904Y-65705771D02*
X144096904Y-65943866D01*
X144096904Y-65943866D02*
X144049285Y-66134342D01*
X144049285Y-66134342D02*
X144001666Y-66229580D01*
X144001666Y-66229580D02*
X143954047Y-66277200D01*
X143954047Y-66277200D02*
X143858809Y-66324819D01*
X143858809Y-66324819D02*
X143763571Y-66324819D01*
X143763571Y-66324819D02*
X143668333Y-66277200D01*
X143668333Y-66277200D02*
X143620714Y-66229580D01*
X143620714Y-66229580D02*
X143573095Y-66134342D01*
X143573095Y-66134342D02*
X143525476Y-65943866D01*
X143525476Y-65943866D02*
X143525476Y-65705771D01*
X143525476Y-65705771D02*
X143573095Y-65515295D01*
X143573095Y-65515295D02*
X143620714Y-65420057D01*
X143620714Y-65420057D02*
X143668333Y-65372438D01*
X143668333Y-65372438D02*
X143763571Y-65324819D01*
X102279580Y-62066666D02*
X102327200Y-62114285D01*
X102327200Y-62114285D02*
X102374819Y-62257142D01*
X102374819Y-62257142D02*
X102374819Y-62352380D01*
X102374819Y-62352380D02*
X102327200Y-62495237D01*
X102327200Y-62495237D02*
X102231961Y-62590475D01*
X102231961Y-62590475D02*
X102136723Y-62638094D01*
X102136723Y-62638094D02*
X101946247Y-62685713D01*
X101946247Y-62685713D02*
X101803390Y-62685713D01*
X101803390Y-62685713D02*
X101612914Y-62638094D01*
X101612914Y-62638094D02*
X101517676Y-62590475D01*
X101517676Y-62590475D02*
X101422438Y-62495237D01*
X101422438Y-62495237D02*
X101374819Y-62352380D01*
X101374819Y-62352380D02*
X101374819Y-62257142D01*
X101374819Y-62257142D02*
X101422438Y-62114285D01*
X101422438Y-62114285D02*
X101470057Y-62066666D01*
X102374819Y-61114285D02*
X102374819Y-61685713D01*
X102374819Y-61399999D02*
X101374819Y-61399999D01*
X101374819Y-61399999D02*
X101517676Y-61495237D01*
X101517676Y-61495237D02*
X101612914Y-61590475D01*
X101612914Y-61590475D02*
X101660533Y-61685713D01*
X136354819Y-86242857D02*
X135878628Y-86576190D01*
X136354819Y-86814285D02*
X135354819Y-86814285D01*
X135354819Y-86814285D02*
X135354819Y-86433333D01*
X135354819Y-86433333D02*
X135402438Y-86338095D01*
X135402438Y-86338095D02*
X135450057Y-86290476D01*
X135450057Y-86290476D02*
X135545295Y-86242857D01*
X135545295Y-86242857D02*
X135688152Y-86242857D01*
X135688152Y-86242857D02*
X135783390Y-86290476D01*
X135783390Y-86290476D02*
X135831009Y-86338095D01*
X135831009Y-86338095D02*
X135878628Y-86433333D01*
X135878628Y-86433333D02*
X135878628Y-86814285D01*
X135354819Y-85909523D02*
X135354819Y-85290476D01*
X135354819Y-85290476D02*
X135735771Y-85623809D01*
X135735771Y-85623809D02*
X135735771Y-85480952D01*
X135735771Y-85480952D02*
X135783390Y-85385714D01*
X135783390Y-85385714D02*
X135831009Y-85338095D01*
X135831009Y-85338095D02*
X135926247Y-85290476D01*
X135926247Y-85290476D02*
X136164342Y-85290476D01*
X136164342Y-85290476D02*
X136259580Y-85338095D01*
X136259580Y-85338095D02*
X136307200Y-85385714D01*
X136307200Y-85385714D02*
X136354819Y-85480952D01*
X136354819Y-85480952D02*
X136354819Y-85766666D01*
X136354819Y-85766666D02*
X136307200Y-85861904D01*
X136307200Y-85861904D02*
X136259580Y-85909523D01*
X135354819Y-84957142D02*
X135354819Y-84338095D01*
X135354819Y-84338095D02*
X135735771Y-84671428D01*
X135735771Y-84671428D02*
X135735771Y-84528571D01*
X135735771Y-84528571D02*
X135783390Y-84433333D01*
X135783390Y-84433333D02*
X135831009Y-84385714D01*
X135831009Y-84385714D02*
X135926247Y-84338095D01*
X135926247Y-84338095D02*
X136164342Y-84338095D01*
X136164342Y-84338095D02*
X136259580Y-84385714D01*
X136259580Y-84385714D02*
X136307200Y-84433333D01*
X136307200Y-84433333D02*
X136354819Y-84528571D01*
X136354819Y-84528571D02*
X136354819Y-84814285D01*
X136354819Y-84814285D02*
X136307200Y-84909523D01*
X136307200Y-84909523D02*
X136259580Y-84957142D01*
D13*
%TO.C,C14*%
X123530580Y-84890000D02*
X123249420Y-84890000D01*
X123530580Y-85910000D02*
X123249420Y-85910000D01*
%TO.C,R2*%
X109967500Y-66002742D02*
X109967500Y-66477258D01*
X111012500Y-66002742D02*
X111012500Y-66477258D01*
%TO.C,R12*%
X104662258Y-76927500D02*
X104187742Y-76927500D01*
X104662258Y-77972500D02*
X104187742Y-77972500D01*
%TO.C,C11*%
X122540580Y-87590000D02*
X122259420Y-87590000D01*
X122540580Y-88610000D02*
X122259420Y-88610000D01*
%TO.C,R11*%
X128175742Y-72677501D02*
X128650258Y-72677501D01*
X128175742Y-73722501D02*
X128650258Y-73722501D01*
%TO.C,R23*%
X128802742Y-78652501D02*
X129277258Y-78652501D01*
X128802742Y-79697501D02*
X129277258Y-79697501D01*
%TO.C,R1*%
X105427500Y-64822258D02*
X105427500Y-64347742D01*
X106472500Y-64822258D02*
X106472500Y-64347742D01*
%TO.C,R7*%
X115227500Y-58862742D02*
X115227500Y-59337258D01*
X116272500Y-58862742D02*
X116272500Y-59337258D01*
%TO.C,C4*%
X107990000Y-92940580D02*
X107990000Y-92659420D01*
X109010000Y-92940580D02*
X109010000Y-92659420D01*
%TO.C,TP2*%
X129800000Y-65600000D02*
G75*
G02*
X127400000Y-65600000I-1200000J0D01*
G01*
X127400000Y-65600000D02*
G75*
G02*
X129800000Y-65600000I1200000J0D01*
G01*
%TO.C,C16*%
X127128000Y-75559421D02*
X127128000Y-75840581D01*
X128148000Y-75559421D02*
X128148000Y-75840581D01*
%TO.C,R3*%
X107877500Y-65987742D02*
X107877500Y-66462258D01*
X108922500Y-65987742D02*
X108922500Y-66462258D01*
%TO.C,C7*%
X112623748Y-62510000D02*
X114046252Y-62510000D01*
X112623748Y-64330000D02*
X114046252Y-64330000D01*
D14*
%TO.C,U5*%
X148135000Y-65057501D02*
X148135000Y-65282502D01*
X148135000Y-66382500D02*
X148135000Y-66607501D01*
X149984998Y-64807502D02*
X149984998Y-65407501D01*
X149984998Y-66382500D02*
X149984998Y-66607501D01*
D13*
%TO.C,C15*%
X127052582Y-86340000D02*
X126771422Y-86340000D01*
X127052582Y-87360000D02*
X126771422Y-87360000D01*
%TO.C,C17*%
X118009420Y-72350000D02*
X118290580Y-72350000D01*
X118009420Y-73370000D02*
X118290580Y-73370000D01*
%TO.C,R29*%
X144666143Y-78319099D02*
X145140659Y-78319099D01*
X144666143Y-79364099D02*
X145140659Y-79364099D01*
%TO.C,D3*%
X109040000Y-53877500D02*
X109040000Y-56562500D01*
X110960000Y-53877500D02*
X109040000Y-53877500D01*
X110960000Y-56562500D02*
X110960000Y-53877500D01*
%TO.C,R8*%
X118437500Y-55812259D02*
X118437500Y-55337743D01*
X119482500Y-55812259D02*
X119482500Y-55337743D01*
%TO.C,R17*%
X114887742Y-69077500D02*
X115362258Y-69077500D01*
X114887742Y-70122500D02*
X115362258Y-70122500D01*
%TO.C,R6*%
X109477500Y-59412258D02*
X109477500Y-58937742D01*
X110522500Y-59412258D02*
X110522500Y-58937742D01*
%TO.C,C3*%
X101990000Y-90865580D02*
X101990000Y-90584420D01*
X103010000Y-90865580D02*
X103010000Y-90584420D01*
%TO.C,C18*%
X128615580Y-68490000D02*
X128334420Y-68490000D01*
X128615580Y-69510000D02*
X128334420Y-69510000D01*
%TO.C,R28*%
X144666143Y-76319099D02*
X145140659Y-76319099D01*
X144666143Y-77364099D02*
X145140659Y-77364099D01*
%TO.C,R20*%
X128802742Y-83177501D02*
X129277258Y-83177501D01*
X128802742Y-84222501D02*
X129277258Y-84222501D01*
%TO.C,TP1*%
X114960000Y-55980000D02*
G75*
G02*
X112560000Y-55980000I-1200000J0D01*
G01*
X112560000Y-55980000D02*
G75*
G02*
X114960000Y-55980000I1200000J0D01*
G01*
%TO.C,C22*%
X137684420Y-69110000D02*
X137965580Y-69110000D01*
X137684420Y-70130000D02*
X137965580Y-70130000D01*
%TO.C,R13*%
X104857258Y-81817500D02*
X104382742Y-81817500D01*
X104857258Y-82862500D02*
X104382742Y-82862500D01*
D15*
%TO.C,S2*%
X115562802Y-93383620D02*
X115562802Y-95940378D01*
X115730453Y-97786199D02*
X121643551Y-97786199D01*
X121643551Y-91537799D02*
X115730453Y-91537799D01*
X121811202Y-95940378D02*
X121811202Y-93383620D01*
D11*
X114750002Y-90597999D02*
G75*
G02*
X114496002Y-90597999I-127000J0D01*
G01*
X114496002Y-90597999D02*
G75*
G02*
X114750002Y-90597999I127000J0D01*
G01*
D13*
%TO.C,R9*%
X120937500Y-55812259D02*
X120937500Y-55337743D01*
X121982500Y-55812259D02*
X121982500Y-55337743D01*
%TO.C,C21*%
X146435580Y-68310000D02*
X146154420Y-68310000D01*
X146435580Y-69330000D02*
X146154420Y-69330000D01*
D14*
%TO.C,U1*%
X107249994Y-64249998D02*
X107399999Y-64249998D01*
X107250000Y-60850000D02*
X107775000Y-60850000D01*
X109200001Y-60850000D02*
X109350006Y-60850000D01*
X109200001Y-64249998D02*
X109350006Y-64249998D01*
D13*
%TO.C,TP3*%
X112900000Y-95500000D02*
G75*
G02*
X110500000Y-95500000I-1200000J0D01*
G01*
X110500000Y-95500000D02*
G75*
G02*
X112900000Y-95500000I1200000J0D01*
G01*
%TO.C,R26*%
X145182258Y-74357500D02*
X144707742Y-74357500D01*
X145182258Y-75402500D02*
X144707742Y-75402500D01*
D14*
%TO.C,U6*%
X148020002Y-67895001D02*
X148620001Y-67895001D01*
X148270001Y-69744999D02*
X148495002Y-69744999D01*
X149595000Y-67895001D02*
X149820001Y-67895001D01*
X149595000Y-69744999D02*
X149820001Y-69744999D01*
D16*
%TO.C,U4*%
X133800000Y-76965000D02*
X133800000Y-73435000D01*
X138800000Y-73435000D02*
X138800000Y-76965000D01*
D14*
X134125000Y-79390000D02*
G75*
G02*
X133925000Y-79390000I-100000J0D01*
G01*
X133925000Y-79390000D02*
G75*
G02*
X134125000Y-79390000I100000J0D01*
G01*
D13*
%TO.C,C13*%
X114997420Y-85540001D02*
X115278580Y-85540001D01*
X114997420Y-86560001D02*
X115278580Y-86560001D01*
%TO.C,C25*%
X134915580Y-67610000D02*
X134634420Y-67610000D01*
X134915580Y-68630000D02*
X134634420Y-68630000D01*
%TO.C,R4*%
X110977500Y-89987258D02*
X110977500Y-89512742D01*
X112022500Y-89987258D02*
X112022500Y-89512742D01*
%TO.C,R14*%
X106977258Y-72267500D02*
X106502742Y-72267500D01*
X106977258Y-73312500D02*
X106502742Y-73312500D01*
%TO.C,R25*%
X145182258Y-72357500D02*
X144707742Y-72357500D01*
X145182258Y-73402500D02*
X144707742Y-73402500D01*
D15*
%TO.C,J3*%
X152848000Y-64335500D02*
X152848000Y-89589501D01*
X152848000Y-89589501D02*
X162102000Y-89589501D01*
X162102000Y-64335500D02*
X152848000Y-64335500D01*
X162102000Y-89589501D02*
X162102000Y-64335500D01*
D17*
X158356000Y-62557501D02*
G75*
G02*
X157594000Y-62557501I-381000J0D01*
G01*
X157594000Y-62557501D02*
G75*
G02*
X158356000Y-62557501I381000J0D01*
G01*
D13*
%TO.C,C6*%
X109490000Y-89890580D02*
X109490000Y-89609420D01*
X110510000Y-89890580D02*
X110510000Y-89609420D01*
D15*
%TO.C,CR1*%
X107398999Y-74861950D02*
X107398999Y-76868550D01*
X110700999Y-76868550D02*
X110700999Y-74861950D01*
D13*
%TO.C,D2*%
X127640000Y-57352500D02*
X127640000Y-60037500D01*
X129560000Y-57352500D02*
X127640000Y-57352500D01*
X129560000Y-60037500D02*
X129560000Y-57352500D01*
%TO.C,C9*%
X115115580Y-60915000D02*
X114834420Y-60915000D01*
X115115580Y-61935000D02*
X114834420Y-61935000D01*
%TO.C,C12*%
X114503000Y-81915581D02*
X114503000Y-81634421D01*
X115523000Y-81915581D02*
X115523000Y-81634421D01*
D14*
%TO.C,IC1*%
X118200000Y-75812000D02*
X124500000Y-75812000D01*
X118200000Y-82112000D02*
X118200000Y-75812000D01*
X124500000Y-75812000D02*
X124500000Y-82112000D01*
X124500000Y-82112000D02*
X118200000Y-82112000D01*
D18*
X117975000Y-83687000D02*
G75*
G02*
X117725000Y-83687000I-125000J0D01*
G01*
X117725000Y-83687000D02*
G75*
G02*
X117975000Y-83687000I125000J0D01*
G01*
D15*
%TO.C,L1*%
X99153000Y-66471756D02*
X99153000Y-67208244D01*
X104407000Y-67208244D02*
X104407000Y-66471756D01*
D13*
%TO.C,C5*%
X107990000Y-89890580D02*
X107990000Y-89609420D01*
X109010000Y-89890580D02*
X109010000Y-89609420D01*
%TO.C,C8*%
X115691252Y-65010000D02*
X114268748Y-65010000D01*
X115691252Y-66830000D02*
X114268748Y-66830000D01*
%TO.C,C2*%
X100490000Y-90865580D02*
X100490000Y-90584420D01*
X101510000Y-90865580D02*
X101510000Y-90584420D01*
%TO.C,C10*%
X124200000Y-59201253D02*
X124200000Y-57778749D01*
X126920000Y-59201253D02*
X126920000Y-57778749D01*
%TO.C,C23*%
X137684420Y-67610000D02*
X137965580Y-67610000D01*
X137684420Y-68630000D02*
X137965580Y-68630000D01*
%TO.C,R22*%
X128814742Y-80177500D02*
X129289258Y-80177500D01*
X128814742Y-81222500D02*
X129289258Y-81222500D01*
%TO.C,C24*%
X134915580Y-69110000D02*
X134634420Y-69110000D01*
X134915580Y-70130000D02*
X134634420Y-70130000D01*
%TO.C,R21*%
X133552500Y-82299758D02*
X133552500Y-81825242D01*
X134597500Y-82299758D02*
X134597500Y-81825242D01*
D12*
%TO.C,J1*%
X93800000Y-85400000D02*
X93800000Y-76600000D01*
X94900000Y-85200000D02*
X94900000Y-76800000D01*
D19*
X100420000Y-81000000D02*
X94100000Y-81000000D01*
D12*
X100900000Y-76600000D02*
X93800000Y-76600000D01*
X100900000Y-76600000D02*
X100900000Y-85400000D01*
X100900000Y-85400000D02*
X93800000Y-85400000D01*
D13*
%TO.C,R5*%
X128077500Y-62612258D02*
X128077500Y-62137742D01*
X129122500Y-62612258D02*
X129122500Y-62137742D01*
D15*
%TO.C,S1*%
X125225801Y-89918449D02*
X125225801Y-95831547D01*
X127071622Y-95999198D02*
X129628380Y-95999198D01*
X129628380Y-89750798D02*
X127071622Y-89750798D01*
X131474201Y-95831547D02*
X131474201Y-89918449D01*
D11*
X132541001Y-88810998D02*
G75*
G02*
X132287001Y-88810998I-127000J0D01*
G01*
X132287001Y-88810998D02*
G75*
G02*
X132541001Y-88810998I127000J0D01*
G01*
D13*
%TO.C,R19*%
X114489500Y-78649258D02*
X114489500Y-78174742D01*
X115534500Y-78649258D02*
X115534500Y-78174742D01*
%TO.C,J2*%
X118470000Y-65158001D02*
X118470000Y-70358001D01*
X123610000Y-65158001D02*
X118470000Y-65158001D01*
X123610000Y-65158001D02*
X123610000Y-67758001D01*
X123610000Y-67758001D02*
X126210000Y-67758001D01*
X124880000Y-65158001D02*
X126210000Y-65158001D01*
X126210000Y-65158001D02*
X126210000Y-66488001D01*
X126210000Y-67758001D02*
X126210000Y-70358001D01*
X126210000Y-70358001D02*
X118470000Y-70358001D01*
%TO.C,Y1*%
X120588000Y-90325001D02*
X120588000Y-85025001D01*
X116888000Y-90325001D02*
X120588000Y-90325001D01*
%TO.C,U2*%
X105465000Y-90910000D02*
X104665000Y-90910000D01*
X105465000Y-90910000D02*
X106265000Y-90910000D01*
X105465000Y-94030000D02*
X104665000Y-94030000D01*
X105465000Y-94030000D02*
X106265000Y-94030000D01*
X104165000Y-90960000D02*
X103925000Y-90630000D01*
X104405000Y-90630000D01*
X104165000Y-90960000D01*
G36*
X104165000Y-90960000D02*
G01*
X103925000Y-90630000D01*
X104405000Y-90630000D01*
X104165000Y-90960000D01*
G37*
%TO.C,R18*%
X115337258Y-67477500D02*
X114862742Y-67477500D01*
X115337258Y-68522500D02*
X114862742Y-68522500D01*
%TO.C,R27*%
X147347500Y-73632742D02*
X147347500Y-74107258D01*
X148392500Y-73632742D02*
X148392500Y-74107258D01*
%TO.C,R24*%
X128802742Y-81657501D02*
X129277258Y-81657501D01*
X128802742Y-82702501D02*
X129277258Y-82702501D01*
%TO.C,R30*%
X151007258Y-72537500D02*
X150532742Y-72537500D01*
X151007258Y-73582500D02*
X150532742Y-73582500D01*
%TO.C,R31*%
X151007258Y-74197500D02*
X150532742Y-74197500D01*
X151007258Y-75242500D02*
X150532742Y-75242500D01*
%TO.C,D1*%
X108715000Y-85540000D02*
X108715000Y-87460000D01*
X108715000Y-87460000D02*
X111400000Y-87460000D01*
X111400000Y-85540000D02*
X108715000Y-85540000D01*
D10*
%TO.C,U3*%
X117625000Y-58065001D02*
X117625000Y-58732086D01*
X117625000Y-62397916D02*
X117625000Y-63065001D01*
X118292085Y-58065001D02*
X117625000Y-58065001D01*
X118292085Y-63065001D02*
X117625000Y-63065001D01*
X122625000Y-58065001D02*
X121957915Y-58065001D01*
X122625000Y-58065001D02*
X122625000Y-58732086D01*
X122625000Y-62397916D02*
X122625000Y-63065001D01*
X122625000Y-63065001D02*
X121957915Y-63065001D01*
D18*
X123779110Y-61865001D02*
G75*
G02*
X123529108Y-61865001I-125001J0D01*
G01*
X123529108Y-61865001D02*
G75*
G02*
X123779110Y-61865001I125001J0D01*
G01*
D13*
%TO.C,R10*%
X125077500Y-62662258D02*
X125077500Y-62187742D01*
X126122500Y-62662258D02*
X126122500Y-62187742D01*
%TO.C,C20*%
X146425580Y-65322501D02*
X146144420Y-65322501D01*
X146425580Y-66342501D02*
X146144420Y-66342501D01*
%TO.C,C1*%
X102865000Y-62161252D02*
X102865000Y-61638748D01*
X104335000Y-62161252D02*
X104335000Y-61638748D01*
%TO.C,R33*%
X135227500Y-82299759D02*
X135227500Y-81825243D01*
X136272500Y-82299759D02*
X136272500Y-81825243D01*
%TD*%
M02*
