%TF.GenerationSoftware,KiCad,Pcbnew,8.0.5*%
%TF.CreationDate,2024-10-07T09:04:04+02:00*%
%TF.ProjectId,ADC_Klipper_Board,4144435f-4b6c-4697-9070-65725f426f61,rev?*%
%TF.SameCoordinates,Original*%
%TF.FileFunction,Drillmap*%
%TF.FilePolarity,Positive*%
%FSLAX45Y45*%
G04 Gerber Fmt 4.5, Leading zero omitted, Abs format (unit mm)*
G04 Created by KiCad (PCBNEW 8.0.5) date 2024-10-07 09:04:04*
%MOMM*%
%LPD*%
G01*
G04 APERTURE LIST*
%ADD10C,0.050000*%
%ADD11C,0.200000*%
%ADD12C,0.100000*%
%ADD13C,0.320000*%
G04 APERTURE END LIST*
D10*
X9355000Y-5322500D02*
X16255000Y-5322500D01*
X16255000Y-9822500D01*
X9355000Y-9822500D01*
X9355000Y-5322500D01*
D11*
D12*
X9972500Y-7777500D02*
X10037500Y-7842500D01*
X10037500Y-7777500D02*
X9972500Y-7842500D01*
X9972500Y-8357500D02*
X10037500Y-8422500D01*
X10037500Y-8357500D02*
X9972500Y-8422500D01*
D13*
X9865000Y-5672500D02*
G75*
G02*
X9545000Y-5672500I-160000J0D01*
G01*
X9545000Y-5672500D02*
G75*
G02*
X9865000Y-5672500I160000J0D01*
G01*
X9865000Y-9472500D02*
G75*
G02*
X9545000Y-9472500I-160000J0D01*
G01*
X9545000Y-9472500D02*
G75*
G02*
X9865000Y-9472500I160000J0D01*
G01*
X16065000Y-5672500D02*
G75*
G02*
X15745000Y-5672500I-160000J0D01*
G01*
X15745000Y-5672500D02*
G75*
G02*
X16065000Y-5672500I160000J0D01*
G01*
X16065000Y-9472500D02*
G75*
G02*
X15745000Y-9472500I-160000J0D01*
G01*
X15745000Y-9472500D02*
G75*
G02*
X16065000Y-9472500I160000J0D01*
G01*
D11*
X9613277Y-10136484D02*
X9613277Y-9936484D01*
X9613277Y-9936484D02*
X9660896Y-9936484D01*
X9660896Y-9936484D02*
X9689467Y-9946008D01*
X9689467Y-9946008D02*
X9708515Y-9965055D01*
X9708515Y-9965055D02*
X9718039Y-9984103D01*
X9718039Y-9984103D02*
X9727563Y-10022198D01*
X9727563Y-10022198D02*
X9727563Y-10050770D01*
X9727563Y-10050770D02*
X9718039Y-10088865D01*
X9718039Y-10088865D02*
X9708515Y-10107912D01*
X9708515Y-10107912D02*
X9689467Y-10126960D01*
X9689467Y-10126960D02*
X9660896Y-10136484D01*
X9660896Y-10136484D02*
X9613277Y-10136484D01*
X9813277Y-10136484D02*
X9813277Y-10003150D01*
X9813277Y-10041246D02*
X9822801Y-10022198D01*
X9822801Y-10022198D02*
X9832324Y-10012674D01*
X9832324Y-10012674D02*
X9851372Y-10003150D01*
X9851372Y-10003150D02*
X9870420Y-10003150D01*
X9937086Y-10136484D02*
X9937086Y-10003150D01*
X9937086Y-9936484D02*
X9927563Y-9946008D01*
X9927563Y-9946008D02*
X9937086Y-9955531D01*
X9937086Y-9955531D02*
X9946610Y-9946008D01*
X9946610Y-9946008D02*
X9937086Y-9936484D01*
X9937086Y-9936484D02*
X9937086Y-9955531D01*
X10060896Y-10136484D02*
X10041848Y-10126960D01*
X10041848Y-10126960D02*
X10032324Y-10107912D01*
X10032324Y-10107912D02*
X10032324Y-9936484D01*
X10165658Y-10136484D02*
X10146610Y-10126960D01*
X10146610Y-10126960D02*
X10137086Y-10107912D01*
X10137086Y-10107912D02*
X10137086Y-9936484D01*
X10394229Y-10136484D02*
X10394229Y-9936484D01*
X10394229Y-9936484D02*
X10460896Y-10079341D01*
X10460896Y-10079341D02*
X10527563Y-9936484D01*
X10527563Y-9936484D02*
X10527563Y-10136484D01*
X10708515Y-10136484D02*
X10708515Y-10031722D01*
X10708515Y-10031722D02*
X10698991Y-10012674D01*
X10698991Y-10012674D02*
X10679944Y-10003150D01*
X10679944Y-10003150D02*
X10641848Y-10003150D01*
X10641848Y-10003150D02*
X10622801Y-10012674D01*
X10708515Y-10126960D02*
X10689467Y-10136484D01*
X10689467Y-10136484D02*
X10641848Y-10136484D01*
X10641848Y-10136484D02*
X10622801Y-10126960D01*
X10622801Y-10126960D02*
X10613277Y-10107912D01*
X10613277Y-10107912D02*
X10613277Y-10088865D01*
X10613277Y-10088865D02*
X10622801Y-10069817D01*
X10622801Y-10069817D02*
X10641848Y-10060293D01*
X10641848Y-10060293D02*
X10689467Y-10060293D01*
X10689467Y-10060293D02*
X10708515Y-10050770D01*
X10803753Y-10003150D02*
X10803753Y-10203150D01*
X10803753Y-10012674D02*
X10822801Y-10003150D01*
X10822801Y-10003150D02*
X10860896Y-10003150D01*
X10860896Y-10003150D02*
X10879944Y-10012674D01*
X10879944Y-10012674D02*
X10889467Y-10022198D01*
X10889467Y-10022198D02*
X10898991Y-10041246D01*
X10898991Y-10041246D02*
X10898991Y-10098389D01*
X10898991Y-10098389D02*
X10889467Y-10117436D01*
X10889467Y-10117436D02*
X10879944Y-10126960D01*
X10879944Y-10126960D02*
X10860896Y-10136484D01*
X10860896Y-10136484D02*
X10822801Y-10136484D01*
X10822801Y-10136484D02*
X10803753Y-10126960D01*
X10984705Y-10117436D02*
X10994229Y-10126960D01*
X10994229Y-10126960D02*
X10984705Y-10136484D01*
X10984705Y-10136484D02*
X10975182Y-10126960D01*
X10975182Y-10126960D02*
X10984705Y-10117436D01*
X10984705Y-10117436D02*
X10984705Y-10136484D01*
X10984705Y-10012674D02*
X10994229Y-10022198D01*
X10994229Y-10022198D02*
X10984705Y-10031722D01*
X10984705Y-10031722D02*
X10975182Y-10022198D01*
X10975182Y-10022198D02*
X10984705Y-10012674D01*
X10984705Y-10012674D02*
X10984705Y-10031722D01*
D12*
X9287500Y-10432500D02*
X9352500Y-10497500D01*
X9352500Y-10432500D02*
X9287500Y-10497500D01*
D11*
X9651372Y-10356484D02*
X9670420Y-10356484D01*
X9670420Y-10356484D02*
X9689467Y-10366008D01*
X9689467Y-10366008D02*
X9698991Y-10375531D01*
X9698991Y-10375531D02*
X9708515Y-10394579D01*
X9708515Y-10394579D02*
X9718039Y-10432674D01*
X9718039Y-10432674D02*
X9718039Y-10480293D01*
X9718039Y-10480293D02*
X9708515Y-10518389D01*
X9708515Y-10518389D02*
X9698991Y-10537436D01*
X9698991Y-10537436D02*
X9689467Y-10546960D01*
X9689467Y-10546960D02*
X9670420Y-10556484D01*
X9670420Y-10556484D02*
X9651372Y-10556484D01*
X9651372Y-10556484D02*
X9632324Y-10546960D01*
X9632324Y-10546960D02*
X9622801Y-10537436D01*
X9622801Y-10537436D02*
X9613277Y-10518389D01*
X9613277Y-10518389D02*
X9603753Y-10480293D01*
X9603753Y-10480293D02*
X9603753Y-10432674D01*
X9603753Y-10432674D02*
X9613277Y-10394579D01*
X9613277Y-10394579D02*
X9622801Y-10375531D01*
X9622801Y-10375531D02*
X9632324Y-10366008D01*
X9632324Y-10366008D02*
X9651372Y-10356484D01*
X9803753Y-10537436D02*
X9813277Y-10546960D01*
X9813277Y-10546960D02*
X9803753Y-10556484D01*
X9803753Y-10556484D02*
X9794229Y-10546960D01*
X9794229Y-10546960D02*
X9803753Y-10537436D01*
X9803753Y-10537436D02*
X9803753Y-10556484D01*
X9984705Y-10356484D02*
X9946610Y-10356484D01*
X9946610Y-10356484D02*
X9927563Y-10366008D01*
X9927563Y-10366008D02*
X9918039Y-10375531D01*
X9918039Y-10375531D02*
X9898991Y-10404103D01*
X9898991Y-10404103D02*
X9889467Y-10442198D01*
X9889467Y-10442198D02*
X9889467Y-10518389D01*
X9889467Y-10518389D02*
X9898991Y-10537436D01*
X9898991Y-10537436D02*
X9908515Y-10546960D01*
X9908515Y-10546960D02*
X9927563Y-10556484D01*
X9927563Y-10556484D02*
X9965658Y-10556484D01*
X9965658Y-10556484D02*
X9984705Y-10546960D01*
X9984705Y-10546960D02*
X9994229Y-10537436D01*
X9994229Y-10537436D02*
X10003753Y-10518389D01*
X10003753Y-10518389D02*
X10003753Y-10470770D01*
X10003753Y-10470770D02*
X9994229Y-10451722D01*
X9994229Y-10451722D02*
X9984705Y-10442198D01*
X9984705Y-10442198D02*
X9965658Y-10432674D01*
X9965658Y-10432674D02*
X9927563Y-10432674D01*
X9927563Y-10432674D02*
X9908515Y-10442198D01*
X9908515Y-10442198D02*
X9898991Y-10451722D01*
X9898991Y-10451722D02*
X9889467Y-10470770D01*
X10184705Y-10356484D02*
X10089467Y-10356484D01*
X10089467Y-10356484D02*
X10079944Y-10451722D01*
X10079944Y-10451722D02*
X10089467Y-10442198D01*
X10089467Y-10442198D02*
X10108515Y-10432674D01*
X10108515Y-10432674D02*
X10156134Y-10432674D01*
X10156134Y-10432674D02*
X10175182Y-10442198D01*
X10175182Y-10442198D02*
X10184705Y-10451722D01*
X10184705Y-10451722D02*
X10194229Y-10470770D01*
X10194229Y-10470770D02*
X10194229Y-10518389D01*
X10194229Y-10518389D02*
X10184705Y-10537436D01*
X10184705Y-10537436D02*
X10175182Y-10546960D01*
X10175182Y-10546960D02*
X10156134Y-10556484D01*
X10156134Y-10556484D02*
X10108515Y-10556484D01*
X10108515Y-10556484D02*
X10089467Y-10546960D01*
X10089467Y-10546960D02*
X10079944Y-10537436D01*
X10318039Y-10356484D02*
X10337086Y-10356484D01*
X10337086Y-10356484D02*
X10356134Y-10366008D01*
X10356134Y-10366008D02*
X10365658Y-10375531D01*
X10365658Y-10375531D02*
X10375182Y-10394579D01*
X10375182Y-10394579D02*
X10384705Y-10432674D01*
X10384705Y-10432674D02*
X10384705Y-10480293D01*
X10384705Y-10480293D02*
X10375182Y-10518389D01*
X10375182Y-10518389D02*
X10365658Y-10537436D01*
X10365658Y-10537436D02*
X10356134Y-10546960D01*
X10356134Y-10546960D02*
X10337086Y-10556484D01*
X10337086Y-10556484D02*
X10318039Y-10556484D01*
X10318039Y-10556484D02*
X10298991Y-10546960D01*
X10298991Y-10546960D02*
X10289467Y-10537436D01*
X10289467Y-10537436D02*
X10279944Y-10518389D01*
X10279944Y-10518389D02*
X10270420Y-10480293D01*
X10270420Y-10480293D02*
X10270420Y-10432674D01*
X10270420Y-10432674D02*
X10279944Y-10394579D01*
X10279944Y-10394579D02*
X10289467Y-10375531D01*
X10289467Y-10375531D02*
X10298991Y-10366008D01*
X10298991Y-10366008D02*
X10318039Y-10356484D01*
X10470420Y-10556484D02*
X10470420Y-10423150D01*
X10470420Y-10442198D02*
X10479944Y-10432674D01*
X10479944Y-10432674D02*
X10498991Y-10423150D01*
X10498991Y-10423150D02*
X10527563Y-10423150D01*
X10527563Y-10423150D02*
X10546610Y-10432674D01*
X10546610Y-10432674D02*
X10556134Y-10451722D01*
X10556134Y-10451722D02*
X10556134Y-10556484D01*
X10556134Y-10451722D02*
X10565658Y-10432674D01*
X10565658Y-10432674D02*
X10584705Y-10423150D01*
X10584705Y-10423150D02*
X10613277Y-10423150D01*
X10613277Y-10423150D02*
X10632325Y-10432674D01*
X10632325Y-10432674D02*
X10641848Y-10451722D01*
X10641848Y-10451722D02*
X10641848Y-10556484D01*
X10737086Y-10556484D02*
X10737086Y-10423150D01*
X10737086Y-10442198D02*
X10746610Y-10432674D01*
X10746610Y-10432674D02*
X10765658Y-10423150D01*
X10765658Y-10423150D02*
X10794229Y-10423150D01*
X10794229Y-10423150D02*
X10813277Y-10432674D01*
X10813277Y-10432674D02*
X10822801Y-10451722D01*
X10822801Y-10451722D02*
X10822801Y-10556484D01*
X10822801Y-10451722D02*
X10832325Y-10432674D01*
X10832325Y-10432674D02*
X10851372Y-10423150D01*
X10851372Y-10423150D02*
X10879944Y-10423150D01*
X10879944Y-10423150D02*
X10898991Y-10432674D01*
X10898991Y-10432674D02*
X10908515Y-10451722D01*
X10908515Y-10451722D02*
X10908515Y-10556484D01*
X11298991Y-10346960D02*
X11127563Y-10604103D01*
X11556134Y-10356484D02*
X11575182Y-10356484D01*
X11575182Y-10356484D02*
X11594229Y-10366008D01*
X11594229Y-10366008D02*
X11603753Y-10375531D01*
X11603753Y-10375531D02*
X11613277Y-10394579D01*
X11613277Y-10394579D02*
X11622801Y-10432674D01*
X11622801Y-10432674D02*
X11622801Y-10480293D01*
X11622801Y-10480293D02*
X11613277Y-10518389D01*
X11613277Y-10518389D02*
X11603753Y-10537436D01*
X11603753Y-10537436D02*
X11594229Y-10546960D01*
X11594229Y-10546960D02*
X11575182Y-10556484D01*
X11575182Y-10556484D02*
X11556134Y-10556484D01*
X11556134Y-10556484D02*
X11537086Y-10546960D01*
X11537086Y-10546960D02*
X11527563Y-10537436D01*
X11527563Y-10537436D02*
X11518039Y-10518389D01*
X11518039Y-10518389D02*
X11508515Y-10480293D01*
X11508515Y-10480293D02*
X11508515Y-10432674D01*
X11508515Y-10432674D02*
X11518039Y-10394579D01*
X11518039Y-10394579D02*
X11527563Y-10375531D01*
X11527563Y-10375531D02*
X11537086Y-10366008D01*
X11537086Y-10366008D02*
X11556134Y-10356484D01*
X11708515Y-10537436D02*
X11718039Y-10546960D01*
X11718039Y-10546960D02*
X11708515Y-10556484D01*
X11708515Y-10556484D02*
X11698991Y-10546960D01*
X11698991Y-10546960D02*
X11708515Y-10537436D01*
X11708515Y-10537436D02*
X11708515Y-10556484D01*
X11841848Y-10356484D02*
X11860896Y-10356484D01*
X11860896Y-10356484D02*
X11879944Y-10366008D01*
X11879944Y-10366008D02*
X11889467Y-10375531D01*
X11889467Y-10375531D02*
X11898991Y-10394579D01*
X11898991Y-10394579D02*
X11908515Y-10432674D01*
X11908515Y-10432674D02*
X11908515Y-10480293D01*
X11908515Y-10480293D02*
X11898991Y-10518389D01*
X11898991Y-10518389D02*
X11889467Y-10537436D01*
X11889467Y-10537436D02*
X11879944Y-10546960D01*
X11879944Y-10546960D02*
X11860896Y-10556484D01*
X11860896Y-10556484D02*
X11841848Y-10556484D01*
X11841848Y-10556484D02*
X11822801Y-10546960D01*
X11822801Y-10546960D02*
X11813277Y-10537436D01*
X11813277Y-10537436D02*
X11803753Y-10518389D01*
X11803753Y-10518389D02*
X11794229Y-10480293D01*
X11794229Y-10480293D02*
X11794229Y-10432674D01*
X11794229Y-10432674D02*
X11803753Y-10394579D01*
X11803753Y-10394579D02*
X11813277Y-10375531D01*
X11813277Y-10375531D02*
X11822801Y-10366008D01*
X11822801Y-10366008D02*
X11841848Y-10356484D01*
X11984706Y-10375531D02*
X11994229Y-10366008D01*
X11994229Y-10366008D02*
X12013277Y-10356484D01*
X12013277Y-10356484D02*
X12060896Y-10356484D01*
X12060896Y-10356484D02*
X12079944Y-10366008D01*
X12079944Y-10366008D02*
X12089467Y-10375531D01*
X12089467Y-10375531D02*
X12098991Y-10394579D01*
X12098991Y-10394579D02*
X12098991Y-10413627D01*
X12098991Y-10413627D02*
X12089467Y-10442198D01*
X12089467Y-10442198D02*
X11975182Y-10556484D01*
X11975182Y-10556484D02*
X12098991Y-10556484D01*
X12279944Y-10356484D02*
X12184706Y-10356484D01*
X12184706Y-10356484D02*
X12175182Y-10451722D01*
X12175182Y-10451722D02*
X12184706Y-10442198D01*
X12184706Y-10442198D02*
X12203753Y-10432674D01*
X12203753Y-10432674D02*
X12251372Y-10432674D01*
X12251372Y-10432674D02*
X12270420Y-10442198D01*
X12270420Y-10442198D02*
X12279944Y-10451722D01*
X12279944Y-10451722D02*
X12289467Y-10470770D01*
X12289467Y-10470770D02*
X12289467Y-10518389D01*
X12289467Y-10518389D02*
X12279944Y-10537436D01*
X12279944Y-10537436D02*
X12270420Y-10546960D01*
X12270420Y-10546960D02*
X12251372Y-10556484D01*
X12251372Y-10556484D02*
X12203753Y-10556484D01*
X12203753Y-10556484D02*
X12184706Y-10546960D01*
X12184706Y-10546960D02*
X12175182Y-10537436D01*
X12460896Y-10356484D02*
X12422801Y-10356484D01*
X12422801Y-10356484D02*
X12403753Y-10366008D01*
X12403753Y-10366008D02*
X12394229Y-10375531D01*
X12394229Y-10375531D02*
X12375182Y-10404103D01*
X12375182Y-10404103D02*
X12365658Y-10442198D01*
X12365658Y-10442198D02*
X12365658Y-10518389D01*
X12365658Y-10518389D02*
X12375182Y-10537436D01*
X12375182Y-10537436D02*
X12384706Y-10546960D01*
X12384706Y-10546960D02*
X12403753Y-10556484D01*
X12403753Y-10556484D02*
X12441848Y-10556484D01*
X12441848Y-10556484D02*
X12460896Y-10546960D01*
X12460896Y-10546960D02*
X12470420Y-10537436D01*
X12470420Y-10537436D02*
X12479944Y-10518389D01*
X12479944Y-10518389D02*
X12479944Y-10470770D01*
X12479944Y-10470770D02*
X12470420Y-10451722D01*
X12470420Y-10451722D02*
X12460896Y-10442198D01*
X12460896Y-10442198D02*
X12441848Y-10432674D01*
X12441848Y-10432674D02*
X12403753Y-10432674D01*
X12403753Y-10432674D02*
X12384706Y-10442198D01*
X12384706Y-10442198D02*
X12375182Y-10451722D01*
X12375182Y-10451722D02*
X12365658Y-10470770D01*
X12556134Y-10356484D02*
X12556134Y-10394579D01*
X12632325Y-10356484D02*
X12632325Y-10394579D01*
X12927563Y-10632674D02*
X12918039Y-10623150D01*
X12918039Y-10623150D02*
X12898991Y-10594579D01*
X12898991Y-10594579D02*
X12889468Y-10575531D01*
X12889468Y-10575531D02*
X12879944Y-10546960D01*
X12879944Y-10546960D02*
X12870420Y-10499341D01*
X12870420Y-10499341D02*
X12870420Y-10461246D01*
X12870420Y-10461246D02*
X12879944Y-10413627D01*
X12879944Y-10413627D02*
X12889468Y-10385055D01*
X12889468Y-10385055D02*
X12898991Y-10366008D01*
X12898991Y-10366008D02*
X12918039Y-10337436D01*
X12918039Y-10337436D02*
X12927563Y-10327912D01*
X12994229Y-10375531D02*
X13003753Y-10366008D01*
X13003753Y-10366008D02*
X13022801Y-10356484D01*
X13022801Y-10356484D02*
X13070420Y-10356484D01*
X13070420Y-10356484D02*
X13089468Y-10366008D01*
X13089468Y-10366008D02*
X13098991Y-10375531D01*
X13098991Y-10375531D02*
X13108515Y-10394579D01*
X13108515Y-10394579D02*
X13108515Y-10413627D01*
X13108515Y-10413627D02*
X13098991Y-10442198D01*
X13098991Y-10442198D02*
X12984706Y-10556484D01*
X12984706Y-10556484D02*
X13108515Y-10556484D01*
X13346610Y-10556484D02*
X13346610Y-10356484D01*
X13432325Y-10556484D02*
X13432325Y-10451722D01*
X13432325Y-10451722D02*
X13422801Y-10432674D01*
X13422801Y-10432674D02*
X13403753Y-10423150D01*
X13403753Y-10423150D02*
X13375182Y-10423150D01*
X13375182Y-10423150D02*
X13356134Y-10432674D01*
X13356134Y-10432674D02*
X13346610Y-10442198D01*
X13556134Y-10556484D02*
X13537087Y-10546960D01*
X13537087Y-10546960D02*
X13527563Y-10537436D01*
X13527563Y-10537436D02*
X13518039Y-10518389D01*
X13518039Y-10518389D02*
X13518039Y-10461246D01*
X13518039Y-10461246D02*
X13527563Y-10442198D01*
X13527563Y-10442198D02*
X13537087Y-10432674D01*
X13537087Y-10432674D02*
X13556134Y-10423150D01*
X13556134Y-10423150D02*
X13584706Y-10423150D01*
X13584706Y-10423150D02*
X13603753Y-10432674D01*
X13603753Y-10432674D02*
X13613277Y-10442198D01*
X13613277Y-10442198D02*
X13622801Y-10461246D01*
X13622801Y-10461246D02*
X13622801Y-10518389D01*
X13622801Y-10518389D02*
X13613277Y-10537436D01*
X13613277Y-10537436D02*
X13603753Y-10546960D01*
X13603753Y-10546960D02*
X13584706Y-10556484D01*
X13584706Y-10556484D02*
X13556134Y-10556484D01*
X13737087Y-10556484D02*
X13718039Y-10546960D01*
X13718039Y-10546960D02*
X13708515Y-10527912D01*
X13708515Y-10527912D02*
X13708515Y-10356484D01*
X13889468Y-10546960D02*
X13870420Y-10556484D01*
X13870420Y-10556484D02*
X13832325Y-10556484D01*
X13832325Y-10556484D02*
X13813277Y-10546960D01*
X13813277Y-10546960D02*
X13803753Y-10527912D01*
X13803753Y-10527912D02*
X13803753Y-10451722D01*
X13803753Y-10451722D02*
X13813277Y-10432674D01*
X13813277Y-10432674D02*
X13832325Y-10423150D01*
X13832325Y-10423150D02*
X13870420Y-10423150D01*
X13870420Y-10423150D02*
X13889468Y-10432674D01*
X13889468Y-10432674D02*
X13898991Y-10451722D01*
X13898991Y-10451722D02*
X13898991Y-10470770D01*
X13898991Y-10470770D02*
X13803753Y-10489817D01*
X13975182Y-10546960D02*
X13994230Y-10556484D01*
X13994230Y-10556484D02*
X14032325Y-10556484D01*
X14032325Y-10556484D02*
X14051372Y-10546960D01*
X14051372Y-10546960D02*
X14060896Y-10527912D01*
X14060896Y-10527912D02*
X14060896Y-10518389D01*
X14060896Y-10518389D02*
X14051372Y-10499341D01*
X14051372Y-10499341D02*
X14032325Y-10489817D01*
X14032325Y-10489817D02*
X14003753Y-10489817D01*
X14003753Y-10489817D02*
X13984706Y-10480293D01*
X13984706Y-10480293D02*
X13975182Y-10461246D01*
X13975182Y-10461246D02*
X13975182Y-10451722D01*
X13975182Y-10451722D02*
X13984706Y-10432674D01*
X13984706Y-10432674D02*
X14003753Y-10423150D01*
X14003753Y-10423150D02*
X14032325Y-10423150D01*
X14032325Y-10423150D02*
X14051372Y-10432674D01*
X14127563Y-10632674D02*
X14137087Y-10623150D01*
X14137087Y-10623150D02*
X14156134Y-10594579D01*
X14156134Y-10594579D02*
X14165658Y-10575531D01*
X14165658Y-10575531D02*
X14175182Y-10546960D01*
X14175182Y-10546960D02*
X14184706Y-10499341D01*
X14184706Y-10499341D02*
X14184706Y-10461246D01*
X14184706Y-10461246D02*
X14175182Y-10413627D01*
X14175182Y-10413627D02*
X14165658Y-10385055D01*
X14165658Y-10385055D02*
X14156134Y-10366008D01*
X14156134Y-10366008D02*
X14137087Y-10337436D01*
X14137087Y-10337436D02*
X14127563Y-10327912D01*
X14489468Y-10632674D02*
X14479944Y-10623150D01*
X14479944Y-10623150D02*
X14460896Y-10594579D01*
X14460896Y-10594579D02*
X14451372Y-10575531D01*
X14451372Y-10575531D02*
X14441849Y-10546960D01*
X14441849Y-10546960D02*
X14432325Y-10499341D01*
X14432325Y-10499341D02*
X14432325Y-10461246D01*
X14432325Y-10461246D02*
X14441849Y-10413627D01*
X14441849Y-10413627D02*
X14451372Y-10385055D01*
X14451372Y-10385055D02*
X14460896Y-10366008D01*
X14460896Y-10366008D02*
X14479944Y-10337436D01*
X14479944Y-10337436D02*
X14489468Y-10327912D01*
X14565658Y-10423150D02*
X14565658Y-10556484D01*
X14565658Y-10442198D02*
X14575182Y-10432674D01*
X14575182Y-10432674D02*
X14594230Y-10423150D01*
X14594230Y-10423150D02*
X14622801Y-10423150D01*
X14622801Y-10423150D02*
X14641849Y-10432674D01*
X14641849Y-10432674D02*
X14651372Y-10451722D01*
X14651372Y-10451722D02*
X14651372Y-10556484D01*
X14775182Y-10556484D02*
X14756134Y-10546960D01*
X14756134Y-10546960D02*
X14746611Y-10537436D01*
X14746611Y-10537436D02*
X14737087Y-10518389D01*
X14737087Y-10518389D02*
X14737087Y-10461246D01*
X14737087Y-10461246D02*
X14746611Y-10442198D01*
X14746611Y-10442198D02*
X14756134Y-10432674D01*
X14756134Y-10432674D02*
X14775182Y-10423150D01*
X14775182Y-10423150D02*
X14803753Y-10423150D01*
X14803753Y-10423150D02*
X14822801Y-10432674D01*
X14822801Y-10432674D02*
X14832325Y-10442198D01*
X14832325Y-10442198D02*
X14841849Y-10461246D01*
X14841849Y-10461246D02*
X14841849Y-10518389D01*
X14841849Y-10518389D02*
X14832325Y-10537436D01*
X14832325Y-10537436D02*
X14822801Y-10546960D01*
X14822801Y-10546960D02*
X14803753Y-10556484D01*
X14803753Y-10556484D02*
X14775182Y-10556484D01*
X14898992Y-10423150D02*
X14975182Y-10423150D01*
X14927563Y-10356484D02*
X14927563Y-10527912D01*
X14927563Y-10527912D02*
X14937087Y-10546960D01*
X14937087Y-10546960D02*
X14956134Y-10556484D01*
X14956134Y-10556484D02*
X14975182Y-10556484D01*
X15194230Y-10423150D02*
X15194230Y-10623150D01*
X15194230Y-10432674D02*
X15213277Y-10423150D01*
X15213277Y-10423150D02*
X15251373Y-10423150D01*
X15251373Y-10423150D02*
X15270420Y-10432674D01*
X15270420Y-10432674D02*
X15279944Y-10442198D01*
X15279944Y-10442198D02*
X15289468Y-10461246D01*
X15289468Y-10461246D02*
X15289468Y-10518389D01*
X15289468Y-10518389D02*
X15279944Y-10537436D01*
X15279944Y-10537436D02*
X15270420Y-10546960D01*
X15270420Y-10546960D02*
X15251373Y-10556484D01*
X15251373Y-10556484D02*
X15213277Y-10556484D01*
X15213277Y-10556484D02*
X15194230Y-10546960D01*
X15403753Y-10556484D02*
X15384706Y-10546960D01*
X15384706Y-10546960D02*
X15375182Y-10527912D01*
X15375182Y-10527912D02*
X15375182Y-10356484D01*
X15565658Y-10556484D02*
X15565658Y-10451722D01*
X15565658Y-10451722D02*
X15556134Y-10432674D01*
X15556134Y-10432674D02*
X15537087Y-10423150D01*
X15537087Y-10423150D02*
X15498992Y-10423150D01*
X15498992Y-10423150D02*
X15479944Y-10432674D01*
X15565658Y-10546960D02*
X15546611Y-10556484D01*
X15546611Y-10556484D02*
X15498992Y-10556484D01*
X15498992Y-10556484D02*
X15479944Y-10546960D01*
X15479944Y-10546960D02*
X15470420Y-10527912D01*
X15470420Y-10527912D02*
X15470420Y-10508865D01*
X15470420Y-10508865D02*
X15479944Y-10489817D01*
X15479944Y-10489817D02*
X15498992Y-10480293D01*
X15498992Y-10480293D02*
X15546611Y-10480293D01*
X15546611Y-10480293D02*
X15565658Y-10470770D01*
X15632325Y-10423150D02*
X15708515Y-10423150D01*
X15660896Y-10356484D02*
X15660896Y-10527912D01*
X15660896Y-10527912D02*
X15670420Y-10546960D01*
X15670420Y-10546960D02*
X15689468Y-10556484D01*
X15689468Y-10556484D02*
X15708515Y-10556484D01*
X15851373Y-10546960D02*
X15832325Y-10556484D01*
X15832325Y-10556484D02*
X15794230Y-10556484D01*
X15794230Y-10556484D02*
X15775182Y-10546960D01*
X15775182Y-10546960D02*
X15765658Y-10527912D01*
X15765658Y-10527912D02*
X15765658Y-10451722D01*
X15765658Y-10451722D02*
X15775182Y-10432674D01*
X15775182Y-10432674D02*
X15794230Y-10423150D01*
X15794230Y-10423150D02*
X15832325Y-10423150D01*
X15832325Y-10423150D02*
X15851373Y-10432674D01*
X15851373Y-10432674D02*
X15860896Y-10451722D01*
X15860896Y-10451722D02*
X15860896Y-10470770D01*
X15860896Y-10470770D02*
X15765658Y-10489817D01*
X16032325Y-10556484D02*
X16032325Y-10356484D01*
X16032325Y-10546960D02*
X16013277Y-10556484D01*
X16013277Y-10556484D02*
X15975182Y-10556484D01*
X15975182Y-10556484D02*
X15956134Y-10546960D01*
X15956134Y-10546960D02*
X15946611Y-10537436D01*
X15946611Y-10537436D02*
X15937087Y-10518389D01*
X15937087Y-10518389D02*
X15937087Y-10461246D01*
X15937087Y-10461246D02*
X15946611Y-10442198D01*
X15946611Y-10442198D02*
X15956134Y-10432674D01*
X15956134Y-10432674D02*
X15975182Y-10423150D01*
X15975182Y-10423150D02*
X16013277Y-10423150D01*
X16013277Y-10423150D02*
X16032325Y-10432674D01*
X16108515Y-10632674D02*
X16118039Y-10623150D01*
X16118039Y-10623150D02*
X16137087Y-10594579D01*
X16137087Y-10594579D02*
X16146611Y-10575531D01*
X16146611Y-10575531D02*
X16156134Y-10546960D01*
X16156134Y-10546960D02*
X16165658Y-10499341D01*
X16165658Y-10499341D02*
X16165658Y-10461246D01*
X16165658Y-10461246D02*
X16156134Y-10413627D01*
X16156134Y-10413627D02*
X16146611Y-10385055D01*
X16146611Y-10385055D02*
X16137087Y-10366008D01*
X16137087Y-10366008D02*
X16118039Y-10337436D01*
X16118039Y-10337436D02*
X16108515Y-10327912D01*
X9352500Y-10729000D02*
G75*
G02*
X9152500Y-10729000I-100000J0D01*
G01*
X9152500Y-10729000D02*
G75*
G02*
X9352500Y-10729000I100000J0D01*
G01*
X9594229Y-10620484D02*
X9718039Y-10620484D01*
X9718039Y-10620484D02*
X9651372Y-10696674D01*
X9651372Y-10696674D02*
X9679944Y-10696674D01*
X9679944Y-10696674D02*
X9698991Y-10706198D01*
X9698991Y-10706198D02*
X9708515Y-10715722D01*
X9708515Y-10715722D02*
X9718039Y-10734770D01*
X9718039Y-10734770D02*
X9718039Y-10782389D01*
X9718039Y-10782389D02*
X9708515Y-10801436D01*
X9708515Y-10801436D02*
X9698991Y-10810960D01*
X9698991Y-10810960D02*
X9679944Y-10820484D01*
X9679944Y-10820484D02*
X9622801Y-10820484D01*
X9622801Y-10820484D02*
X9603753Y-10810960D01*
X9603753Y-10810960D02*
X9594229Y-10801436D01*
X9803753Y-10801436D02*
X9813277Y-10810960D01*
X9813277Y-10810960D02*
X9803753Y-10820484D01*
X9803753Y-10820484D02*
X9794229Y-10810960D01*
X9794229Y-10810960D02*
X9803753Y-10801436D01*
X9803753Y-10801436D02*
X9803753Y-10820484D01*
X9889467Y-10639531D02*
X9898991Y-10630008D01*
X9898991Y-10630008D02*
X9918039Y-10620484D01*
X9918039Y-10620484D02*
X9965658Y-10620484D01*
X9965658Y-10620484D02*
X9984705Y-10630008D01*
X9984705Y-10630008D02*
X9994229Y-10639531D01*
X9994229Y-10639531D02*
X10003753Y-10658579D01*
X10003753Y-10658579D02*
X10003753Y-10677627D01*
X10003753Y-10677627D02*
X9994229Y-10706198D01*
X9994229Y-10706198D02*
X9879944Y-10820484D01*
X9879944Y-10820484D02*
X10003753Y-10820484D01*
X10127563Y-10620484D02*
X10146610Y-10620484D01*
X10146610Y-10620484D02*
X10165658Y-10630008D01*
X10165658Y-10630008D02*
X10175182Y-10639531D01*
X10175182Y-10639531D02*
X10184705Y-10658579D01*
X10184705Y-10658579D02*
X10194229Y-10696674D01*
X10194229Y-10696674D02*
X10194229Y-10744293D01*
X10194229Y-10744293D02*
X10184705Y-10782389D01*
X10184705Y-10782389D02*
X10175182Y-10801436D01*
X10175182Y-10801436D02*
X10165658Y-10810960D01*
X10165658Y-10810960D02*
X10146610Y-10820484D01*
X10146610Y-10820484D02*
X10127563Y-10820484D01*
X10127563Y-10820484D02*
X10108515Y-10810960D01*
X10108515Y-10810960D02*
X10098991Y-10801436D01*
X10098991Y-10801436D02*
X10089467Y-10782389D01*
X10089467Y-10782389D02*
X10079944Y-10744293D01*
X10079944Y-10744293D02*
X10079944Y-10696674D01*
X10079944Y-10696674D02*
X10089467Y-10658579D01*
X10089467Y-10658579D02*
X10098991Y-10639531D01*
X10098991Y-10639531D02*
X10108515Y-10630008D01*
X10108515Y-10630008D02*
X10127563Y-10620484D01*
X10318039Y-10620484D02*
X10337086Y-10620484D01*
X10337086Y-10620484D02*
X10356134Y-10630008D01*
X10356134Y-10630008D02*
X10365658Y-10639531D01*
X10365658Y-10639531D02*
X10375182Y-10658579D01*
X10375182Y-10658579D02*
X10384705Y-10696674D01*
X10384705Y-10696674D02*
X10384705Y-10744293D01*
X10384705Y-10744293D02*
X10375182Y-10782389D01*
X10375182Y-10782389D02*
X10365658Y-10801436D01*
X10365658Y-10801436D02*
X10356134Y-10810960D01*
X10356134Y-10810960D02*
X10337086Y-10820484D01*
X10337086Y-10820484D02*
X10318039Y-10820484D01*
X10318039Y-10820484D02*
X10298991Y-10810960D01*
X10298991Y-10810960D02*
X10289467Y-10801436D01*
X10289467Y-10801436D02*
X10279944Y-10782389D01*
X10279944Y-10782389D02*
X10270420Y-10744293D01*
X10270420Y-10744293D02*
X10270420Y-10696674D01*
X10270420Y-10696674D02*
X10279944Y-10658579D01*
X10279944Y-10658579D02*
X10289467Y-10639531D01*
X10289467Y-10639531D02*
X10298991Y-10630008D01*
X10298991Y-10630008D02*
X10318039Y-10620484D01*
X10470420Y-10820484D02*
X10470420Y-10687150D01*
X10470420Y-10706198D02*
X10479944Y-10696674D01*
X10479944Y-10696674D02*
X10498991Y-10687150D01*
X10498991Y-10687150D02*
X10527563Y-10687150D01*
X10527563Y-10687150D02*
X10546610Y-10696674D01*
X10546610Y-10696674D02*
X10556134Y-10715722D01*
X10556134Y-10715722D02*
X10556134Y-10820484D01*
X10556134Y-10715722D02*
X10565658Y-10696674D01*
X10565658Y-10696674D02*
X10584705Y-10687150D01*
X10584705Y-10687150D02*
X10613277Y-10687150D01*
X10613277Y-10687150D02*
X10632325Y-10696674D01*
X10632325Y-10696674D02*
X10641848Y-10715722D01*
X10641848Y-10715722D02*
X10641848Y-10820484D01*
X10737086Y-10820484D02*
X10737086Y-10687150D01*
X10737086Y-10706198D02*
X10746610Y-10696674D01*
X10746610Y-10696674D02*
X10765658Y-10687150D01*
X10765658Y-10687150D02*
X10794229Y-10687150D01*
X10794229Y-10687150D02*
X10813277Y-10696674D01*
X10813277Y-10696674D02*
X10822801Y-10715722D01*
X10822801Y-10715722D02*
X10822801Y-10820484D01*
X10822801Y-10715722D02*
X10832325Y-10696674D01*
X10832325Y-10696674D02*
X10851372Y-10687150D01*
X10851372Y-10687150D02*
X10879944Y-10687150D01*
X10879944Y-10687150D02*
X10898991Y-10696674D01*
X10898991Y-10696674D02*
X10908515Y-10715722D01*
X10908515Y-10715722D02*
X10908515Y-10820484D01*
X11298991Y-10610960D02*
X11127563Y-10868103D01*
X11556134Y-10620484D02*
X11575182Y-10620484D01*
X11575182Y-10620484D02*
X11594229Y-10630008D01*
X11594229Y-10630008D02*
X11603753Y-10639531D01*
X11603753Y-10639531D02*
X11613277Y-10658579D01*
X11613277Y-10658579D02*
X11622801Y-10696674D01*
X11622801Y-10696674D02*
X11622801Y-10744293D01*
X11622801Y-10744293D02*
X11613277Y-10782389D01*
X11613277Y-10782389D02*
X11603753Y-10801436D01*
X11603753Y-10801436D02*
X11594229Y-10810960D01*
X11594229Y-10810960D02*
X11575182Y-10820484D01*
X11575182Y-10820484D02*
X11556134Y-10820484D01*
X11556134Y-10820484D02*
X11537086Y-10810960D01*
X11537086Y-10810960D02*
X11527563Y-10801436D01*
X11527563Y-10801436D02*
X11518039Y-10782389D01*
X11518039Y-10782389D02*
X11508515Y-10744293D01*
X11508515Y-10744293D02*
X11508515Y-10696674D01*
X11508515Y-10696674D02*
X11518039Y-10658579D01*
X11518039Y-10658579D02*
X11527563Y-10639531D01*
X11527563Y-10639531D02*
X11537086Y-10630008D01*
X11537086Y-10630008D02*
X11556134Y-10620484D01*
X11708515Y-10801436D02*
X11718039Y-10810960D01*
X11718039Y-10810960D02*
X11708515Y-10820484D01*
X11708515Y-10820484D02*
X11698991Y-10810960D01*
X11698991Y-10810960D02*
X11708515Y-10801436D01*
X11708515Y-10801436D02*
X11708515Y-10820484D01*
X11908515Y-10820484D02*
X11794229Y-10820484D01*
X11851372Y-10820484D02*
X11851372Y-10620484D01*
X11851372Y-10620484D02*
X11832325Y-10649055D01*
X11832325Y-10649055D02*
X11813277Y-10668103D01*
X11813277Y-10668103D02*
X11794229Y-10677627D01*
X11984706Y-10639531D02*
X11994229Y-10630008D01*
X11994229Y-10630008D02*
X12013277Y-10620484D01*
X12013277Y-10620484D02*
X12060896Y-10620484D01*
X12060896Y-10620484D02*
X12079944Y-10630008D01*
X12079944Y-10630008D02*
X12089467Y-10639531D01*
X12089467Y-10639531D02*
X12098991Y-10658579D01*
X12098991Y-10658579D02*
X12098991Y-10677627D01*
X12098991Y-10677627D02*
X12089467Y-10706198D01*
X12089467Y-10706198D02*
X11975182Y-10820484D01*
X11975182Y-10820484D02*
X12098991Y-10820484D01*
X12270420Y-10620484D02*
X12232325Y-10620484D01*
X12232325Y-10620484D02*
X12213277Y-10630008D01*
X12213277Y-10630008D02*
X12203753Y-10639531D01*
X12203753Y-10639531D02*
X12184706Y-10668103D01*
X12184706Y-10668103D02*
X12175182Y-10706198D01*
X12175182Y-10706198D02*
X12175182Y-10782389D01*
X12175182Y-10782389D02*
X12184706Y-10801436D01*
X12184706Y-10801436D02*
X12194229Y-10810960D01*
X12194229Y-10810960D02*
X12213277Y-10820484D01*
X12213277Y-10820484D02*
X12251372Y-10820484D01*
X12251372Y-10820484D02*
X12270420Y-10810960D01*
X12270420Y-10810960D02*
X12279944Y-10801436D01*
X12279944Y-10801436D02*
X12289467Y-10782389D01*
X12289467Y-10782389D02*
X12289467Y-10734770D01*
X12289467Y-10734770D02*
X12279944Y-10715722D01*
X12279944Y-10715722D02*
X12270420Y-10706198D01*
X12270420Y-10706198D02*
X12251372Y-10696674D01*
X12251372Y-10696674D02*
X12213277Y-10696674D01*
X12213277Y-10696674D02*
X12194229Y-10706198D01*
X12194229Y-10706198D02*
X12184706Y-10715722D01*
X12184706Y-10715722D02*
X12175182Y-10734770D01*
X12413277Y-10620484D02*
X12432325Y-10620484D01*
X12432325Y-10620484D02*
X12451372Y-10630008D01*
X12451372Y-10630008D02*
X12460896Y-10639531D01*
X12460896Y-10639531D02*
X12470420Y-10658579D01*
X12470420Y-10658579D02*
X12479944Y-10696674D01*
X12479944Y-10696674D02*
X12479944Y-10744293D01*
X12479944Y-10744293D02*
X12470420Y-10782389D01*
X12470420Y-10782389D02*
X12460896Y-10801436D01*
X12460896Y-10801436D02*
X12451372Y-10810960D01*
X12451372Y-10810960D02*
X12432325Y-10820484D01*
X12432325Y-10820484D02*
X12413277Y-10820484D01*
X12413277Y-10820484D02*
X12394229Y-10810960D01*
X12394229Y-10810960D02*
X12384706Y-10801436D01*
X12384706Y-10801436D02*
X12375182Y-10782389D01*
X12375182Y-10782389D02*
X12365658Y-10744293D01*
X12365658Y-10744293D02*
X12365658Y-10696674D01*
X12365658Y-10696674D02*
X12375182Y-10658579D01*
X12375182Y-10658579D02*
X12384706Y-10639531D01*
X12384706Y-10639531D02*
X12394229Y-10630008D01*
X12394229Y-10630008D02*
X12413277Y-10620484D01*
X12556134Y-10620484D02*
X12556134Y-10658579D01*
X12632325Y-10620484D02*
X12632325Y-10658579D01*
X12927563Y-10896674D02*
X12918039Y-10887150D01*
X12918039Y-10887150D02*
X12898991Y-10858579D01*
X12898991Y-10858579D02*
X12889468Y-10839531D01*
X12889468Y-10839531D02*
X12879944Y-10810960D01*
X12879944Y-10810960D02*
X12870420Y-10763341D01*
X12870420Y-10763341D02*
X12870420Y-10725246D01*
X12870420Y-10725246D02*
X12879944Y-10677627D01*
X12879944Y-10677627D02*
X12889468Y-10649055D01*
X12889468Y-10649055D02*
X12898991Y-10630008D01*
X12898991Y-10630008D02*
X12918039Y-10601436D01*
X12918039Y-10601436D02*
X12927563Y-10591912D01*
X13089468Y-10687150D02*
X13089468Y-10820484D01*
X13041848Y-10610960D02*
X12994229Y-10753817D01*
X12994229Y-10753817D02*
X13118039Y-10753817D01*
X13346610Y-10820484D02*
X13346610Y-10620484D01*
X13432325Y-10820484D02*
X13432325Y-10715722D01*
X13432325Y-10715722D02*
X13422801Y-10696674D01*
X13422801Y-10696674D02*
X13403753Y-10687150D01*
X13403753Y-10687150D02*
X13375182Y-10687150D01*
X13375182Y-10687150D02*
X13356134Y-10696674D01*
X13356134Y-10696674D02*
X13346610Y-10706198D01*
X13556134Y-10820484D02*
X13537087Y-10810960D01*
X13537087Y-10810960D02*
X13527563Y-10801436D01*
X13527563Y-10801436D02*
X13518039Y-10782389D01*
X13518039Y-10782389D02*
X13518039Y-10725246D01*
X13518039Y-10725246D02*
X13527563Y-10706198D01*
X13527563Y-10706198D02*
X13537087Y-10696674D01*
X13537087Y-10696674D02*
X13556134Y-10687150D01*
X13556134Y-10687150D02*
X13584706Y-10687150D01*
X13584706Y-10687150D02*
X13603753Y-10696674D01*
X13603753Y-10696674D02*
X13613277Y-10706198D01*
X13613277Y-10706198D02*
X13622801Y-10725246D01*
X13622801Y-10725246D02*
X13622801Y-10782389D01*
X13622801Y-10782389D02*
X13613277Y-10801436D01*
X13613277Y-10801436D02*
X13603753Y-10810960D01*
X13603753Y-10810960D02*
X13584706Y-10820484D01*
X13584706Y-10820484D02*
X13556134Y-10820484D01*
X13737087Y-10820484D02*
X13718039Y-10810960D01*
X13718039Y-10810960D02*
X13708515Y-10791912D01*
X13708515Y-10791912D02*
X13708515Y-10620484D01*
X13889468Y-10810960D02*
X13870420Y-10820484D01*
X13870420Y-10820484D02*
X13832325Y-10820484D01*
X13832325Y-10820484D02*
X13813277Y-10810960D01*
X13813277Y-10810960D02*
X13803753Y-10791912D01*
X13803753Y-10791912D02*
X13803753Y-10715722D01*
X13803753Y-10715722D02*
X13813277Y-10696674D01*
X13813277Y-10696674D02*
X13832325Y-10687150D01*
X13832325Y-10687150D02*
X13870420Y-10687150D01*
X13870420Y-10687150D02*
X13889468Y-10696674D01*
X13889468Y-10696674D02*
X13898991Y-10715722D01*
X13898991Y-10715722D02*
X13898991Y-10734770D01*
X13898991Y-10734770D02*
X13803753Y-10753817D01*
X13975182Y-10810960D02*
X13994230Y-10820484D01*
X13994230Y-10820484D02*
X14032325Y-10820484D01*
X14032325Y-10820484D02*
X14051372Y-10810960D01*
X14051372Y-10810960D02*
X14060896Y-10791912D01*
X14060896Y-10791912D02*
X14060896Y-10782389D01*
X14060896Y-10782389D02*
X14051372Y-10763341D01*
X14051372Y-10763341D02*
X14032325Y-10753817D01*
X14032325Y-10753817D02*
X14003753Y-10753817D01*
X14003753Y-10753817D02*
X13984706Y-10744293D01*
X13984706Y-10744293D02*
X13975182Y-10725246D01*
X13975182Y-10725246D02*
X13975182Y-10715722D01*
X13975182Y-10715722D02*
X13984706Y-10696674D01*
X13984706Y-10696674D02*
X14003753Y-10687150D01*
X14003753Y-10687150D02*
X14032325Y-10687150D01*
X14032325Y-10687150D02*
X14051372Y-10696674D01*
X14127563Y-10896674D02*
X14137087Y-10887150D01*
X14137087Y-10887150D02*
X14156134Y-10858579D01*
X14156134Y-10858579D02*
X14165658Y-10839531D01*
X14165658Y-10839531D02*
X14175182Y-10810960D01*
X14175182Y-10810960D02*
X14184706Y-10763341D01*
X14184706Y-10763341D02*
X14184706Y-10725246D01*
X14184706Y-10725246D02*
X14175182Y-10677627D01*
X14175182Y-10677627D02*
X14165658Y-10649055D01*
X14165658Y-10649055D02*
X14156134Y-10630008D01*
X14156134Y-10630008D02*
X14137087Y-10601436D01*
X14137087Y-10601436D02*
X14127563Y-10591912D01*
X14489468Y-10896674D02*
X14479944Y-10887150D01*
X14479944Y-10887150D02*
X14460896Y-10858579D01*
X14460896Y-10858579D02*
X14451372Y-10839531D01*
X14451372Y-10839531D02*
X14441849Y-10810960D01*
X14441849Y-10810960D02*
X14432325Y-10763341D01*
X14432325Y-10763341D02*
X14432325Y-10725246D01*
X14432325Y-10725246D02*
X14441849Y-10677627D01*
X14441849Y-10677627D02*
X14451372Y-10649055D01*
X14451372Y-10649055D02*
X14460896Y-10630008D01*
X14460896Y-10630008D02*
X14479944Y-10601436D01*
X14479944Y-10601436D02*
X14489468Y-10591912D01*
X14565658Y-10687150D02*
X14565658Y-10820484D01*
X14565658Y-10706198D02*
X14575182Y-10696674D01*
X14575182Y-10696674D02*
X14594230Y-10687150D01*
X14594230Y-10687150D02*
X14622801Y-10687150D01*
X14622801Y-10687150D02*
X14641849Y-10696674D01*
X14641849Y-10696674D02*
X14651372Y-10715722D01*
X14651372Y-10715722D02*
X14651372Y-10820484D01*
X14775182Y-10820484D02*
X14756134Y-10810960D01*
X14756134Y-10810960D02*
X14746611Y-10801436D01*
X14746611Y-10801436D02*
X14737087Y-10782389D01*
X14737087Y-10782389D02*
X14737087Y-10725246D01*
X14737087Y-10725246D02*
X14746611Y-10706198D01*
X14746611Y-10706198D02*
X14756134Y-10696674D01*
X14756134Y-10696674D02*
X14775182Y-10687150D01*
X14775182Y-10687150D02*
X14803753Y-10687150D01*
X14803753Y-10687150D02*
X14822801Y-10696674D01*
X14822801Y-10696674D02*
X14832325Y-10706198D01*
X14832325Y-10706198D02*
X14841849Y-10725246D01*
X14841849Y-10725246D02*
X14841849Y-10782389D01*
X14841849Y-10782389D02*
X14832325Y-10801436D01*
X14832325Y-10801436D02*
X14822801Y-10810960D01*
X14822801Y-10810960D02*
X14803753Y-10820484D01*
X14803753Y-10820484D02*
X14775182Y-10820484D01*
X14898992Y-10687150D02*
X14975182Y-10687150D01*
X14927563Y-10620484D02*
X14927563Y-10791912D01*
X14927563Y-10791912D02*
X14937087Y-10810960D01*
X14937087Y-10810960D02*
X14956134Y-10820484D01*
X14956134Y-10820484D02*
X14975182Y-10820484D01*
X15194230Y-10687150D02*
X15194230Y-10887150D01*
X15194230Y-10696674D02*
X15213277Y-10687150D01*
X15213277Y-10687150D02*
X15251373Y-10687150D01*
X15251373Y-10687150D02*
X15270420Y-10696674D01*
X15270420Y-10696674D02*
X15279944Y-10706198D01*
X15279944Y-10706198D02*
X15289468Y-10725246D01*
X15289468Y-10725246D02*
X15289468Y-10782389D01*
X15289468Y-10782389D02*
X15279944Y-10801436D01*
X15279944Y-10801436D02*
X15270420Y-10810960D01*
X15270420Y-10810960D02*
X15251373Y-10820484D01*
X15251373Y-10820484D02*
X15213277Y-10820484D01*
X15213277Y-10820484D02*
X15194230Y-10810960D01*
X15403753Y-10820484D02*
X15384706Y-10810960D01*
X15384706Y-10810960D02*
X15375182Y-10791912D01*
X15375182Y-10791912D02*
X15375182Y-10620484D01*
X15565658Y-10820484D02*
X15565658Y-10715722D01*
X15565658Y-10715722D02*
X15556134Y-10696674D01*
X15556134Y-10696674D02*
X15537087Y-10687150D01*
X15537087Y-10687150D02*
X15498992Y-10687150D01*
X15498992Y-10687150D02*
X15479944Y-10696674D01*
X15565658Y-10810960D02*
X15546611Y-10820484D01*
X15546611Y-10820484D02*
X15498992Y-10820484D01*
X15498992Y-10820484D02*
X15479944Y-10810960D01*
X15479944Y-10810960D02*
X15470420Y-10791912D01*
X15470420Y-10791912D02*
X15470420Y-10772865D01*
X15470420Y-10772865D02*
X15479944Y-10753817D01*
X15479944Y-10753817D02*
X15498992Y-10744293D01*
X15498992Y-10744293D02*
X15546611Y-10744293D01*
X15546611Y-10744293D02*
X15565658Y-10734770D01*
X15632325Y-10687150D02*
X15708515Y-10687150D01*
X15660896Y-10620484D02*
X15660896Y-10791912D01*
X15660896Y-10791912D02*
X15670420Y-10810960D01*
X15670420Y-10810960D02*
X15689468Y-10820484D01*
X15689468Y-10820484D02*
X15708515Y-10820484D01*
X15851373Y-10810960D02*
X15832325Y-10820484D01*
X15832325Y-10820484D02*
X15794230Y-10820484D01*
X15794230Y-10820484D02*
X15775182Y-10810960D01*
X15775182Y-10810960D02*
X15765658Y-10791912D01*
X15765658Y-10791912D02*
X15765658Y-10715722D01*
X15765658Y-10715722D02*
X15775182Y-10696674D01*
X15775182Y-10696674D02*
X15794230Y-10687150D01*
X15794230Y-10687150D02*
X15832325Y-10687150D01*
X15832325Y-10687150D02*
X15851373Y-10696674D01*
X15851373Y-10696674D02*
X15860896Y-10715722D01*
X15860896Y-10715722D02*
X15860896Y-10734770D01*
X15860896Y-10734770D02*
X15765658Y-10753817D01*
X16032325Y-10820484D02*
X16032325Y-10620484D01*
X16032325Y-10810960D02*
X16013277Y-10820484D01*
X16013277Y-10820484D02*
X15975182Y-10820484D01*
X15975182Y-10820484D02*
X15956134Y-10810960D01*
X15956134Y-10810960D02*
X15946611Y-10801436D01*
X15946611Y-10801436D02*
X15937087Y-10782389D01*
X15937087Y-10782389D02*
X15937087Y-10725246D01*
X15937087Y-10725246D02*
X15946611Y-10706198D01*
X15946611Y-10706198D02*
X15956134Y-10696674D01*
X15956134Y-10696674D02*
X15975182Y-10687150D01*
X15975182Y-10687150D02*
X16013277Y-10687150D01*
X16013277Y-10687150D02*
X16032325Y-10696674D01*
X16108515Y-10896674D02*
X16118039Y-10887150D01*
X16118039Y-10887150D02*
X16137087Y-10858579D01*
X16137087Y-10858579D02*
X16146611Y-10839531D01*
X16146611Y-10839531D02*
X16156134Y-10810960D01*
X16156134Y-10810960D02*
X16165658Y-10763341D01*
X16165658Y-10763341D02*
X16165658Y-10725246D01*
X16165658Y-10725246D02*
X16156134Y-10677627D01*
X16156134Y-10677627D02*
X16146611Y-10649055D01*
X16146611Y-10649055D02*
X16137087Y-10630008D01*
X16137087Y-10630008D02*
X16118039Y-10601436D01*
X16118039Y-10601436D02*
X16108515Y-10591912D01*
M02*
